{
.appVersion = "1342";
DisplayStrings = (
"/BEm3",
"/LAMi3/BE_BARI_YEf1",
"",
"/sdb.yb",
"/sdb"
);
copyright = "Copyright (c) ITU Punjab Pakistan, 2016. All rights reserved.";
customParameters = (
{
name = description;
value = "This OpenType  Urdu Nastaliq font is developed by Zeeshan Nasar following the calligraphy of Nasrullah Mher with association of ITU Punjab Pakistan.";
},
{
name = license;
value = "All rights reserved. This font cannot be distributed, copied, modified, reverse-engineer in any manner.";
},
{
name = vendorID;
value = "NWQ ";
},
{
name = panose;
value = (
2,
0,
5,
3,
0,
0,
0,
2,
0,
4
);
},
{
name = unicodeRanges;
value = (
0,
1,
2,
3,
5,
7,
13,
31,
33,
35,
38,
60,
63
);
},
{
name = glyphOrder;
value = (
.notdef,
.null,
CR,
space,
exclam,
quotedbl,
numbersign,
dollar,
percent,
ampersand,
quotesingle,
parenleft,
parenright,
asterisk,
plus,
comma,
hyphen,
period,
slash,
zero,
one,
two,
three,
four,
five,
six,
seven,
eight,
nine,
colon,
semicolon,
less,
equal,
greater,
question,
at,
A,
B,
C,
D,
E,
F,
G,
H,
I,
J,
K,
L,
M,
N,
O,
P,
Q,
R,
S,
T,
U,
V,
W,
X,
Y,
Z,
bracketleft,
backslash,
bracketright,
asciicircum,
underscore,
grave,
a,
b,
c,
d,
e,
f,
g,
h,
i,
j,
k,
l,
m,
n,
o,
p,
q,
r,
s,
t,
u,
v,
w,
x,
y,
z,
braceleft,
bar,
braceright,
asciitilde,
quotedblleft,
quotedblright,
arabicquestion,
HAMZA,
alefwithmaddaabove,
alefupperhamza,
wowhamza,
aleflowerhamza,
yehhamza,
alef,
beh,
tehheh,
teh,
seh,
jeem,
hheh,
kheh,
daal,
zaal,
reh,
zeh,
arabicseen,
sheen,
arabicsod,
zod,
arabictaw,
zaw,
arabicann,
ghann,
fay,
qaf,
laam,
meem,
noon,
heh,
arabicwow,
arabicyeh,
tteh,
peh,
cheh,
ddaal,
rreh,
zzeh,
kaf,
gaf,
noonghunna,
hehdochashmee,
hehgoal,
yeh,
yehbarree,
arabicpercent,
urdu0,
urdu1,
urdu2,
urdu3,
urdu4,
urdu5,
urdu6,
urdu7,
urdu8,
urdu9,
thinspace,
arabicfullstop,
uni0614,
uni060F,
uni060E,
uni0603,
uni0601,
uni060C,
"eight#1",
uni061B,
"exclam#1",
ellipsis,
quoteleft,
quoteright,
MAD_SMALL,
DZABAR,
DPESH,
DZER,
ZABAR,
PESH,
ZER,
TASHDEED,
JAZM,

glyphs = (
{
glyphname = exclam;
lastChange = "2020-10-13 12:04:57 +0000";
layers = (
{
layerId = "6D6001D6-F15D-4D59-841D-B4ABFE65A828";
paths = (
{
closed = 1;
nodes = (
"485 233 LINE",
"639 233 LINE",
"666 1263 LINE",
"455 1263 LINE"
);
},
{
closed = 1;
nodes = (
"487.434 96 OFFCURVE",
"428 35.911 OFFCURVE",
"428 -37 CURVE SMOOTH",
"428 -108.741 OFFCURVE",
"487.451 -168 OFFCURVE",
"561 -168 CURVE SMOOTH",
"632.533 -168 OFFCURVE",
"692 -108.533 OFFCURVE",
"692 -37 CURVE SMOOTH",
"692 36.163 OFFCURVE",
"632.982 96 OFFCURVE",
"561 96 CURVE SMOOTH"
);
}
);
width = 1126;
}
);
note = exclam;
},
{
glyphname = quotedbl;
lastChange = "2020-10-13 12:04:57 +0000";
layers = (
{
layerId = "6D6001D6-F15D-4D59-841D-B4ABFE65A828";
paths = (
{
closed = 1;
nodes = (
"287 794 LINE",
"451 794 LINE",
"479 1263 LINE",
"258 1263 LINE"
);
},
{
closed = 1;
nodes = (
"676 794 LINE",
"840 794 LINE",
"868 1263 LINE",
"647 1263 LINE"
);
}
);
width = 1126;
}
);
note = quotedbl;
unicode = 0022;
},
{
glyphname = numbersign;
lastChange = "2020-10-13 12:04:57 +0000";
layers = (
{
layerId = "6D6001D6-F15D-4D59-841D-B4ABFE65A828";
paths = (
{
closed = 1;
nodes = (
"820 347 LINE",
"855 697 LINE",
"1083 697 LINE",
"1083 827 LINE",
"868 827 LINE",
"903 1157 LINE",
"755 1157 LINE",
"721 827 LINE",
"465 827 LINE",
"498 1157 LINE",
"352 1157 LINE",
"318 827 LINE",
"94 827 LINE",
"94 697 LINE",
"305 697 LINE",
"269 347 LINE",
"43 347 LINE",
"43 217 LINE",
"256 217 LINE",
"219 -150 LINE",
"367 -150 LINE",
"404 217 LINE",
"659 217 LINE",
"622 -150 LINE",
"770 -150 LINE",
"807 217 LINE",
"1030 217 LINE",
"1030 347 LINE"
);
},
{
closed = 1;
nodes = (
"452 697 LINE",
"708 697 LINE",
"673 347 LINE",
"417 347 LINE"
);
}
);
width = 1126;
}
);
note = numbersign;
unicode = 0023;
},
{
glyphname = dollar;
lastChange = "2020-10-13 12:04:57 +0000";
layers = (
{
layerId = "6D6001D6-F15D-4D59-841D-B4ABFE65A828";
paths = (
{
closed = 1;
nodes = (
"412.333 1147 OFFCURVE",
"301.333 1102.167 OFFCURVE",
"228 1037.5 CURVE SMOOTH",
"154.667 972.833 OFFCURVE",
"121 888.667 OFFCURVE",
"121 806 CURVE SMOOTH",
"121 704.667 OFFCURVE",
"166.5 633.5 OFFCURVE",
"232.5 579.5 CURVE SMOOTH",
"298.5 525.5 OFFCURVE",
"386.333 489.333 OFFCURVE",
"473 456 CURVE",
"414 6 LINE",
"292.667 12.667 OFFCURVE",
"195 31.667 OFFCURVE",
"111 61 CURVE",
"111 -105 LINE",
"183 -123.667 OFFCURVE",
"285 -140 OFFCURVE",
"393 -148 CURVE",
"360 -386 LINE",
"506 -386 LINE",
"539 -148 LINE",
"676.333 -141.333 OFFCURVE",
"793.667 -107 OFFCURVE",
"875 -47 CURVE SMOOTH",
"956.333 13 OFFCURVE",
"1004 100 OFFCURVE",
"1004 212 CURVE SMOOTH",
"1004 317.333 OFFCURVE",
"956.5 391.167 OFFCURVE",
"886.5 446.5 CURVE SMOOTH",
"816.5 501.833 OFFCURVE",
"724.333 540.333 OFFCURVE",
"635 575 CURVE",
"692 1003 LINE",
"764 996.333 OFFCURVE",
"839.667 982.667 OFFCURVE",
"913 964 CURVE",
"913 1118 LINE",
"853 1132.667 OFFCURVE",
"780.333 1143.333 OFFCURVE",
"711 1150 CURVE",
"737 1345 LINE",
"592 1345 LINE",
"567 1155 LINE"
);
},
{
closed = 1;
nodes = (
"370.667 679.333 OFFCURVE",
"307 733 OFFCURVE",
"307 825 CURVE SMOOTH",
"307 923.667 OFFCURVE",
"380.333 990.333 OFFCURVE",
"547 1005 CURVE",
"496 630 LINE"
);
},
{
closed = 1;
nodes = (
"737.522 351.953 OFFCURVE",
"817 302.991 OFFCURVE",
"817 202 CURVE SMOOTH",
"817 87.333 OFFCURVE",
"739 19.333 OFFCURVE",
"559 6 CURVE",
"610 401 LINE"
);
}
);
width = 1126;
}
);
note = dollar;
unicode = 0024;
},
{
glyphname = percent;
lastChange = "2020-10-13 12:04:57 +0000";
layers = (
{
layerId = "6D6001D6-F15D-4D59-841D-B4ABFE65A828";
paths = (
{
closed = 1;
nodes = (
"20 -150 LINE",
"184 -150 LINE",
"1106 1263 LINE",
"940 1263 LINE"
);
},
{
closed = 1;
nodes = (
"573 1079 OFFCURVE",
"547.5 1152.667 OFFCURVE",
"501.5 1202 CURVE SMOOTH",
"455.5 1251.333 OFFCURVE",
"390.333 1277 OFFCURVE",
"309 1277 CURVE SMOOTH",
"142.857 1277 OFFCURVE",
"37 1145.759 OFFCURVE",
"37 974 CURVE SMOOTH",
"37 878 OFFCURVE",
"62.5 804.5 OFFCURVE",
"108.5 754.5 CURVE SMOOTH",
"154.5 704.5 OFFCURVE",
"219.667 679 OFFCURVE",
"301 679 CURVE SMOOTH",
"383.667 679 OFFCURVE",
"452.167 712.5 OFFCURVE",
"499.5 766.5 CURVE SMOOTH",
"546.833 820.5 OFFCURVE",
"573 896.333 OFFCURVE",
"573 983 CURVE SMOOTH"
);
},
{
closed = 1;
nodes = (
"426 883.084 OFFCURVE",
"384.298 806 OFFCURVE",
"305 806 CURVE SMOOTH",
"229 806 OFFCURVE",
"184 860.667 OFFCURVE",
"184 978 CURVE SMOOTH",
"184 1072.916 OFFCURVE",
"225.702 1150 OFFCURVE",
"305 1150 CURVE SMOOTH",
"381 1150 OFFCURVE",
"426 1095.333 OFFCURVE",
"426 978 CURVE SMOOTH"
);
},
{
closed = 1;
nodes = (
"1090 235 OFFCURVE",
"1064.5 308.5 OFFCURVE",
"1018.5 358.5 CURVE SMOOTH",
"972.5 408.5 OFFCURVE",
"906.333 434 OFFCURVE",
"825 434 CURVE SMOOTH",
"658.857 434 OFFCURVE",
"553 302.759 OFFCURVE",
"553 131 CURVE SMOOTH",
"553 35 OFFCURVE",
"578.5 -39.667 OFFCURVE",
"624.5 -89 CURVE SMOOTH",
"670.5 -138.333 OFFCURVE",
"735.667 -164 OFFCURVE",
"817 -164 CURVE SMOOTH",
"981.832 -164 OFFCURVE",
"1090 -33.142 OFFCURVE",
"1090 139 CURVE SMOOTH"
);
},
{
closed = 1;
nodes = (
"943 40.216 OFFCURVE",
"901.006 -37 OFFCURVE",
"821 -37 CURVE SMOOTH",
"745 -37 OFFCURVE",
"700 17.667 OFFCURVE",
"700 135 CURVE SMOOTH",
"700 229.916 OFFCURVE",
"741.702 307 OFFCURVE",
"821 307 CURVE SMOOTH",
"897 307 OFFCURVE",
"943 252.333 OFFCURVE",
"943 135 CURVE SMOOTH"
);
}
);
width = 1126;
}
);
note = percent;
unicode = 0025;
},
{
glyphname = ampersand;
lastChange = "2020-10-13 12:04:57 +0000";
layers = (
{
layerId = "6D6001D6-F15D-4D59-841D-B4ABFE65A828";
paths = (
{
closed = 1;
nodes = (
"850 420.667 OFFCURVE",
"836.333 325.667 OFFCURVE",
"807 247 CURVE",
"549 569 LINE",
"623.667 611.667 OFFCURVE",
"698.167 654.5 OFFCURVE",
"753.5 712.5 CURVE SMOOTH",
"808.833 770.5 OFFCURVE",
"846 844 OFFCURVE",
"846 944 CURVE SMOOTH",
"846 1022.667 OFFCURVE",
"818.667 1094.667 OFFCURVE",
"764 1148 CURVE SMOOTH",
"709.333 1201.333 OFFCURVE",
"628 1234 OFFCURVE",
"520 1234 CURVE SMOOTH",
"408 1234 OFFCURVE",
"319.833 1198.833 OFFCURVE",
"260.5 1139.5 CURVE SMOOTH",
"201.167 1080.167 OFFCURVE",
"170 997 OFFCURVE",
"170 901 CURVE SMOOTH",
"170 810.333 OFFCURVE",
"206.333 714 OFFCURVE",
"281 622 CURVE",
"303 591 LINE",
"237.667 551 OFFCURVE",
"176.333 505.5 OFFCURVE",
"131 443.5 CURVE SMOOTH",
"85.667 381.5 OFFCURVE",
"57 303.333 OFFCURVE",
"57 202 CURVE SMOOTH",
"57 94 OFFCURVE",
"93 3.167 OFFCURVE",
"161 -61.5 CURVE SMOOTH",
"229 -126.167 OFFCURVE",
"329.667 -164 OFFCURVE",
"459 -164 CURVE SMOOTH",
"595 -164 OFFCURVE",
"712.333 -121 OFFCURVE",
"807 -41 CURVE",
"895 -150 LINE",
"1126 -150 LINE",
"924 102 LINE",
"988 215.333 OFFCURVE",
"1024 357.333 OFFCURVE",
"1024 532 CURVE",
"848 532 LINE"
);
},
{
closed = 1;
nodes = (
"238 340.355 OFFCURVE",
"300.453 416.395 OFFCURVE",
"393 479 CURVE",
"711 81 LINE",
"645.667 17 OFFCURVE",
"569.667 -15 OFFCURVE",
"483 -15 CURVE SMOOTH",
"333.13 -15 OFFCURVE",
"238 78.238 OFFCURVE",
"238 223 CURVE SMOOTH"
);
},
{
closed = 1;
nodes = (
"670 806.02 OFFCURVE",
"574.87 742.555 OFFCURVE",
"461 679 CURVE",
"434 714 LINE SMOOTH",
"375.333 788.667 OFFCURVE",
"350 845 OFFCURVE",
"350 917 CURVE SMOOTH",
"350 1015.072 OFFCURVE",
"409.805 1087 OFFCURVE",
"514 1087 CURVE SMOOTH",
"610 1087 OFFCURVE",
"670 1027 OFFCURVE",
"670 927 CURVE SMOOTH"
);
}
);
width = 1126;
}
);
note = ampersand;
unicode = 0026;
},
{
glyphname = quotesingle;
lastChange = "2020-10-13 12:04:57 +0000";
layers = (
{
layerId = "6D6001D6-F15D-4D59-841D-B4ABFE65A828";
paths = (
{
closed = 1;
nodes = (
"477 794 LINE",
"649 794 LINE",
"678 1263 LINE",
"449 1263 LINE"
);
}
);
width = 1126;
}
);
note = quotesingle;
unicode = 0027;
},
{
glyphname = parenleft;
lastChange = "2020-10-13 12:04:57 +0000";
layers = (
{
layerId = "6D6001D6-F15D-4D59-841D-B4ABFE65A828";
paths = (
{
closed = 1;
nodes = (
"817.301 1288.374 OFFCURVE",
"772.335 1259.581 OFFCURVE",
"701.5 1193.5 CURVE SMOOTH",
"602.167 1100.833 OFFCURVE",
"499 966.667 OFFCURVE",
"427 816 CURVE SMOOTH",
"355 665.333 OFFCURVE",
"332 532.333 OFFCURVE",
"332 403 CURVE SMOOTH",
"332 338.333 OFFCURVE",
"338.333 274.667 OFFCURVE",
"351 212 CURVE SMOOTH",
"380.333 66.667 OFFCURVE",
"456.667 -90.5 OFFCURVE",
"554 -220.5 CURVE SMOOTH",
"602.667 -285.5 OFFCURVE",
"651.833 -341.167 OFFCURVE",
"701.5 -387.5 CURVE SMOOTH",
"751.167 -433.833 OFFCURVE",
"783.667 -457 OFFCURVE",
"799 -457 CURVE SMOOTH",
"814.333 -457 OFFCURVE",
"823.667 -448 OFFCURVE",
"827 -430 CURVE SMOOTH",
"832.587 -399.269 OFFCURVE",
"788.524 -350.953 OFFCURVE",
"736 -289.5 CURVE SMOOTH",
"669.333 -211.5 OFFCURVE",
"573.333 -81 OFFCURVE",
"520 111 CURVE SMOOTH",
"468 291 OFFCURVE",
"465.333 492 OFFCURVE",
"520 696 CURVE SMOOTH",
"573.333 888 OFFCURVE",
"669.333 1018.667 OFFCURVE",
"736 1096 CURVE SMOOTH",
"788.627 1157.047 OFFCURVE",
"832.606 1205.166 OFFCURVE",
"827 1236 CURVE SMOOTH"
);
}
);
width = 1126;
}
);
note = parenleft;
unicode = 0028;
},
{
glyphname = parenright;
lastChange = "2020-10-13 12:04:57 +0000";
layers = (
{
layerId = "6D6001D6-F15D-4D59-841D-B4ABFE65A828";
paths = (
{
closed = 1;
nodes = (
"291.707 -482.417 OFFCURVE",
"336.506 -453.707 OFFCURVE",
"407 -387.5 CURVE SMOOTH",
"505.667 -294.833 OFFCURVE",
"610 -160.667 OFFCURVE",
"682 -10 CURVE SMOOTH",
"754 140.667 OFFCURVE",
"777 273.667 OFFCURVE",
"777 403 CURVE SMOOTH",
"777 467.667 OFFCURVE",
"770.667 531.333 OFFCURVE",
"758 594 CURVE SMOOTH",
"728.667 739.333 OFFCURVE",
"652.5 896.5 OFFCURVE",
"554.5 1026.5 CURVE SMOOTH",
"505.5 1091.5 OFFCURVE",
"456.333 1147.167 OFFCURVE",
"407 1193.5 CURVE SMOOTH",
"357.667 1239.833 OFFCURVE",
"325.333 1263 OFFCURVE",
"310 1263 CURVE SMOOTH",
"294.667 1263 OFFCURVE",
"285.333 1254 OFFCURVE",
"282 1236 CURVE SMOOTH",
"276.394 1205.166 OFFCURVE",
"320.373 1157.047 OFFCURVE",
"373 1096 CURVE SMOOTH",
"439.667 1018.667 OFFCURVE",
"535.667 888 OFFCURVE",
"589 696 CURVE SMOOTH",
"639.667 514.667 OFFCURVE",
"643.667 315 OFFCURVE",
"589 111 CURVE SMOOTH",
"535.667 -81 OFFCURVE",
"439.667 -211.5 OFFCURVE",
"373 -289.5 CURVE SMOOTH",
"320.476 -350.953 OFFCURVE",
"276.413 -399.269 OFFCURVE",
"282 -430 CURVE SMOOTH"
);
}
);
width = 1126;
}
);
note = parenright;
unicode = 0029;
},
{
glyphname = asterisk;
lastChange = "2020-10-13 12:04:57 +0000";
layers = (
{
layerId = "6D6001D6-F15D-4D59-841D-B4ABFE65A828";
paths = (
{
closed = 1;
nodes = (
"963 989 LINE",
"893 1112 LINE",
"610 921 LINE",
"635 1263 LINE",
"492 1263 LINE",
"516 921 LINE",
"233 1110 LINE",
"164 993 LINE",
"471 839 LINE",
"164 688 LINE",
"227 571 LINE",
"514 757 LINE",
"492 415 LINE",
"635 415 LINE",
"612 757 LINE",
"893 571 LINE",
"961 690 LINE",
"655 837 LINE"
);
}
);
width = 1126;
}
);
note = asterisk;
unicode = 002A;
},
{
glyphname = plus;
lastChange = "2020-10-13 12:04:57 +0000";
layers = (
{
layerId = "6D6001D6-F15D-4D59-841D-B4ABFE65A828";
paths = (
{
closed = 1;
nodes = (
"649 471 LINE",
"649 876 LINE",
"477 876 LINE",
"477 471 LINE",
"84 471 LINE",
"84 319 LINE",
"477 319 LINE",
"477 -89 LINE",
"649 -89 LINE",
"649 319 LINE",
"1042 319 LINE",
"1042 471 LINE"
);
}
);
width = 1126;
}
);
note = plus;
unicode = 002B;
},
{
glyphname = comma;
lastChange = "2020-10-13 12:04:57 +0000";
layers = (
{
layerId = "6D6001D6-F15D-4D59-841D-B4ABFE65A828";
paths = (
{
closed = 1;
nodes = (
"398 -492 OFFCURVE",
"518.833 -441.667 OFFCURVE",
"599.5 -363 CURVE SMOOTH",
"680.167 -284.333 OFFCURVE",
"721 -178.667 OFFCURVE",
"721 -68 CURVE SMOOTH",
"721 81.555 OFFCURVE",
"648.062 172 OFFCURVE",
"543 172 CURVE SMOOTH",
"456.821 172 OFFCURVE",
"408 108.136 OFFCURVE",
"408 43 CURVE SMOOTH",
"408 -66.496 OFFCURVE",
"502 -75.394 OFFCURVE",
"502 -187 CURVE SMOOTH",
"502 -297.393 OFFCURVE",
"371.069 -360.218 OFFCURVE",
"238 -355 CURVE",
"238 -492 LINE"
);
}
);
width = 1126;
}
);
note = comma;
unicode = 002C;
},
{
glyphname = hyphen;
lastChange = "2020-10-13 12:04:57 +0000";
layers = (
{
layerId = "6D6001D6-F15D-4D59-841D-B4ABFE65A828";
paths = (
{
closed = 1;
nodes = (
"264 477 LINE",
"264 313 LINE",
"862 313 LINE",
"862 477 LINE"
);
}
);
width = 1126;
}
);
note = hyphen;
unicode = "002D,00AD";
},
{
glyphname = period;
lastChange = "2020-10-13 12:04:57 +0000";
layers = (
{
layerId = "6D6001D6-F15D-4D59-841D-B4ABFE65A828";
paths = (
{
closed = 1;
nodes = (
"463.104 165 OFFCURVE",
"389 90.06 OFFCURVE",
"389 -3 CURVE SMOOTH",
"389 -93.63 OFFCURVE",
"463.36 -168 OFFCURVE",
"555 -168 CURVE SMOOTH",
"646.237 -168 OFFCURVE",
"721 -93.877 OFFCURVE",
"721 -3 CURVE SMOOTH",
"721 90.324 OFFCURVE",
"646.492 165 OFFCURVE",
"555 165 CURVE SMOOTH"
);
}
);
width = 1126;
}
);
note = period;
unicode = 002E;
},
{
glyphname = slash;
lastChange = "2020-10-13 12:04:57 +0000";
layers = (
{
layerId = "6D6001D6-F15D-4D59-841D-B4ABFE65A828";
paths = (
{
closed = 1;
nodes = (
"115 -365 LINE",
"281 -365 LINE",
"967 1263 LINE",
"801 1263 LINE"
);
}
);
width = 1126;
}
);
note = slash;
unicode = 002F;
},
{
glyphname = zero;
lastChange = "2020-10-13 12:04:57 +0000";
layers = (
{
layerId = "6D6001D6-F15D-4D59-841D-B4ABFE65A828";
paths = (
{
closed = 1;
nodes = (
"1038 735 OFFCURVE",
"992.333 903.5 OFFCURVE",
"911 1013.5 CURVE SMOOTH",
"829.667 1123.5 OFFCURVE",
"713 1175 OFFCURVE",
"573 1175 CURVE SMOOTH",
"411.667 1175 OFFCURVE",
"290.167 1106.5 OFFCURVE",
"209.5 988.5 CURVE SMOOTH",
"128.833 870.5 OFFCURVE",
"88 703 OFFCURVE",
"88 503 CURVE SMOOTH",
"88 271 OFFCURVE",
"133.667 102.333 OFFCURVE",
"215 -7 CURVE SMOOTH",
"296.333 -116.333 OFFCURVE",
"413 -168 OFFCURVE",
"553 -168 CURVE SMOOTH",
"714.333 -168 OFFCURVE",
"835.667 -100.5 OFFCURVE",
"917 17.5 CURVE SMOOTH",
"998.333 135.5 OFFCURVE",
"1038 303 OFFCURVE",
"1038 503 CURVE SMOOTH"
);
},
{
closed = 1;
nodes = (
"862 327.667 OFFCURVE",
"833 198.667 OFFCURVE",
"781 112 CURVE SMOOTH",
"729 25.333 OFFCURVE",
"653.667 -19 OFFCURVE",
"563 -19 CURVE SMOOTH",
"449.667 -19 OFFCURVE",
"374.5 46.5 OFFCURVE",
"328.5 144.5 CURVE SMOOTH",
"282.5 242.5 OFFCURVE",
"264 374.333 OFFCURVE",
"264 509 CURVE SMOOTH",
"264 678.333 OFFCURVE",
"293 807.333 OFFCURVE",
"345 894 CURVE SMOOTH",
"397 980.667 OFFCURVE",
"472.333 1026 OFFCURVE",
"563 1026 CURVE SMOOTH",
"676.333 1026 OFFCURVE",
"751.333 960.667 OFFCURVE",
"798 862 CURVE SMOOTH",
"844.667 763.333 OFFCURVE",
"862 630.333 OFFCURVE",
"862 497 CURVE SMOOTH"
);
}
);
width = 1126;
}
);
note = zero;
unicode = 0030;
},
{
glyphname = one;
lastChange = "2020-10-13 12:04:57 +0000";
layers = (
{
layerId = "6D6001D6-F15D-4D59-841D-B4ABFE65A828";
paths = (
{
closed = 1;
nodes = (
"705 12 LINE",
"705 1163 LINE",
"551 1163 LINE",
"135 944 LINE",
"199 796 LINE",
"512 966 LINE",
"512 12 LINE",
"176 12 LINE",
"176 -150 LINE",
"997 -150 LINE",
"997 12 LINE"
);
}
);
width = 1126;
}
);
note = one;
unicode = 0031;
},
{
glyphname = two;
lastChange = "2020-10-13 12:04:57 +0000";
layers = (
{
layerId = "6D6001D6-F15D-4D59-841D-B4ABFE65A828";
paths = (
{
closed = 1;
nodes = (
"373 16 LINE",
"610 247 LINE SMOOTH",
"722 355 OFFCURVE",
"803.5 442.833 OFFCURVE",
"857.5 527.5 CURVE SMOOTH",
"911.5 612.167 OFFCURVE",
"938 694 OFFCURVE",
"938 794 CURVE SMOOTH",
"938 912.667 OFFCURVE",
"898.333 1008.667 OFFCURVE",
"829 1074 CURVE SMOOTH",
"759.667 1139.333 OFFCURVE",
"663 1175 OFFCURVE",
"547 1175 CURVE SMOOTH",
"376.333 1175 OFFCURVE",
"250.667 1107 OFFCURVE",
"152 1003 CURVE",
"248 888 LINE",
"324 966.667 OFFCURVE",
"413.333 1021 OFFCURVE",
"524 1021 CURVE SMOOTH",
"677.179 1021 OFFCURVE",
"750 919.256 OFFCURVE",
"750 782 CURVE SMOOTH",
"750 714 OFFCURVE",
"739.667 659.5 OFFCURVE",
"701 593.5 CURVE SMOOTH",
"662.333 527.5 OFFCURVE",
"595.667 451.333 OFFCURVE",
"485 342 CURVE SMOOTH",
"147 6 LINE",
"147 -150 LINE",
"1008 -150 LINE",
"1008 16 LINE"
);
}
);
width = 1126;
}
);
note = two;
unicode = 0032;
},
{
glyphname = three;
lastChange = "2020-10-13 12:04:57 +0000";
layers = (
{
layerId = "6D6001D6-F15D-4D59-841D-B4ABFE65A828";
paths = (
{
closed = 1;
nodes = (
"983 405.645 OFFCURVE",
"847.102 519.709 OFFCURVE",
"705 542 CURVE",
"838.333 602 OFFCURVE",
"920 701.667 OFFCURVE",
"920 851 CURVE SMOOTH",
"920 951 OFFCURVE",
"883.667 1032 OFFCURVE",
"813 1088 CURVE SMOOTH",
"742.333 1144 OFFCURVE",
"636.667 1175 OFFCURVE",
"498 1175 CURVE SMOOTH",
"410.237 1175 OFFCURVE",
"285.749 1154.617 OFFCURVE",
"199 1124 CURVE",
"199 972 LINE",
"305.667 1006.667 OFFCURVE",
"397 1024 OFFCURVE",
"485 1024 CURVE SMOOTH",
"650.333 1024 OFFCURVE",
"737 963 OFFCURVE",
"737 823 CURVE SMOOTH",
"737 677.735 OFFCURVE",
"631.949 595 OFFCURVE",
"475 595 CURVE SMOOTH",
"324 595 LINE",
"324 452 LINE",
"473 452 LINE SMOOTH",
"569 452 OFFCURVE",
"651.5 434 OFFCURVE",
"709.5 398 CURVE SMOOTH",
"767.5 362 OFFCURVE",
"801 309 OFFCURVE",
"801 237 CURVE SMOOTH",
"801 158.333 OFFCURVE",
"775.667 95 OFFCURVE",
"717 51 CURVE SMOOTH",
"658.333 7 OFFCURVE",
"566.667 -17 OFFCURVE",
"436 -17 CURVE SMOOTH",
"340 -17 OFFCURVE",
"246.667 -8.667 OFFCURVE",
"164 6 CURVE",
"164 -150 LINE",
"236 -160.667 OFFCURVE",
"316 -168 OFFCURVE",
"420 -168 CURVE SMOOTH",
"608 -168 OFFCURVE",
"749.667 -121.833 OFFCURVE",
"843 -46.5 CURVE SMOOTH",
"936.333 28.833 OFFCURVE",
"983 132.333 OFFCURVE",
"983 247 CURVE SMOOTH"
);
}
);
width = 1126;
}
);
note = three;
unicode = 0033;
},
{
glyphname = four;
lastChange = "2020-10-13 12:04:57 +0000";
layers = (
{
layerId = "6D6001D6-F15D-4D59-841D-B4ABFE65A828";
paths = (
{
closed = 1;
nodes = (
"850 292 LINE",
"850 1157 LINE",
"600 1157 LINE",
"43 292 LINE",
"43 139 LINE",
"672 139 LINE",
"672 -150 LINE",
"850 -150 LINE",
"850 139 LINE",
"1073 139 LINE",
"1073 292 LINE"
);
},
{
closed = 1;
nodes = (
"217 292 LINE",
"672 989 LINE",
"672 292 LINE"
);
}
);
width = 1126;
}
);
note = four;
unicode = 0034;
},
{
glyphname = five;
lastChange = "2020-10-13 12:04:57 +0000";
layers = (
{
layerId = "6D6001D6-F15D-4D59-841D-B4ABFE65A828";
paths = (
{
closed = 1;
nodes = (
"975 412 OFFCURVE",
"913.167 504.833 OFFCURVE",
"820.5 561.5 CURVE SMOOTH",
"727.833 618.167 OFFCURVE",
"604.333 638 OFFCURVE",
"479 638 CURVE SMOOTH",
"365 638 LINE",
"365 1005 LINE",
"905 1005 LINE",
"905 1157 LINE",
"201 1157 LINE",
"201 489 LINE",
"449 489 LINE SMOOTH",
"667.667 489 OFFCURVE",
"788 418.667 OFFCURVE",
"788 256 CURVE SMOOTH",
"788 172 OFFCURVE",
"755 103.833 OFFCURVE",
"695 56.5 CURVE SMOOTH",
"635 9.167 OFFCURVE",
"548.667 -17 OFFCURVE",
"442 -17 CURVE SMOOTH",
"347.333 -17 OFFCURVE",
"250 -9.333 OFFCURVE",
"178 8 CURVE",
"178 -150 LINE",
"234.574 -159.052 OFFCURVE",
"364.033 -168 OFFCURVE",
"428 -168 CURVE SMOOTH",
"582.667 -168 OFFCURVE",
"719.5 -123.167 OFFCURVE",
"817.5 -46.5 CURVE SMOOTH",
"915.5 30.167 OFFCURVE",
"975 138.667 OFFCURVE",
"975 268 CURVE SMOOTH"
);
}
);
width = 1126;
}
);
note = five;
unicode = 0035;
},
{
glyphname = six;
lastChange = "2020-10-13 12:04:57 +0000";
layers = (
{
layerId = "6D6001D6-F15D-4D59-841D-B4ABFE65A828";
paths = (
{
closed = 1;
nodes = (
"1024 378.667 OFFCURVE",
"990.5 476.833 OFFCURVE",
"924.5 545.5 CURVE SMOOTH",
"858.5 614.167 OFFCURVE",
"759 655 OFFCURVE",
"627 655 CURVE SMOOTH",
"499 655 OFFCURVE",
"387 622.333 OFFCURVE",
"303 573 CURVE",
"307 614 LINE SMOOTH",
"317.667 732.667 OFFCURVE",
"357.667 830 OFFCURVE",
"435 898 CURVE SMOOTH",
"512.333 966 OFFCURVE",
"626 1005 OFFCURVE",
"782 1005 CURVE SMOOTH",
"922 1005 LINE",
"922 1157 LINE",
"793 1157 LINE SMOOTH",
"615.667 1157 OFFCURVE",
"482.833 1118.5 OFFCURVE",
"383.5 1052.5 CURVE SMOOTH",
"333.833 1019.5 OFFCURVE",
"292.333 980 OFFCURVE",
"259 934 CURVE SMOOTH",
"192.333 842 OFFCURVE",
"153.333 730.333 OFFCURVE",
"136 605 CURVE SMOOTH",
"127.333 542.333 OFFCURVE",
"123 477.667 OFFCURVE",
"123 411 CURVE SMOOTH",
"123 212.333 OFFCURVE",
"162.333 67.833 OFFCURVE",
"237 -27.5 CURVE SMOOTH",
"311.667 -122.833 OFFCURVE",
"423 -168 OFFCURVE",
"567 -168 CURVE SMOOTH",
"704.333 -168 OFFCURVE",
"819 -120.5 OFFCURVE",
"899 -42.5 CURVE SMOOTH",
"979 35.5 OFFCURVE",
"1024 144 OFFCURVE",
"1024 264 CURVE SMOOTH"
);
},
{
closed = 1;
nodes = (
"842 81.533 OFFCURVE",
"736.718 -25 OFFCURVE",
"582 -25 CURVE SMOOTH",
"491.333 -25 OFFCURVE",
"421.833 1.667 OFFCURVE",
"374.5 71 CURVE SMOOTH",
"327.167 140.333 OFFCURVE",
"303 253 OFFCURVE",
"303 425 CURVE",
"378.613 473.608 OFFCURVE",
"492.335 514 OFFCURVE",
"590 514 CURVE SMOOTH",
"763.02 514 OFFCURVE",
"842 415.715 OFFCURVE",
"842 253 CURVE SMOOTH"
);
}
);
width = 1126;
}
);
note = six;
unicode = 0036;
},
{
glyphname = seven;
lastChange = "2020-10-13 12:04:57 +0000";
layers = (
{
layerId = "6D6001D6-F15D-4D59-841D-B4ABFE65A828";
paths = (
{
closed = 1;
nodes = (
"117 1157 LINE",
"117 995 LINE",
"823 995 LINE",
"254 -150 LINE",
"453 -150 LINE",
"1001 995 LINE",
"1001 1157 LINE"
);
}
);
width = 1126;
}
);
note = seven;
unicode = 0037;
},
{
glyphname = eight;
lastChange = "2020-10-13 12:04:57 +0000";
layers = (
{
layerId = "6D6001D6-F15D-4D59-841D-B4ABFE65A828";
paths = (
{
closed = 1;
nodes = (
"1008 350.046 OFFCURVE",
"892.893 455.054 OFFCURVE",
"735 534 CURVE",
"891 614 OFFCURVE",
"979 716 OFFCURVE",
"979 868 CURVE SMOOTH",
"979 961.333 OFFCURVE",
"944.333 1038.667 OFFCURVE",
"875 1092 CURVE SMOOTH",
"805.667 1145.333 OFFCURVE",
"703.667 1175 OFFCURVE",
"569 1175 CURVE SMOOTH",
"426.333 1175 OFFCURVE",
"321.5 1135.333 OFFCURVE",
"251.5 1074 CURVE SMOOTH",
"181.5 1012.667 OFFCURVE",
"147 931 OFFCURVE",
"147 847 CURVE SMOOTH",
"147 709.667 OFFCURVE",
"222.333 606.667 OFFCURVE",
"393 520 CURVE",
"206.333 425.333 OFFCURVE",
"119 315 OFFCURVE",
"119 155 CURVE SMOOTH",
"119 60.333 OFFCURVE",
"156.667 -19.667 OFFCURVE",
"230 -77 CURVE SMOOTH",
"303.333 -134.333 OFFCURVE",
"412.333 -168 OFFCURVE",
"555 -168 CURVE SMOOTH",
"684.333 -168 OFFCURVE",
"797.667 -136.667 OFFCURVE",
"879 -78 CURVE SMOOTH",
"960.333 -19.333 OFFCURVE",
"1008 67.333 OFFCURVE",
"1008 178 CURVE SMOOTH"
);
},
{
closed = 1;
nodes = (
"801 752.667 OFFCURVE",
"728.667 680.667 OFFCURVE",
"578 610 CURVE",
"491.333 648.667 OFFCURVE",
"429.5 685.333 OFFCURVE",
"387.5 724 CURVE SMOOTH",
"345.5 762.667 OFFCURVE",
"326 806 OFFCURVE",
"326 858 CURVE SMOOTH",
"326 972.667 OFFCURVE",
"413.667 1030 OFFCURVE",
"563 1030 CURVE SMOOTH",
"713.667 1030 OFFCURVE",
"801 972.667 OFFCURVE",
"801 854 CURVE SMOOTH"
);
},
{
closed = 1;
nodes = (
"819 37.301 OFFCURVE",
"704.07 -19 OFFCURVE",
"563 -19 CURVE SMOOTH",
"421.283 -19 OFFCURVE",
"307 43.845 OFFCURVE",
"307 167 CURVE SMOOTH",
"307 220.333 OFFCURVE",
"321.5 267.833 OFFCURVE",
"359.5 312.5 CURVE SMOOTH",
"397.5 357.167 OFFCURVE",
"458.333 400 OFFCURVE",
"549 444 CURVE",
"655.667 396 OFFCURVE",
"722.667 351.333 OFFCURVE",
"764 306 CURVE SMOOTH",
"805.333 260.667 OFFCURVE",
"819 214.333 OFFCURVE",
"819 165 CURVE SMOOTH"
);
}
);
width = 1126;
}
);
note = eight;
unicode = 0038;
},
{
glyphname = nine;
lastChange = "2020-10-13 12:04:57 +0000";
layers = (
{
layerId = "6D6001D6-F15D-4D59-841D-B4ABFE65A828";
paths = (
{
closed = 1;
nodes = (
"1001 794.333 OFFCURVE",
"953 944.167 OFFCURVE",
"873 1039.5 CURVE SMOOTH",
"793 1134.833 OFFCURVE",
"680.333 1175 OFFCURVE",
"551 1175 CURVE SMOOTH",
"417.667 1175 OFFCURVE",
"304.833 1126.5 OFFCURVE",
"225.5 1048.5 CURVE SMOOTH",
"146.167 970.5 OFFCURVE",
"100 862.333 OFFCURVE",
"100 741 CURVE SMOOTH",
"100 629 OFFCURVE",
"133.5 531.333 OFFCURVE",
"199.5 462 CURVE SMOOTH",
"265.5 392.667 OFFCURVE",
"366 352 OFFCURVE",
"498 352 CURVE SMOOTH",
"626 352 OFFCURVE",
"737 384.667 OFFCURVE",
"821 434 CURVE",
"817 393 LINE SMOOTH",
"806.333 269 OFFCURVE",
"763.833 171.833 OFFCURVE",
"680.5 104.5 CURVE SMOOTH",
"597.167 37.167 OFFCURVE",
"473 2 OFFCURVE",
"301 2 CURVE SMOOTH",
"180 2 LINE",
"180 -150 LINE",
"289 -150 LINE SMOOTH",
"521 -150 OFFCURVE",
"699 -95.5 OFFCURVE",
"819 22.5 CURVE SMOOTH",
"939 140.5 OFFCURVE",
"1001 322.333 OFFCURVE",
"1001 577 CURVE SMOOTH"
);
},
{
closed = 1;
nodes = (
"629.667 1032 OFFCURVE",
"699 1005.5 OFFCURVE",
"747 935.5 CURVE SMOOTH",
"795 865.5 OFFCURVE",
"821 753 OFFCURVE",
"821 581 CURVE",
"748.319 532.546 OFFCURVE",
"631.287 493 OFFCURVE",
"535 493 CURVE SMOOTH",
"361.817 493 OFFCURVE",
"283 587.583 OFFCURVE",
"283 753 CURVE SMOOTH",
"283 925.586 OFFCURVE",
"389.814 1032 OFFCURVE",
"543 1032 CURVE SMOOTH"
);
}
);
width = 1126;
}
);
note = nine;
unicode = 0039;
},
{
glyphname = colon;
lastChange = "2020-10-13 12:04:57 +0000";
layers = (
{
layerId = "6D6001D6-F15D-4D59-841D-B4ABFE65A828";
paths = (
{
closed = 1;
nodes = (
"478.834 872 OFFCURVE",
"410 800.445 OFFCURVE",
"410 718 CURVE SMOOTH",
"410 634.022 OFFCURVE",
"479.022 565 OFFCURVE",
"563 565 CURVE SMOOTH",
"645.445 565 OFFCURVE",
"717 633.834 OFFCURVE",
"717 718 CURVE SMOOTH",
"717 800.624 OFFCURVE",
"645.624 872 OFFCURVE",
"563 872 CURVE SMOOTH"
);
},
{
closed = 1;
nodes = (
"478.834 139 OFFCURVE",
"410 67.445 OFFCURVE",
"410 -15 CURVE SMOOTH",
"410 -98.978 OFFCURVE",
"479.022 -168 OFFCURVE",
"563 -168 CURVE SMOOTH",
"645.445 -168 OFFCURVE",
"717 -99.166 OFFCURVE",
"717 -15 CURVE SMOOTH",
"717 67.624 OFFCURVE",
"645.624 139 OFFCURVE",
"563 139 CURVE SMOOTH"
);
}
);
width = 1126;
}
);
note = colon;
},
{
glyphname = semicolon;
lastChange = "2020-10-13 12:04:57 +0000";
layers = (
{
layerId = "6D6001D6-F15D-4D59-841D-B4ABFE65A828";
paths = (
{
closed = 1;
nodes = (
"410 -492 OFFCURVE",
"530.833 -441.667 OFFCURVE",
"611.5 -363 CURVE SMOOTH",
"692.167 -284.333 OFFCURVE",
"733 -178.667 OFFCURVE",
"733 -68 CURVE SMOOTH",
"733 81.555 OFFCURVE",
"660.062 172 OFFCURVE",
"555 172 CURVE SMOOTH",
"468.821 172 OFFCURVE",
"420 108.136 OFFCURVE",
"420 43 CURVE SMOOTH",
"420 -66.496 OFFCURVE",
"514 -75.394 OFFCURVE",
"514 -187 CURVE SMOOTH",
"514 -297.393 OFFCURVE",
"383.069 -360.218 OFFCURVE",
"250 -355 CURVE",
"250 -492 LINE"
);
},
{
closed = 1;
nodes = (
"478.834 872 OFFCURVE",
"410 800.445 OFFCURVE",
"410 718 CURVE SMOOTH",
"410 634.022 OFFCURVE",
"479.022 565 OFFCURVE",
"563 565 CURVE SMOOTH",
"645.445 565 OFFCURVE",
"717 633.834 OFFCURVE",
"717 718 CURVE SMOOTH",
"717 800.624 OFFCURVE",
"645.624 872 OFFCURVE",
"563 872 CURVE SMOOTH"
);
}
);
width = 1126;
}
);
note = semicolon;
unicode = 003B;
},
{
glyphname = less;
lastChange = "2020-10-13 12:04:57 +0000";
layers = (
{
layerId = "6D6001D6-F15D-4D59-841D-B4ABFE65A828";
paths = (
{
closed = 1;
nodes = (
"288 395 LINE",
"647 -52 LINE",
"781 46 LINE",
"488 395 LINE",
"781 744 LINE",
"647 841 LINE"
);
}
);
width = 1126;
}
);
note = less;
unicode = 003C;
},
{
glyphname = equal;
lastChange = "2020-10-13 12:04:57 +0000";
layers = (
{
layerId = "6D6001D6-F15D-4D59-841D-B4ABFE65A828";
paths = (
{
closed = 1;
nodes = (
"166 1112 LINE",
"166 965 LINE",
"961 965 LINE",
"961 1112 LINE"
);
},
{
closed = 1;
nodes = (
"166 765 LINE",
"166 618 LINE",
"961 618 LINE",
"961 765 LINE"
);
}
);
width = 1126;
}
);
note = equal;
unicode = 003D;
},
{
glyphname = greater;
lastChange = "2020-10-13 12:04:57 +0000";
layers = (
{
layerId = "6D6001D6-F15D-4D59-841D-B4ABFE65A828";
paths = (
{
closed = 1;
nodes = (
"838 394 LINE",
"479 841 LINE",
"345 743 LINE",
"638 394 LINE",
"345 45 LINE",
"479 -52 LINE"
);
}
);
width = 1126;
}
);
note = greater;
unicode = 003E;
},
{
glyphname = question;
lastChange = "2020-10-13 12:04:57 +0000";
layers = (
{
layerId = "6D6001D6-F15D-4D59-841D-B4ABFE65A828";
paths = (
{
closed = 1;
nodes = (
"922 885.667 OFFCURVE",
"901.833 957.667 OFFCURVE",
"858.5 1023 CURVE SMOOTH",
"836.833 1055.667 OFFCURVE",
"809.833 1086.667 OFFCURVE",
"777.5 1116 CURVE SMOOTH",
"712.833 1174.667 OFFCURVE",
"625.833 1218.667 OFFCURVE",
"514.5 1244 CURVE SMOOTH",
"458.833 1256.667 OFFCURVE",
"397.333 1263 OFFCURVE",
"330 1263 CURVE SMOOTH",
"303 1263 LINE",
"303 1107 LINE",
"328 1107 LINE SMOOTH",
"445.333 1107 OFFCURVE",
"547 1080 OFFCURVE",
"619 1028 CURVE SMOOTH",
"691 976 OFFCURVE",
"733 899.333 OFFCURVE",
"733 802 CURVE SMOOTH",
"733 678.736 OFFCURVE",
"670.039 616 OFFCURVE",
"518 616 CURVE SMOOTH",
"401 616 LINE",
"414 233 LINE",
"563 233 LINE",
"571 479 LINE",
"799 493.667 OFFCURVE",
"922 603 OFFCURVE",
"922 819 CURVE SMOOTH"
);
},
{
closed = 1;
nodes = (
"413.525 96 OFFCURVE",
"356 35.679 OFFCURVE",
"356 -37 CURVE SMOOTH",
"356 -108.496 OFFCURVE",
"413.542 -168 OFFCURVE",
"487 -168 CURVE SMOOTH",
"561.332 -168 OFFCURVE",
"618 -109.169 OFFCURVE",
"618 -37 CURVE SMOOTH",
"618 36.357 OFFCURVE",
"561.35 96 OFFCURVE",
"487 96 CURVE SMOOTH"
);
}
);
width = 1126;
}
);
note = question;
unicode = 003F;
},
{
glyphname = at;
lastChange = "2020-10-13 12:04:57 +0000";
layers = (
{
layerId = "6D6001D6-F15D-4D59-841D-B4ABFE65A828";
paths = (
{
closed = 1;
nodes = (
"731 747 LINE",
"711 759 OFFCURVE",
"662.667 774 OFFCURVE",
"612 774 CURVE SMOOTH",
"526.667 774 OFFCURVE",
"460.167 734.833 OFFCURVE",
"411.5 675.5 CURVE SMOOTH",
"387.167 645.833 OFFCURVE",
"366.667 611.5 OFFCURVE",
"350 572.5 CURVE SMOOTH",
"316.667 494.5 OFFCURVE",
"296.167 408 OFFCURVE",
"287.5 324 CURVE SMOOTH",
"283.167 282 OFFCURVE",
"281 242.667 OFFCURVE",
"281 206 CURVE SMOOTH",
"281 3.333 OFFCURVE",
"343.667 -87 OFFCURVE",
"469 -87 CURVE SMOOTH",
"551.667 -87 OFFCURVE",
"606.333 -41.667 OFFCURVE",
"657 61 CURVE",
"657 -29.667 OFFCURVE",
"707 -87 OFFCURVE",
"811 -87 CURVE SMOOTH",
"901.667 -87 OFFCURVE",
"977 -40 OFFCURVE",
"1029 64 CURVE SMOOTH",
"1081 168 OFFCURVE",
"1110.667 329.667 OFFCURVE",
"1112 559 CURVE SMOOTH",
"1112 785.667 OFFCURVE",
"1076 964.5 OFFCURVE",
"1000 1086.5 CURVE SMOOTH",
"924 1208.5 OFFCURVE",
"807.667 1275 OFFCURVE",
"649 1275 CURVE SMOOTH",
"522.333 1275 OFFCURVE",
"409.833 1221.167 OFFCURVE",
"314.5 1128.5 CURVE SMOOTH",
"266.833 1082.167 OFFCURVE",
"224.167 1026.167 OFFCURVE",
"186.5 960.5 CURVE SMOOTH",
"111.167 829.167 OFFCURVE",
"58 668.167 OFFCURVE",
"30 483.5 CURVE SMOOTH",
"16 391.167 OFFCURVE",
"9.333 294.667 OFFCURVE",
"10 194 CURVE SMOOTH",
"12.667 -310 OFFCURVE",
"172 -566 OFFCURVE",
"512 -566 CURVE SMOOTH",
"632 -566 OFFCURVE",
"738.667 -540.667 OFFCURVE",
"848 -490 CURVE",
"848 -361 LINE",
"737.333 -415.667 OFFCURVE",
"640.667 -443 OFFCURVE",
"522 -443 CURVE SMOOTH",
"287.333 -443 OFFCURVE",
"152 -233.333 OFFCURVE",
"152 196 CURVE SMOOTH",
"152 372 OFFCURVE",
"176.5 536.667 OFFCURVE",
"218.5 678 CURVE SMOOTH",
"239.5 748.667 OFFCURVE",
"264.833 813.167 OFFCURVE",
"294.5 871.5 CURVE SMOOTH",
"353.833 988.167 OFFCURVE",
"426.833 1072.5 OFFCURVE",
"511.5 1118.5 CURVE SMOOTH",
"553.833 1141.5 OFFCURVE",
"597.667 1153 OFFCURVE",
"643 1153 CURVE SMOOTH",
"761.667 1153 OFFCURVE",
"844 1096.333 OFFCURVE",
"896 991 CURVE SMOOTH",
"948 885.667 OFFCURVE",
"971 734 OFFCURVE",
"971 542 CURVE SMOOTH",
"971 370 OFFCURVE",
"954.5 245.5 OFFCURVE",
"928.5 163.5 CURVE SMOOTH",
"902.5 81.5 OFFCURVE",
"868.333 43 OFFCURVE",
"831 43 CURVE SMOOTH",
"764.098 43 OFFCURVE",
"759.881 114.932 OFFCURVE",
"780 258 CURVE SMOOTH",
"860 778 LINE"
);
},
{
closed = 1;
nodes = (
"570.634 84.56 OFFCURVE",
"537.745 43 OFFCURVE",
"498 43 CURVE SMOOTH",
"475.333 43 OFFCURVE",
"460 57 OFFCURVE",
"452 85 CURVE SMOOTH",
"444 113 OFFCURVE",
"440 159 OFFCURVE",
"440 223 CURVE SMOOTH",
"440 271 OFFCURVE",
"444.167 334.333 OFFCURVE",
"455.5 397 CURVE SMOOTH",
"461.167 428.333 OFFCURVE",
"468.167 458.833 OFFCURVE",
"476.5 488.5 CURVE SMOOTH",
"493.167 547.833 OFFCURVE",
"518 596 OFFCURVE",
"550 624 CURVE SMOOTH",
"566 638 OFFCURVE",
"584 645 OFFCURVE",
"604 645 CURVE SMOOTH",
"641.333 645 OFFCURVE",
"666 630 OFFCURVE",
"678 614 CURVE",
"612 176 LINE"
);
}
);
width = 1126;
}
);
note = at;
unicode = 0040;
},
{
glyphname = A;
lastChange = "2020-10-13 12:04:57 +0000";
layers = (
{
layerId = "6D6001D6-F15D-4D59-841D-B4ABFE65A828";
paths = (
{
closed = 1;
nodes = (
"444 1157 LINE",
"10 -150 LINE",
"195 -150 LINE",
"287 135 LINE",
"831 135 LINE",
"922 -150 LINE",
"1116 -150 LINE",
"688 1157 LINE"
);
},
{
closed = 1;
nodes = (
"559 993 LINE",
"780 294 LINE",
"338 294 LINE"
);
}
);
width = 1126;
}
);
note = A;
unicode = 0041;
},
{
glyphname = B;
lastChange = "2020-10-13 12:04:57 +0000";
layers = (
{
layerId = "6D6001D6-F15D-4D59-841D-B4ABFE65A828";
paths = (
{
closed = 1;
nodes = (
"1016 409.17 OFFCURVE",
"902.317 516.016 OFFCURVE",
"754 544 CURVE",
"906 593.333 OFFCURVE",
"969 697.667 OFFCURVE",
"969 839 CURVE SMOOTH",
"969 1051 OFFCURVE",
"823.333 1157 OFFCURVE",
"532 1157 CURVE SMOOTH",
"158 1157 LINE",
"158 -150 LINE",
"500 -150 LINE SMOOTH",
"656 -150 OFFCURVE",
"785.5 -114.667 OFFCURVE",
"875.5 -48 CURVE SMOOTH",
"965.5 18.667 OFFCURVE",
"1016 115.667 OFFCURVE",
"1016 241 CURVE SMOOTH"
);
},
{
closed = 1;
nodes = (
"784 665.94 OFFCURVE",
"673.786 598 OFFCURVE",
"514 598 CURVE SMOOTH",
"336 598 LINE",
"336 1007 LINE",
"520 1007 LINE SMOOTH",
"624 1007 OFFCURVE",
"690 985.5 OFFCURVE",
"730 951.5 CURVE SMOOTH",
"770 917.5 OFFCURVE",
"784 868.333 OFFCURVE",
"784 815 CURVE SMOOTH"
);
},
{
closed = 1;
nodes = (
"827 73.667 OFFCURVE",
"728 0 OFFCURVE",
"524 0 CURVE SMOOTH",
"336 0 LINE",
"336 450 LINE",
"518 450 LINE SMOOTH",
"614 450 OFFCURVE",
"691.667 429.167 OFFCURVE",
"745 392.5 CURVE SMOOTH",
"798.333 355.833 OFFCURVE",
"827 301.667 OFFCURVE",
"827 235 CURVE SMOOTH"
);
}
);
width = 1126;
}
);
note = B;
unicode = 0042;
},
{
glyphname = C;
lastChange = "2020-10-13 12:04:57 +0000";
layers = (
{
layerId = "6D6001D6-F15D-4D59-841D-B4ABFE65A828";
paths = (
{
closed = 1;
nodes = (
"900.333 20.333 OFFCURVE",
"798 -7 OFFCURVE",
"686 -7 CURVE SMOOTH",
"420.667 -7 OFFCURVE",
"281 166.333 OFFCURVE",
"281 505 CURVE SMOOTH",
"281 666.333 OFFCURVE",
"319.667 793.167 OFFCURVE",
"389 880.5 CURVE SMOOTH",
"458.333 967.833 OFFCURVE",
"559.333 1015 OFFCURVE",
"682 1015 CURVE SMOOTH",
"802 1015 OFFCURVE",
"900.333 987 OFFCURVE",
"995 935 CURVE",
"995 1110 LINE",
"899 1152.667 OFFCURVE",
"797.333 1173 OFFCURVE",
"676 1173 CURVE SMOOTH",
"497.333 1173 OFFCURVE",
"351.333 1106.5 OFFCURVE",
"250 988.5 CURVE SMOOTH",
"148.667 870.5 OFFCURVE",
"92 698.333 OFFCURVE",
"92 489 CURVE SMOOTH",
"92 57 OFFCURVE",
"296.667 -166 OFFCURVE",
"666 -166 CURVE SMOOTH",
"780.667 -166 OFFCURVE",
"890.333 -144.333 OFFCURVE",
"995 -101 CURVE",
"995 67 LINE"
);
}
);
width = 1126;
}
);
note = C;
unicode = 0043;
},
{
glyphname = D;
lastChange = "2020-10-13 12:04:57 +0000";
layers = (
{
layerId = "6D6001D6-F15D-4D59-841D-B4ABFE65A828";
paths = (
{
closed = 1;
nodes = (
"1053 950 OFFCURVE",
"854 1157 OFFCURVE",
"446 1157 CURVE SMOOTH",
"109 1157 LINE",
"109 -150 LINE",
"389 -150 LINE SMOOTH",
"555.667 -150 OFFCURVE",
"685.333 -117.333 OFFCURVE",
"784 -60 CURVE SMOOTH",
"833.333 -31.333 OFFCURVE",
"875 3.167 OFFCURVE",
"909 43.5 CURVE SMOOTH",
"977 124.167 OFFCURVE",
"1019.167 223.333 OFFCURVE",
"1038.5 338 CURVE SMOOTH",
"1048.167 395.333 OFFCURVE",
"1053 455.333 OFFCURVE",
"1053 518 CURVE SMOOTH"
);
},
{
closed = 1;
nodes = (
"866 171 OFFCURVE",
"717.333 4 OFFCURVE",
"420 4 CURVE SMOOTH",
"287 4 LINE",
"287 1007 LINE",
"440 1007 LINE SMOOTH",
"584 1007 OFFCURVE",
"690.333 973.667 OFFCURVE",
"761 895 CURVE SMOOTH",
"831.667 816.333 OFFCURVE",
"866 690.333 OFFCURVE",
"866 505 CURVE SMOOTH"
);
}
);
width = 1126;
}
);
note = D;
unicode = 0044;
},
{
glyphname = E;
lastChange = "2020-10-13 12:04:57 +0000";
layers = (
{
layerId = "6D6001D6-F15D-4D59-841D-B4ABFE65A828";
paths = (
{
closed = 1;
nodes = (
"379 2 LINE",
"379 452 LINE",
"922 452 LINE",
"922 602 LINE",
"379 602 LINE",
"379 1007 LINE",
"944 1007 LINE",
"944 1157 LINE",
"201 1157 LINE",
"201 -150 LINE",
"944 -150 LINE",
"944 2 LINE"
);
}
);
width = 1126;
}
);
note = E;
unicode = 0045;
},
{
glyphname = F;
lastChange = "2020-10-13 12:04:57 +0000";
layers = (
{
layerId = "6D6001D6-F15D-4D59-841D-B4ABFE65A828";
paths = (
{
closed = 1;
nodes = (
"205 1157 LINE",
"205 -150 LINE",
"387 -150 LINE",
"387 432 LINE",
"913 432 LINE",
"913 581 LINE",
"387 581 LINE",
"387 1005 LINE",
"942 1005 LINE",
"942 1157 LINE"
);
}
);
width = 1126;
}
);
note = F;
unicode = 0046;
},
{
glyphname = G;
lastChange = "2020-10-13 12:04:57 +0000";
layers = (
{
layerId = "6D6001D6-F15D-4D59-841D-B4ABFE65A828";
paths = (
{
closed = 1;
nodes = (
"908.667 1155.333 OFFCURVE",
"803.333 1175 OFFCURVE",
"686 1175 CURVE SMOOTH",
"502 1175 OFFCURVE",
"346.167 1111.5 OFFCURVE",
"237.5 993.5 CURVE SMOOTH",
"128.833 875.5 OFFCURVE",
"66 703.667 OFFCURVE",
"66 489 CURVE SMOOTH",
"66 273 OFFCURVE",
"121.833 108.5 OFFCURVE",
"222.5 -1.5 CURVE SMOOTH",
"323.167 -111.5 OFFCURVE",
"468.333 -168 OFFCURVE",
"647 -168 CURVE SMOOTH",
"765.399 -168 OFFCURVE",
"902.616 -139.69 OFFCURVE",
"1012 -89 CURVE",
"1012 579 LINE",
"569 579 LINE",
"569 432 LINE",
"836 432 LINE",
"836 16 LINE",
"795.613 0.855 OFFCURVE",
"718.625 -11 OFFCURVE",
"672 -11 CURVE SMOOTH",
"524 -11 OFFCURVE",
"419 37 OFFCURVE",
"351 125 CURVE SMOOTH",
"283 213 OFFCURVE",
"252 341 OFFCURVE",
"252 501 CURVE SMOOTH",
"252 654.333 OFFCURVE",
"292.5 783.5 OFFCURVE",
"366.5 873.5 CURVE SMOOTH",
"440.5 963.5 OFFCURVE",
"549.333 1015 OFFCURVE",
"688 1015 CURVE SMOOTH",
"809.333 1015 OFFCURVE",
"908.667 985 OFFCURVE",
"1006 933 CURVE",
"1006 1110 LINE"
);
}
);
width = 1126;
}
);
note = G;
unicode = 0047;
},
{
glyphname = H;
lastChange = "2020-10-13 12:04:57 +0000";
layers = (
{
layerId = "6D6001D6-F15D-4D59-841D-B4ABFE65A828";
paths = (
{
closed = 1;
nodes = (
"838 1157 LINE",
"838 604 LINE",
"289 604 LINE",
"289 1157 LINE",
"111 1157 LINE",
"111 -150 LINE",
"289 -150 LINE",
"289 450 LINE",
"838 450 LINE",
"838 -150 LINE",
"1016 -150 LINE",
"1016 1157 LINE"
);
}
);
width = 1126;
}
);
note = H;
unicode = 0048;
},
{
glyphname = I;
lastChange = "2020-10-13 12:04:57 +0000";
layers = (
{
layerId = "6D6001D6-F15D-4D59-841D-B4ABFE65A828";
paths = (
{
closed = 1;
nodes = (
"172 2 LINE",
"172 -150 LINE",
"954 -150 LINE",
"954 2 LINE",
"653 2 LINE",
"653 1007 LINE",
"954 1007 LINE",
"954 1157 LINE",
"172 1157 LINE",
"172 1007 LINE",
"473 1007 LINE",
"473 2 LINE"
);
}
);
width = 1126;
}
);
note = I;
unicode = 0049;
},
{
glyphname = J;
lastChange = "2020-10-13 12:04:57 +0000";
layers = (
{
layerId = "6D6001D6-F15D-4D59-841D-B4ABFE65A828";
paths = (
{
closed = 1;
nodes = (
"199 1003 LINE",
"696 1003 LINE",
"696 249 LINE SMOOTH",
"696 82.333 OFFCURVE",
"614.333 -9 OFFCURVE",
"469 -9 CURVE SMOOTH",
"370.333 -9 OFFCURVE",
"264.667 28 OFFCURVE",
"182 88 CURVE",
"182 -91 LINE",
"247.843 -134.895 OFFCURVE",
"369.646 -164 OFFCURVE",
"467 -164 CURVE SMOOTH",
"605.667 -164 OFFCURVE",
"708 -116.667 OFFCURVE",
"776 -42 CURVE SMOOTH",
"844 32.667 OFFCURVE",
"877 137 OFFCURVE",
"877 249 CURVE SMOOTH",
"877 1157 LINE",
"199 1157 LINE"
);
}
);
width = 1126;
}
);
note = J;
unicode = 004A;
},
{
glyphname = K;
lastChange = "2020-10-13 12:04:57 +0000";
layers = (
{
layerId = "6D6001D6-F15D-4D59-841D-B4ABFE65A828";
paths = (
{
closed = 1;
nodes = (
"1024 1157 LINE",
"813 1157 LINE",
"334 550 LINE",
"334 1157 LINE",
"156 1157 LINE",
"156 -150 LINE",
"334 -150 LINE",
"334 491 LINE",
"823 -150 LINE",
"1047 -150 LINE",
"508 536 LINE"
);
}
);
width = 1126;
}
);
note = K;
unicode = 004B;
},
{
glyphname = L;
lastChange = "2020-10-13 12:04:57 +0000";
layers = (
{
layerId = "6D6001D6-F15D-4D59-841D-B4ABFE65A828";
paths = (
{
closed = 1;
nodes = (
"414 2 LINE",
"414 1157 LINE",
"233 1157 LINE",
"233 -150 LINE",
"985 -150 LINE",
"985 2 LINE"
);
}
);
width = 1126;
}
);
note = L;
unicode = 004C;
},
{
glyphname = M;
lastChange = "2020-10-13 12:04:57 +0000";
layers = (
{
layerId = "6D6001D6-F15D-4D59-841D-B4ABFE65A828";
paths = (
{
closed = 1;
nodes = (
"797 1157 LINE",
"612 665 LINE",
"557 499 LINE",
"500 665 LINE",
"324 1157 LINE",
"113 1157 LINE",
"49 -150 LINE",
"217 -150 LINE",
"240 651 LINE",
"244 978 LINE",
"305 776 LINE",
"489 276 LINE",
"612 276 LINE",
"805 796 LINE",
"866 978 LINE",
"877 665 LINE",
"903 -150 LINE",
"1077 -150 LINE",
"1014 1157 LINE"
);
}
);
width = 1126;
}
);
note = M;
unicode = 004D;
},
{
glyphname = N;
lastChange = "2020-10-13 12:04:57 +0000";
layers = (
{
layerId = "6D6001D6-F15D-4D59-841D-B4ABFE65A828";
paths = (
{
closed = 1;
nodes = (
"842 1157 LINE",
"842 86 LINE",
"711 385 LINE",
"348 1157 LINE",
"119 1157 LINE",
"119 -150 LINE",
"285 -150 LINE",
"285 927 LINE",
"395 665 LINE",
"776 -150 LINE",
"1008 -150 LINE",
"1008 1157 LINE"
);
}
);
width = 1126;
}
);
note = N;
unicode = 004E;
},
{
glyphname = O;
lastChange = "2020-10-13 12:04:57 +0000";
layers = (
{
layerId = "6D6001D6-F15D-4D59-841D-B4ABFE65A828";
paths = (
{
closed = 1;
nodes = (
"1071 717.333 OFFCURVE",
"1030.667 883.5 OFFCURVE",
"948 997.5 CURVE SMOOTH",
"865.333 1111.5 OFFCURVE",
"741 1175 OFFCURVE",
"573 1175 CURVE SMOOTH",
"433 1175 OFFCURVE",
"303.5 1121.833 OFFCURVE",
"209.5 1010.5 CURVE SMOOTH",
"115.5 899.167 OFFCURVE",
"57 729 OFFCURVE",
"57 497 CURVE SMOOTH",
"57 290.333 OFFCURVE",
"96.5 123.667 OFFCURVE",
"178.5 9 CURVE SMOOTH",
"260.5 -105.667 OFFCURVE",
"385 -168 OFFCURVE",
"553 -168 CURVE SMOOTH",
"693 -168 OFFCURVE",
"823.5 -114.833 OFFCURVE",
"917.5 -3.5 CURVE SMOOTH",
"1011.5 107.833 OFFCURVE",
"1071 277.333 OFFCURVE",
"1071 512 CURVE SMOOTH"
);
},
{
closed = 1;
nodes = (
"886 357.667 OFFCURVE",
"861.167 230.167 OFFCURVE",
"808.5 137.5 CURVE SMOOTH",
"755.833 44.833 OFFCURVE",
"675 -13 OFFCURVE",
"563 -13 CURVE SMOOTH",
"448.333 -13 OFFCURVE",
"367.833 40.167 OFFCURVE",
"316.5 131.5 CURVE SMOOTH",
"265.167 222.833 OFFCURVE",
"242 352.333 OFFCURVE",
"242 507 CURVE SMOOTH",
"242 647 OFFCURVE",
"267 775.833 OFFCURVE",
"319 868.5 CURVE SMOOTH",
"371 961.167 OFFCURVE",
"451 1019 OFFCURVE",
"563 1019 CURVE SMOOTH",
"679 1019 OFFCURVE",
"760 966 OFFCURVE",
"812 874 CURVE SMOOTH",
"864 782 OFFCURVE",
"886 652.333 OFFCURVE",
"886 499 CURVE SMOOTH"
);
}
);
width = 1126;
}
);
note = O;
unicode = 004F;
},
{
glyphname = P;
lastChange = "2020-10-13 12:04:57 +0000";
layers = (
{
layerId = "6D6001D6-F15D-4D59-841D-B4ABFE65A828";
paths = (
{
closed = 1;
nodes = (
"1016 902.333 OFFCURVE",
"958.5 1002 OFFCURVE",
"868.5 1066 CURVE SMOOTH",
"778.5 1130 OFFCURVE",
"655.333 1157 OFFCURVE",
"526 1157 CURVE SMOOTH",
"158 1157 LINE",
"158 -150 LINE",
"336 -150 LINE",
"336 319 LINE",
"498 319 LINE SMOOTH",
"679.333 319 OFFCURVE",
"809 375.333 OFFCURVE",
"893 458 CURVE SMOOTH",
"977 540.667 OFFCURVE",
"1016 650.333 OFFCURVE",
"1016 757 CURVE SMOOTH"
);
},
{
closed = 1;
nodes = (
"831 562.333 OFFCURVE",
"712.667 471 OFFCURVE",
"502 471 CURVE SMOOTH",
"336 471 LINE",
"336 1009 LINE",
"518 1009 LINE SMOOTH",
"715.333 1009 OFFCURVE",
"831 917 OFFCURVE",
"831 749 CURVE SMOOTH"
);
}
);
width = 1126;
}
);
note = P;
unicode = 0050;
},
{
glyphname = Q;
lastChange = "2020-10-13 12:04:57 +0000";
layers = (
{
layerId = "6D6001D6-F15D-4D59-841D-B4ABFE65A828";
paths = (
{
closed = 1;
nodes = (
"475 -276.667 OFFCURVE",
"516.5 -364.5 OFFCURVE",
"582.5 -422.5 CURVE SMOOTH",
"648.5 -480.5 OFFCURVE",
"739.333 -510 OFFCURVE",
"846 -510 CURVE SMOOTH",
"944.667 -510 OFFCURVE",
"1038 -482 OFFCURVE",
"1126 -410 CURVE",
"1047 -287 LINE",
"983 -337.667 OFFCURVE",
"922 -357 OFFCURVE",
"858 -357 CURVE SMOOTH",
"724.667 -357 OFFCURVE",
"653 -279.333 OFFCURVE",
"633 -162 CURVE",
"755.667 -142 OFFCURVE",
"865.333 -79 OFFCURVE",
"944 33 CURVE SMOOTH",
"1022.667 145 OFFCURVE",
"1071 304.667 OFFCURVE",
"1071 518 CURVE SMOOTH",
"1071 720.667 OFFCURVE",
"1030.667 884.5 OFFCURVE",
"948 998.5 CURVE SMOOTH",
"865.333 1112.5 OFFCURVE",
"741 1175 OFFCURVE",
"573 1175 CURVE SMOOTH",
"433 1175 OFFCURVE",
"303.5 1122.167 OFFCURVE",
"209.5 1009.5 CURVE SMOOTH",
"115.5 896.833 OFFCURVE",
"57 724.333 OFFCURVE",
"57 487 CURVE SMOOTH",
"57 303 OFFCURVE",
"90 149.833 OFFCURVE",
"158 38.5 CURVE SMOOTH",
"226 -72.833 OFFCURVE",
"328.333 -142 OFFCURVE",
"467 -162 CURVE"
);
},
{
closed = 1;
nodes = (
"886 357 OFFCURVE",
"861.167 230 OFFCURVE",
"808.5 138 CURVE SMOOTH",
"755.833 46 OFFCURVE",
"675 -11 OFFCURVE",
"563 -11 CURVE SMOOTH",
"448.333 -11 OFFCURVE",
"367.833 41 OFFCURVE",
"316.5 133 CURVE SMOOTH",
"265.167 225 OFFCURVE",
"242 355.333 OFFCURVE",
"242 514 CURVE SMOOTH",
"242 651.333 OFFCURVE",
"267 777.167 OFFCURVE",
"319 868.5 CURVE SMOOTH",
"371 959.833 OFFCURVE",
"451 1017 OFFCURVE",
"563 1017 CURVE SMOOTH",
"679 1017 OFFCURVE",
"760 963.833 OFFCURVE",
"812 872.5 CURVE SMOOTH",
"864 781.167 OFFCURVE",
"886 651.667 OFFCURVE",
"886 497 CURVE SMOOTH"
);
}
);
width = 1126;
}
);
note = Q;
unicode = 0051;
},
{
glyphname = R;
lastChange = "2020-10-13 12:04:57 +0000";
layers = (
{
layerId = "6D6001D6-F15D-4D59-841D-B4ABFE65A828";
paths = (
{
closed = 1;
nodes = (
"790.667 385.333 OFFCURVE",
"745.333 447.667 OFFCURVE",
"672 473 CURVE",
"762.667 494.333 OFFCURVE",
"833.167 539.167 OFFCURVE",
"880.5 598.5 CURVE SMOOTH",
"927.833 657.833 OFFCURVE",
"952 731.667 OFFCURVE",
"952 813 CURVE SMOOTH",
"952 915.667 OFFCURVE",
"920.5 1002 OFFCURVE",
"850.5 1062 CURVE SMOOTH",
"780.5 1122 OFFCURVE",
"672 1157 OFFCURVE",
"520 1157 CURVE SMOOTH",
"170 1157 LINE",
"170 -150 LINE",
"348 -150 LINE",
"348 432 LINE",
"432 432 LINE SMOOTH",
"540.844 432 OFFCURVE",
"600.324 387.293 OFFCURVE",
"655 268 CURVE SMOOTH",
"850 -150 LINE",
"1051 -150 LINE",
"844 280 LINE SMOOTH"
);
},
{
closed = 1;
nodes = (
"766 651.079 OFFCURVE",
"654.679 575 OFFCURVE",
"492 575 CURVE SMOOTH",
"348 575 LINE",
"348 1007 LINE",
"516 1007 LINE SMOOTH",
"674.667 1007 OFFCURVE",
"766 938 OFFCURVE",
"766 798 CURVE SMOOTH"
);
}
);
width = 1126;
}
);
note = R;
unicode = 0052;
},
{
glyphname = S;
lastChange = "2020-10-13 12:04:57 +0000";
layers = (
{
layerId = "6D6001D6-F15D-4D59-841D-B4ABFE65A828";
paths = (
{
closed = 1;
nodes = (
"997 308 OFFCURVE",
"954 381.833 OFFCURVE",
"890 438.5 CURVE SMOOTH",
"826 495.167 OFFCURVE",
"740.333 534.333 OFFCURVE",
"655 569 CURVE SMOOTH",
"583.425 598.077 OFFCURVE",
"475.747 639.158 OFFCURVE",
"420 674 CURVE SMOOTH",
"356 714 OFFCURVE",
"313 762.333 OFFCURVE",
"313 833 CURVE SMOOTH",
"313 947.667 OFFCURVE",
"406 1021 OFFCURVE",
"610 1021 CURVE SMOOTH",
"706 1021 OFFCURVE",
"810.333 1005.333 OFFCURVE",
"913 976 CURVE",
"913 1136 LINE",
"830.234 1156.064 OFFCURVE",
"697.33 1175 OFFCURVE",
"614 1175 CURVE SMOOTH",
"443.333 1175 OFFCURVE",
"320.667 1129.833 OFFCURVE",
"242 1062.5 CURVE SMOOTH",
"163.333 995.167 OFFCURVE",
"127 904.333 OFFCURVE",
"127 815 CURVE SMOOTH",
"127 712.333 OFFCURVE",
"170 639.833 OFFCURVE",
"234 584.5 CURVE SMOOTH",
"298 529.167 OFFCURVE",
"383.667 490.667 OFFCURVE",
"469 456 CURVE SMOOTH",
"539.986 427.162 OFFCURVE",
"648.711 385.479 OFFCURVE",
"704 351.5 CURVE SMOOTH",
"768 312.167 OFFCURVE",
"811 264.667 OFFCURVE",
"811 194 CURVE SMOOTH",
"811 128.667 OFFCURVE",
"788.833 77.833 OFFCURVE",
"737.5 42.5 CURVE SMOOTH",
"686.167 7.167 OFFCURVE",
"606.667 -11 OFFCURVE",
"492 -11 CURVE SMOOTH",
"333.333 -11 OFFCURVE",
"211 11.667 OFFCURVE",
"111 49 CURVE",
"111 -123 LINE",
"199.433 -146.409 OFFCURVE",
"356.166 -168 OFFCURVE",
"479 -168 CURVE SMOOTH",
"632.333 -168 OFFCURVE",
"762.333 -137.5 OFFCURVE",
"853 -75.5 CURVE SMOOTH",
"943.667 -13.5 OFFCURVE",
"997 80 OFFCURVE",
"997 204 CURVE SMOOTH"
);
}
);
width = 1126;
}
);
note = S;
unicode = 0053;
},
{
glyphname = T;
lastChange = "2020-10-13 12:04:57 +0000";
layers = (
{
layerId = "6D6001D6-F15D-4D59-841D-B4ABFE65A828";
paths = (
{
closed = 1;
nodes = (
"86 1157 LINE",
"86 1005 LINE",
"473 1005 LINE",
"473 -150 LINE",
"653 -150 LINE",
"653 1005 LINE",
"1040 1005 LINE",
"1040 1157 LINE"
);
}
);
width = 1126;
}
);
note = T;
unicode = 0054;
},
{
glyphname = U;
lastChange = "2020-10-13 12:04:57 +0000";
layers = (
{
layerId = "6D6001D6-F15D-4D59-841D-B4ABFE65A828";
paths = (
{
closed = 1;
nodes = (
"840 1157 LINE",
"840 294 LINE SMOOTH",
"840 95.333 OFFCURVE",
"752.333 -19 OFFCURVE",
"563 -19 CURVE SMOOTH",
"461.667 -19 OFFCURVE",
"393 8 OFFCURVE",
"349 60 CURVE SMOOTH",
"305 112 OFFCURVE",
"287 189.333 OFFCURVE",
"287 292 CURVE SMOOTH",
"287 1157 LINE",
"109 1157 LINE",
"109 278 LINE SMOOTH",
"109 143.333 OFFCURVE",
"140.167 32.5 OFFCURVE",
"211.5 -45.5 CURVE SMOOTH",
"282.833 -123.5 OFFCURVE",
"394.333 -168 OFFCURVE",
"557 -168 CURVE SMOOTH",
"705 -168 OFFCURVE",
"819.333 -121.5 OFFCURVE",
"898 -39.5 CURVE SMOOTH",
"976.667 42.5 OFFCURVE",
"1018 161 OFFCURVE",
"1018 305 CURVE SMOOTH",
"1018 1157 LINE"
);
}
);
width = 1126;
}
);
note = U;
unicode = 0055;
},
{
glyphname = V;
lastChange = "2020-10-13 12:04:57 +0000";
layers = (
{
layerId = "6D6001D6-F15D-4D59-841D-B4ABFE65A828";
paths = (
{
closed = 1;
nodes = (
"649 276 LINE",
"567 18 LINE",
"487 276 LINE",
"205 1157 LINE",
"4 1157 LINE",
"438 -150 LINE",
"678 -150 LINE",
"1122 1157 LINE",
"932 1157 LINE"
);
}
);
width = 1126;
}
);
note = V;
unicode = 0056;
},
{
glyphname = W;
lastChange = "2020-10-13 12:04:57 +0000";
layers = (
{
layerId = "6D6001D6-F15D-4D59-841D-B4ABFE65A828";
paths = (
{
closed = 1;
nodes = (
"870 204 LINE",
"866 24 LINE",
"805 196 LINE",
"623 716 LINE",
"500 716 LINE",
"342 231 LINE",
"279 24 LINE",
"264 268 LINE",
"213 1157 LINE",
"45 1157 LINE",
"135 -150 LINE",
"358 -150 LINE",
"508 303 LINE",
"555 464 LINE",
"600 315 LINE",
"762 -150 LINE",
"993 -150 LINE",
"1081 1157 LINE",
"922 1157 LINE"
);
}
);
width = 1126;
}
);
note = W;
unicode = 0057;
},
{
glyphname = X;
lastChange = "2020-10-13 12:04:57 +0000";
layers = (
{
layerId = "6D6001D6-F15D-4D59-841D-B4ABFE65A828";
paths = (
{
closed = 1;
nodes = (
"1069 1157 LINE",
"864 1157 LINE",
"563 665 LINE",
"264 1157 LINE",
"53 1157 LINE",
"453 518 LINE",
"18 -150 LINE",
"240 -150 LINE",
"559 378 LINE",
"877 -150 LINE",
"1102 -150 LINE",
"668 526 LINE"
);
}
);
width = 1126;
}
);
note = X;
unicode = 0058;
},
{
glyphname = Y;
lastChange = "2020-10-13 12:04:57 +0000";
layers = (
{
layerId = "6D6001D6-F15D-4D59-841D-B4ABFE65A828";
paths = (
{
closed = 1;
nodes = (
"659 661 LINE",
"571 487 LINE",
"475 679 LINE",
"215 1157 LINE",
"0 1157 LINE",
"473 321 LINE",
"473 -150 LINE",
"653 -150 LINE",
"653 317 LINE",
"1126 1157 LINE",
"922 1157 LINE"
);
}
);
width = 1126;
}
);
note = Y;
unicode = 0059;
},
{
glyphname = Z;
lastChange = "2020-10-13 12:04:57 +0000";
layers = (
{
layerId = "6D6001D6-F15D-4D59-841D-B4ABFE65A828";
paths = (
{
closed = 1;
nodes = (
"129 1157 LINE",
"129 995 LINE",
"782 995 LINE",
"111 -17 LINE",
"111 -150 LINE",
"1014 -150 LINE",
"1014 16 LINE",
"334 16 LINE",
"1001 1017 LINE",
"1001 1157 LINE"
);
}
);
width = 1126;
}
);
note = Z;
unicode = 005A;
},
{
glyphname = bracketleft;
lastChange = "2020-10-13 12:04:57 +0000";
layers = (
{
layerId = "6D6001D6-F15D-4D59-841D-B4ABFE65A828";
paths = (
{
closed = 1;
nodes = (
"329 -440 OFFCURVE",
"368.667 -549.333 OFFCURVE",
"542 -556 CURVE SMOOTH",
"656 -556 OFFCURVE",
"755.667 -557 OFFCURVE",
"841 -559 CURVE",
"841 -409 LINE",
"697.764 -407.872 OFFCURVE",
"530.157 -417.685 OFFCURVE",
"522.5 -362 CURVE SMOOTH",
"518.833 -335.333 OFFCURVE",
"516.333 -314.333 OFFCURVE",
"515 -299 CURVE SMOOTH",
"511.667 -261.667 OFFCURVE",
"510 -40 OFFCURVE",
"510 366 CURVE SMOOTH",
"510 772 OFFCURVE",
"511.667 993.667 OFFCURVE",
"515 1031 CURVE SMOOTH",
"517.667 1061.667 OFFCURVE",
"497 1133 OFFCURVE",
"621 1137 CURVE SMOOTH",
"683 1139 OFFCURVE",
"756.333 1140.333 OFFCURVE",
"841 1141 CURVE",
"841 1291 LINE",
"755.667 1289 OFFCURVE",
"656 1288 OFFCURVE",
"542 1288 CURVE SMOOTH",
"368.667 1281.333 OFFCURVE",
"329 1172 OFFCURVE",
"345 1064 CURVE",
"345 -332 LINE"
);
}
);
width = 1126;
}
);
note = bracketleft;
unicode = 005B;
},
{
glyphname = backslash;
lastChange = "2020-10-13 12:04:57 +0000";
layers = (
{
layerId = "6D6001D6-F15D-4D59-841D-B4ABFE65A828";
paths = (
{
closed = 1;
nodes = (
"160 1263 LINE",
"846 -365 LINE",
"1012 -365 LINE",
"326 1263 LINE"
);
}
);
width = 1126;
}
);
note = backslash;
unicode = 005C;
},
{
glyphname = bracketright;
lastChange = "2020-10-13 12:04:57 +0000";
layers = (
{
layerId = "6D6001D6-F15D-4D59-841D-B4ABFE65A828";
paths = (
{
closed = 1;
nodes = (
"804 1172 OFFCURVE",
"764.333 1281.333 OFFCURVE",
"591 1288 CURVE SMOOTH",
"477 1288 OFFCURVE",
"377.333 1289 OFFCURVE",
"292 1291 CURVE",
"292 1141 LINE",
"435.236 1139.872 OFFCURVE",
"602.843 1149.685 OFFCURVE",
"610.5 1094 CURVE SMOOTH",
"614.167 1067.333 OFFCURVE",
"616.667 1046.333 OFFCURVE",
"618 1031 CURVE SMOOTH",
"621.333 993.667 OFFCURVE",
"623 772 OFFCURVE",
"623 366 CURVE SMOOTH",
"623 -40 OFFCURVE",
"621.333 -261.667 OFFCURVE",
"618 -299 CURVE SMOOTH",
"615.333 -329.667 OFFCURVE",
"636 -401 OFFCURVE",
"512 -405 CURVE SMOOTH",
"450 -407 OFFCURVE",
"376.667 -408.333 OFFCURVE",
"292 -409 CURVE",
"292 -559 LINE",
"377.333 -557 OFFCURVE",
"477 -556 OFFCURVE",
"591 -556 CURVE SMOOTH",
"764.333 -549.333 OFFCURVE",
"804 -440 OFFCURVE",
"788 -332 CURVE",
"788 1064 LINE"
);
}
);
width = 1126;
}
);
note = bracketright;
unicode = 005D;
},
{
glyphname = asciicircum;
lastChange = "2020-10-13 12:04:57 +0000";
layers = (
{
layerId = "6D6001D6-F15D-4D59-841D-B4ABFE65A828";
paths = (
{
closed = 1;
nodes = (
"487 1157 LINE",
"121 518 LINE",
"279 518 LINE",
"551 1019 LINE",
"840 518 LINE",
"1014 518 LINE",
"629 1157 LINE"
);
}
);
width = 1126;
}
);
note = asciicircum;
unicode = 005E;
},
{
glyphname = underscore;
lastChange = "2020-10-13 12:04:57 +0000";
layers = (
{
layerId = "6D6001D6-F15D-4D59-841D-B4ABFE65A828";
paths = (
{
closed = 1;
nodes = (
"0 -416 LINE",
"0 -560 LINE",
"1126 -560 LINE",
"1126 -416 LINE"
);
}
);
width = 1126;
}
);
note = underscore;
unicode = 005F;
},
{
glyphname = grave;
lastChange = "2020-10-13 12:04:57 +0000";
layers = (
{
layerId = "6D6001D6-F15D-4D59-841D-B4ABFE65A828";
paths = (
{
closed = 1;
nodes = (
"174 1263 LINE",
"494 1021 LINE",
"668 1021 LINE",
"426 1263 LINE"
);
}
);
width = 1126;
}
);
note = grave;
unicode = 0060;
},
{
glyphname = a;
lastChange = "2020-10-13 12:04:57 +0000";
layers = (
{
layerId = "6D6001D6-F15D-4D59-841D-B4ABFE65A828";
paths = (
{
closed = 1;
nodes = (
"961 542 LINE SMOOTH",
"961 654 OFFCURVE",
"923.833 736.333 OFFCURVE",
"856.5 791 CURVE SMOOTH",
"789.167 845.667 OFFCURVE",
"690.333 872 OFFCURVE",
"569 872 CURVE SMOOTH",
"445.285 872 OFFCURVE",
"308.866 841.406 OFFCURVE",
"217 808 CURVE",
"217 651 LINE",
"334.333 697.667 OFFCURVE",
"441.667 724 OFFCURVE",
"555 724 CURVE SMOOTH",
"711 724 OFFCURVE",
"786 646.667 OFFCURVE",
"786 528 CURVE SMOOTH",
"786 440 LINE",
"578 440 LINE SMOOTH",
"284.667 440 OFFCURVE",
"133 319.333 OFFCURVE",
"133 118 CURVE SMOOTH",
"133 36.667 OFFCURVE",
"156.833 -34.167 OFFCURVE",
"209.5 -85.5 CURVE SMOOTH",
"262.167 -136.833 OFFCURVE",
"342.333 -168 OFFCURVE",
"457 -168 CURVE SMOOTH",
"581 -168 OFFCURVE",
"691.667 -123 OFFCURVE",
"801 -15 CURVE",
"805 -150 LINE",
"961 -150 LINE"
);
},
{
closed = 1;
nodes = (
"671.333 23.667 OFFCURVE",
"565 -23 OFFCURVE",
"485 -23 CURVE SMOOTH",
"371.642 -23 OFFCURVE",
"317 37.716 OFFCURVE",
"317 124 CURVE SMOOTH",
"317 244.469 OFFCURVE",
"405.231 307 OFFCURVE",
"565 307 CURVE SMOOTH",
"786 307 LINE",
"786 129 LINE"
);
}
);
width = 1126;
}
);
note = a;
unicode = 0061;
},
{
glyphname = b;
lastChange = "2020-10-13 12:04:57 +0000";
layers = (
{
layerId = "6D6001D6-F15D-4D59-841D-B4ABFE65A828";
paths = (
{
closed = 1;
nodes = (
"1018 522 OFFCURVE",
"988.667 647.167 OFFCURVE",
"930 734.5 CURVE SMOOTH",
"871.333 821.833 OFFCURVE",
"784.667 872 OFFCURVE",
"670 872 CURVE SMOOTH",
"539.333 872 OFFCURVE",
"426 822.667 OFFCURVE",
"326 688 CURVE",
"334 874 LINE",
"334 1263 LINE",
"160 1263 LINE",
"160 -91 LINE",
"281.333 -140.333 OFFCURVE",
"407.333 -162 OFFCURVE",
"526 -162 CURVE SMOOTH",
"678 -162 OFFCURVE",
"800.833 -111.833 OFFCURVE",
"885.5 -20.5 CURVE SMOOTH",
"970.167 70.833 OFFCURVE",
"1018 203.333 OFFCURVE",
"1018 370 CURVE SMOOTH"
);
},
{
closed = 1;
nodes = (
"840 216.667 OFFCURVE",
"804.833 120.833 OFFCURVE",
"749.5 61.5 CURVE SMOOTH",
"694.167 2.167 OFFCURVE",
"619 -21 OFFCURVE",
"539 -21 CURVE SMOOTH",
"475 -21 OFFCURVE",
"402 -4.667 OFFCURVE",
"334 22 CURVE",
"334 509 LINE",
"395.333 589 OFFCURVE",
"448.833 641.833 OFFCURVE",
"497.5 674.5 CURVE SMOOTH",
"546.167 707.167 OFFCURVE",
"591 720 OFFCURVE",
"635 720 CURVE SMOOTH",
"707 720 OFFCURVE",
"758.667 682.667 OFFCURVE",
"792 620 CURVE SMOOTH",
"825.333 557.333 OFFCURVE",
"840 467.333 OFFCURVE",
"840 362 CURVE SMOOTH"
);
}
);
width = 1126;
}
);
note = b;
unicode = 0062;
},
{
glyphname = c;
lastChange = "2020-10-13 12:04:57 +0000";
layers = (
{
layerId = "6D6001D6-F15D-4D59-841D-B4ABFE65A828";
paths = (
{
closed = 1;
nodes = (
"857.333 6.333 OFFCURVE",
"768.667 -15 OFFCURVE",
"674 -15 CURVE SMOOTH",
"464.667 -15 OFFCURVE",
"340 105.333 OFFCURVE",
"340 348 CURVE SMOOTH",
"340 464 OFFCURVE",
"377 557 OFFCURVE",
"437 621 CURVE SMOOTH",
"497 685 OFFCURVE",
"578.667 720 OFFCURVE",
"668 720 CURVE SMOOTH",
"764 720 OFFCURVE",
"853.333 700.333 OFFCURVE",
"940 655 CURVE",
"940 821 LINE",
"857.333 854.333 OFFCURVE",
"768 868 OFFCURVE",
"664 868 CURVE SMOOTH",
"514.667 868 OFFCURVE",
"388.333 816 OFFCURVE",
"299 724 CURVE SMOOTH",
"209.667 632 OFFCURVE",
"158 500.667 OFFCURVE",
"158 342 CURVE SMOOTH",
"158 11.333 OFFCURVE",
"335.667 -164 OFFCURVE",
"653 -164 CURVE SMOOTH",
"754.333 -164 OFFCURVE",
"849.333 -147.667 OFFCURVE",
"940 -113 CURVE",
"940 49 LINE"
);
}
);
width = 1126;
}
);
note = c;
unicode = 0063;
},
{
glyphname = d;
lastChange = "2020-10-13 12:04:57 +0000";
layers = (
{
layerId = "6D6001D6-F15D-4D59-841D-B4ABFE65A828";
paths = (
{
closed = 1;
nodes = (
"109 181.667 OFFCURVE",
"138.5 56.833 OFFCURVE",
"196.5 -30.5 CURVE SMOOTH",
"254.5 -117.833 OFFCURVE",
"342.333 -168 OFFCURVE",
"457 -168 CURVE SMOOTH",
"589 -168 OFFCURVE",
"701.667 -101.333 OFFCURVE",
"799 40 CURVE",
"805 -150 LINE",
"961 -150 LINE",
"961 1263 LINE",
"786 1263 LINE",
"786 841 LINE",
"726 858.333 OFFCURVE",
"664 866 OFFCURVE",
"600 866 CURVE SMOOTH",
"452 866 OFFCURVE",
"329.5 817.833 OFFCURVE",
"243.5 726.5 CURVE SMOOTH",
"157.5 635.167 OFFCURVE",
"109 501.667 OFFCURVE",
"109 331 CURVE SMOOTH"
);
},
{
closed = 1;
nodes = (
"287 603.333 OFFCURVE",
"398.667 722 OFFCURVE",
"588 722 CURVE SMOOTH",
"656 722 OFFCURVE",
"728.667 707.667 OFFCURVE",
"786 681 CURVE",
"786 215 LINE",
"678 60.333 OFFCURVE",
"580 -19 OFFCURVE",
"492 -19 CURVE SMOOTH",
"361.333 -19 OFFCURVE",
"287 99.333 OFFCURVE",
"287 342 CURVE SMOOTH"
);
}
);
width = 1126;
}
);
note = d;
unicode = 0064;
},
{
glyphname = e;
lastChange = "2020-10-13 12:04:57 +0000";
layers = (
{
layerId = "6D6001D6-F15D-4D59-841D-B4ABFE65A828";
paths = (
{
closed = 1;
nodes = (
"1008 547.667 OFFCURVE",
"969.5 664.833 OFFCURVE",
"895.5 745.5 CURVE SMOOTH",
"821.5 826.167 OFFCURVE",
"713 872 OFFCURVE",
"573 872 CURVE SMOOTH",
"429 872 OFFCURVE",
"314.5 811.833 OFFCURVE",
"236.5 716.5 CURVE SMOOTH",
"158.5 621.167 OFFCURVE",
"117 491.333 OFFCURVE",
"117 350 CURVE SMOOTH",
"117 187.333 OFFCURVE",
"154.167 57.167 OFFCURVE",
"233.5 -31.5 CURVE SMOOTH",
"312.833 -120.167 OFFCURVE",
"436 -168 OFFCURVE",
"608 -168 CURVE SMOOTH",
"736 -168 OFFCURVE",
"859.333 -149.667 OFFCURVE",
"954 -123 CURVE",
"954 20 LINE",
"872.688 -2.869 OFFCURVE",
"737.823 -23 OFFCURVE",
"633 -23 CURVE SMOOTH",
"417 -23 OFFCURVE",
"299 90.667 OFFCURVE",
"299 296 CURVE",
"1004 296 LINE",
"1006.667 325.333 OFFCURVE",
"1008 355.667 OFFCURVE",
"1008 405 CURVE SMOOTH"
);
},
{
closed = 1;
nodes = (
"305.667 519.333 OFFCURVE",
"334.667 595.667 OFFCURVE",
"380 649 CURVE SMOOTH",
"425.333 702.333 OFFCURVE",
"489 733 OFFCURVE",
"565 733 CURVE SMOOTH",
"653 733 OFFCURVE",
"719.833 701.333 OFFCURVE",
"764.5 648 CURVE SMOOTH",
"809.167 594.667 OFFCURVE",
"831 519.333 OFFCURVE",
"827 430 CURVE",
"299 430 LINE"
);
}
);
width = 1126;
}
);
note = e;
unicode = 0065;
},
{
glyphname = f;
lastChange = "2020-10-13 12:04:57 +0000";
layers = (
{
layerId = "6D6001D6-F15D-4D59-841D-B4ABFE65A828";
paths = (
{
closed = 1;
nodes = (
"967 1267 OFFCURVE",
"890.333 1275 OFFCURVE",
"821 1275 CURVE SMOOTH",
"542.333 1275 OFFCURVE",
"403 1141.333 OFFCURVE",
"403 874 CURVE SMOOTH",
"403 708 LINE",
"80 708 LINE",
"80 563 LINE",
"403 563 LINE",
"403 -150 LINE",
"580 -150 LINE",
"580 563 LINE",
"1020 563 LINE",
"1020 708 LINE",
"580 708 LINE",
"580 884 LINE SMOOTH",
"580 1048 OFFCURVE",
"658.333 1130 OFFCURVE",
"815 1130 CURVE SMOOTH",
"881 1130 OFFCURVE",
"959.667 1120.333 OFFCURVE",
"1051 1101 CURVE",
"1051 1251 LINE"
);
}
);
width = 1126;
}
);
note = f;
unicode = 0066;
},
{
glyphname = g;
lastChange = "2020-10-13 12:04:57 +0000";
layers = (
{
layerId = "6D6001D6-F15D-4D59-841D-B4ABFE65A828";
paths = (
{
closed = 1;
nodes = (
"1044 854 LINE",
"680 854 LINE",
"645.333 864.667 OFFCURVE",
"598.333 872 OFFCURVE",
"549 872 CURVE SMOOTH",
"431.667 872 OFFCURVE",
"333.167 836.333 OFFCURVE",
"264.5 775 CURVE SMOOTH",
"195.833 713.667 OFFCURVE",
"156 626 OFFCURVE",
"156 522 CURVE SMOOTH",
"156 427.15 OFFCURVE",
"184.591 369.232 OFFCURVE",
"236 307 CURVE",
"180 243 OFFCURVE",
"133 172.667 OFFCURVE",
"133 86 CURVE SMOOTH",
"133 20.73 OFFCURVE",
"166.778 -45.436 OFFCURVE",
"233 -76 CURVE",
"138.333 -144 OFFCURVE",
"94 -212.667 OFFCURVE",
"94 -310 CURVE SMOOTH",
"94 -386 OFFCURVE",
"125.667 -450.5 OFFCURVE",
"199 -496.5 CURVE SMOOTH",
"272.333 -542.5 OFFCURVE",
"384.333 -570 OFFCURVE",
"547 -570 CURVE SMOOTH",
"717.667 -570 OFFCURVE",
"840.833 -531.167 OFFCURVE",
"921.5 -470.5 CURVE SMOOTH",
"1002.167 -409.833 OFFCURVE",
"1040 -327.333 OFFCURVE",
"1040 -238 CURVE SMOOTH",
"1040 -155.333 OFFCURVE",
"1004.167 -92.667 OFFCURVE",
"943.5 -50 CURVE SMOOTH",
"882.833 -7.333 OFFCURVE",
"796 15.333 OFFCURVE",
"696 18 CURVE SMOOTH",
"432 28 LINE SMOOTH",
"352 30.667 OFFCURVE",
"299 67.333 OFFCURVE",
"299 118 CURVE SMOOTH",
"299 159.333 OFFCURVE",
"318.667 189.667 OFFCURVE",
"344 227 CURVE",
"386.667 200.333 OFFCURVE",
"465 180 OFFCURVE",
"549 180 CURVE SMOOTH",
"665 180 OFFCURVE",
"763.667 215.667 OFFCURVE",
"833 277 CURVE SMOOTH",
"902.333 338.333 OFFCURVE",
"942 426 OFFCURVE",
"942 530 CURVE SMOOTH",
"942 602 OFFCURVE",
"920.333 665.333 OFFCURVE",
"883 712 CURVE",
"1044 712 LINE"
);
},
{
closed = 1;
nodes = (
"279 -227.713 OFFCURVE",
"309.704 -175.864 OFFCURVE",
"389 -123 CURVE",
"651 -132 LINE SMOOTH",
"788.333 -138.667 OFFCURVE",
"854 -174.667 OFFCURVE",
"854 -256 CURVE SMOOTH",
"854 -300 OFFCURVE",
"835.5 -343.833 OFFCURVE",
"789.5 -376.5 CURVE SMOOTH",
"743.5 -409.167 OFFCURVE",
"669.667 -431 OFFCURVE",
"559 -431 CURVE SMOOTH",
"383 -431 OFFCURVE",
"279 -389.667 OFFCURVE",
"279 -295 CURVE SMOOTH"
);
},
{
closed = 1;
nodes = (
"332 643.29 OFFCURVE",
"415.844 741 OFFCURVE",
"549 741 CURVE SMOOTH",
"676.894 741 OFFCURVE",
"766 653.702 OFFCURVE",
"766 526 CURVE SMOOTH",
"766 406.831 OFFCURVE",
"682.114 311 OFFCURVE",
"549 311 CURVE SMOOTH",
"421.106 311 OFFCURVE",
"332 398.298 OFFCURVE",
"332 526 CURVE SMOOTH"
);
}
);
width = 1126;
}
);
note = g;
unicode = 0067;
},
{
glyphname = h;
lastChange = "2020-10-13 12:04:57 +0000";
layers = (
{
layerId = "6D6001D6-F15D-4D59-841D-B4ABFE65A828";
paths = (
{
closed = 1;
nodes = (
"967 750.333 OFFCURVE",
"853 872 OFFCURVE",
"653 872 CURVE SMOOTH",
"528.269 872 OFFCURVE",
"430.463 818.456 OFFCURVE",
"328 696 CURVE",
"334 854 LINE",
"334 1263 LINE",
"160 1263 LINE",
"160 -150 LINE",
"334 -150 LINE",
"334 516 LINE",
"402 596 OFFCURVE",
"452 648.167 OFFCURVE",
"496 679.5 CURVE SMOOTH",
"540 710.833 OFFCURVE",
"578.333 722 OFFCURVE",
"625 722 CURVE SMOOTH",
"733 722 OFFCURVE",
"793 645.667 OFFCURVE",
"793 491 CURVE SMOOTH",
"793 -150 LINE",
"967 -150 LINE",
"967 505 LINE SMOOTH"
);
}
);
width = 1126;
}
);
note = h;
unicode = 0068;
},
{
glyphname = i;
lastChange = "2020-10-13 12:04:57 +0000";
layers = (
{
layerId = "6D6001D6-F15D-4D59-841D-B4ABFE65A828";
paths = (
{
closed = 1;
nodes = (
"172 -5 LINE",
"172 -150 LINE",
"977 -150 LINE",
"977 -5 LINE",
"678 -5 LINE",
"678 854 LINE",
"205 854 LINE",
"205 710 LINE",
"502 710 LINE",
"502 -5 LINE"
);
},
{
closed = 1;
nodes = (
"486.504 1275 OFFCURVE",
"426 1214.811 OFFCURVE",
"426 1138 CURVE SMOOTH",
"426 1061.608 OFFCURVE",
"486.381 1001 OFFCURVE",
"563 1001 CURVE SMOOTH",
"639.619 1001 OFFCURVE",
"700 1061.608 OFFCURVE",
"700 1138 CURVE SMOOTH",
"700 1214.811 OFFCURVE",
"639.496 1275 OFFCURVE",
"563 1275 CURVE SMOOTH"
);
}
);
width = 1126;
}
);
note = i;
unicode = 0069;
},
{
glyphname = j;
lastChange = "2020-10-13 12:04:57 +0000";
layers = (
{
layerId = "6D6001D6-F15D-4D59-841D-B4ABFE65A828";
paths = (
{
closed = 1;
nodes = (
"172 710 LINE",
"664 710 LINE",
"664 -138 LINE SMOOTH",
"664 -324.667 OFFCURVE",
"572 -422 OFFCURVE",
"420 -422 CURVE SMOOTH",
"324.386 -422 OFFCURVE",
"214.51 -396.102 OFFCURVE",
"131 -353 CURVE",
"131 -519 LINE",
"207 -551 OFFCURVE",
"304.333 -570 OFFCURVE",
"403 -570 CURVE SMOOTH",
"539 -570 OFFCURVE",
"649.333 -530.667 OFFCURVE",
"724 -456 CURVE SMOOTH",
"798.667 -381.333 OFFCURVE",
"840 -272 OFFCURVE",
"840 -132 CURVE SMOOTH",
"840 854 LINE",
"172 854 LINE"
);
},
{
closed = 1;
nodes = (
"658.381 1275 OFFCURVE",
"598 1214.392 OFFCURVE",
"598 1138 CURVE SMOOTH",
"598 1061.189 OFFCURVE",
"658.504 1001 OFFCURVE",
"735 1001 CURVE SMOOTH",
"811.496 1001 OFFCURVE",
"872 1061.189 OFFCURVE",
"872 1138 CURVE SMOOTH",
"872 1214.392 OFFCURVE",
"811.619 1275 OFFCURVE",
"735 1275 CURVE SMOOTH"
);
}
);
width = 1126;
}
);
note = j;
unicode = 006A;
},
{
glyphname = k;
lastChange = "2020-10-13 12:04:57 +0000";
layers = (
{
layerId = "6D6001D6-F15D-4D59-841D-B4ABFE65A828";
paths = (
{
closed = 1;
nodes = (
"1037 854 LINE",
"807 854 LINE",
"356 395 LINE",
"356 1263 LINE",
"182 1263 LINE",
"182 -150 LINE",
"356 -150 LINE",
"356 388 LINE",
"824 -150 LINE",
"1063 -150 LINE",
"566 391 LINE"
);
}
);
width = 1126;
}
);
note = k;
unicode = 006B;
},
{
glyphname = l;
lastChange = "2020-10-13 12:04:57 +0000";
layers = (
{
layerId = "6D6001D6-F15D-4D59-841D-B4ABFE65A828";
paths = (
{
closed = 1;
nodes = (
"172 -5 LINE",
"172 -150 LINE",
"977 -150 LINE",
"977 -5 LINE",
"678 -5 LINE",
"678 1263 LINE",
"205 1263 LINE",
"205 1120 LINE",
"502 1120 LINE",
"502 -5 LINE"
);
}
);
width = 1126;
}
);
note = l;
unicode = 006C;
},
{
glyphname = m;
lastChange = "2020-10-13 12:04:57 +0000";
layers = (
{
layerId = "6D6001D6-F15D-4D59-841D-B4ABFE65A828";
paths = (
{
closed = 1;
nodes = (
"1036 581 LINE SMOOTH",
"1036 775 OFFCURVE",
"973 872 OFFCURVE",
"847 872 CURVE SMOOTH",
"731.868 872 OFFCURVE",
"678.228 785.493 OFFCURVE",
"618 655 CURVE",
"618 803 OFFCURVE",
"561 872 OFFCURVE",
"453 872 CURVE SMOOTH",
"348.975 872 OFFCURVE",
"293.392 799.782 OFFCURVE",
"231 663 CURVE",
"223 854 LINE",
"90 854 LINE",
"90 -150 LINE",
"250 -150 LINE",
"250 495 LINE",
"294 588.333 OFFCURVE",
"324.5 646.333 OFFCURVE",
"350.5 681 CURVE SMOOTH",
"376.5 715.667 OFFCURVE",
"396 727 OFFCURVE",
"420 727 CURVE SMOOTH",
"474.776 727 OFFCURVE",
"483 672.503 OFFCURVE",
"483 552 CURVE SMOOTH",
"483 -150 LINE",
"642 -150 LINE",
"642 495 LINE",
"684.667 581.667 OFFCURVE",
"714.5 640 OFFCURVE",
"740.5 676 CURVE SMOOTH",
"766.5 712 OFFCURVE",
"787.333 727 OFFCURVE",
"814 727 CURVE SMOOTH",
"865.602 727 OFFCURVE",
"876 675.743 OFFCURVE",
"876 571 CURVE SMOOTH",
"876 -150 LINE",
"1036 -150 LINE"
);
}
);
width = 1126;
}
);
note = m;
unicode = 006D;
},
{
glyphname = n;
lastChange = "2020-10-13 12:04:57 +0000";
layers = (
{
layerId = "6D6001D6-F15D-4D59-841D-B4ABFE65A828";
paths = (
{
closed = 1;
nodes = (
"334 -150 LINE",
"334 516 LINE",
"398 596 OFFCURVE",
"448 648.167 OFFCURVE",
"492 679.5 CURVE SMOOTH",
"536 710.833 OFFCURVE",
"575.333 722 OFFCURVE",
"618 722 CURVE SMOOTH",
"734 722 OFFCURVE",
"793 648.333 OFFCURVE",
"793 491 CURVE SMOOTH",
"793 -150 LINE",
"967 -150 LINE",
"967 505 LINE SMOOTH",
"967 750.333 OFFCURVE",
"859.667 872 OFFCURVE",
"653 872 CURVE SMOOTH",
"594.333 872 OFFCURVE",
"540.167 862 OFFCURVE",
"487.5 834 CURVE SMOOTH",
"434.833 806 OFFCURVE",
"380.667 761.333 OFFCURVE",
"322 692 CURVE",
"315 854 LINE",
"160 854 LINE",
"160 -150 LINE"
);
}
);
width = 1126;
}
);
note = n;
unicode = 006E;
},
{
glyphname = o;
lastChange = "2020-10-13 12:04:57 +0000";
layers = (
{
layerId = "6D6001D6-F15D-4D59-841D-B4ABFE65A828";
paths = (
{
closed = 1;
nodes = (
"1034 525.333 OFFCURVE",
"990.833 654.5 OFFCURVE",
"911.5 740.5 CURVE SMOOTH",
"832.167 826.5 OFFCURVE",
"717 872 OFFCURVE",
"573 872 CURVE SMOOTH",
"422.333 872 OFFCURVE",
"302.667 818.167 OFFCURVE",
"220 725.5 CURVE SMOOTH",
"137.333 632.833 OFFCURVE",
"92 502 OFFCURVE",
"92 346 CURVE SMOOTH",
"92 179.333 OFFCURVE",
"135.167 50.667 OFFCURVE",
"214.5 -36 CURVE SMOOTH",
"293.833 -122.667 OFFCURVE",
"409 -168 OFFCURVE",
"553 -168 CURVE SMOOTH",
"703.667 -168 OFFCURVE",
"823.333 -114.167 OFFCURVE",
"906 -21.5 CURVE SMOOTH",
"988.667 71.167 OFFCURVE",
"1034 204 OFFCURVE",
"1034 360 CURVE SMOOTH"
);
},
{
closed = 1;
nodes = (
"856 252 OFFCURVE",
"834.833 159 OFFCURVE",
"787.5 91 CURVE SMOOTH",
"740.167 23 OFFCURVE",
"667 -21 OFFCURVE",
"563 -21 CURVE SMOOTH",
"472.333 -21 OFFCURVE",
"399.667 10.5 OFFCURVE",
"349 72.5 CURVE SMOOTH",
"298.333 134.5 OFFCURVE",
"270 228 OFFCURVE",
"270 352 CURVE SMOOTH",
"270 450.667 OFFCURVE",
"291.167 544 OFFCURVE",
"338.5 612 CURVE SMOOTH",
"385.833 680 OFFCURVE",
"459 724 OFFCURVE",
"563 724 CURVE SMOOTH",
"652.333 724 OFFCURVE",
"726.333 692.5 OFFCURVE",
"777 630.5 CURVE SMOOTH",
"827.667 568.5 OFFCURVE",
"856 476 OFFCURVE",
"856 352 CURVE SMOOTH"
);
}
);
width = 1126;
}
);
note = o;
unicode = 006F;
},
{
glyphname = p;
lastChange = "2020-10-13 12:04:57 +0000";
layers = (
{
layerId = "6D6001D6-F15D-4D59-841D-B4ABFE65A828";
paths = (
{
closed = 1;
nodes = (
"1018 522 OFFCURVE",
"988.667 647.167 OFFCURVE",
"930 734.5 CURVE SMOOTH",
"871.333 821.833 OFFCURVE",
"784.667 872 OFFCURVE",
"670 872 CURVE SMOOTH",
"538 872 OFFCURVE",
"426 823.333 OFFCURVE",
"326 686 CURVE",
"315 854 LINE",
"160 854 LINE",
"160 -560 LINE",
"334 -560 LINE",
"334 -140 LINE",
"399.333 -156 OFFCURVE",
"462 -162 OFFCURVE",
"526 -162 CURVE SMOOTH",
"666 -162 OFFCURVE",
"789 -118 OFFCURVE",
"877 -30 CURVE SMOOTH",
"965 58 OFFCURVE",
"1018 191.333 OFFCURVE",
"1018 370 CURVE SMOOTH"
);
},
{
closed = 1;
nodes = (
"840 106 OFFCURVE",
"727 -21 OFFCURVE",
"539 -21 CURVE SMOOTH",
"471 -21 OFFCURVE",
"398 -4.667 OFFCURVE",
"334 22 CURVE",
"334 509 LINE",
"395.333 589 OFFCURVE",
"448.833 641.833 OFFCURVE",
"497.5 674.5 CURVE SMOOTH",
"546.167 707.167 OFFCURVE",
"591 720 OFFCURVE",
"635 720 CURVE SMOOTH",
"707 720 OFFCURVE",
"758.667 682.667 OFFCURVE",
"792 620 CURVE SMOOTH",
"825.333 557.333 OFFCURVE",
"840 467.333 OFFCURVE",
"840 362 CURVE SMOOTH"
);
}
);
width = 1126;
}
);
note = p;
unicode = 0070;
},
{
glyphname = q;
lastChange = "2020-10-13 12:04:57 +0000";
layers = (
{
layerId = "6D6001D6-F15D-4D59-841D-B4ABFE65A828";
paths = (
{
closed = 1;
nodes = (
"109 183 OFFCURVE",
"137.5 58 OFFCURVE",
"195.5 -30 CURVE SMOOTH",
"253.5 -118 OFFCURVE",
"339.667 -168 OFFCURVE",
"457 -168 CURVE SMOOTH",
"587.667 -168 OFFCURVE",
"700.333 -100.667 OFFCURVE",
"795 34 CURVE",
"786 -181 LINE",
"786 -560 LINE",
"961 -560 LINE",
"961 872 LINE",
"807 833 LINE",
"732.333 855.667 OFFCURVE",
"668 866 OFFCURVE",
"600 866 CURVE SMOOTH",
"428 866 OFFCURVE",
"304.833 804.5 OFFCURVE",
"225.5 706.5 CURVE SMOOTH",
"146.167 608.5 OFFCURVE",
"109 475 OFFCURVE",
"109 331 CURVE SMOOTH"
);
},
{
closed = 1;
nodes = (
"287 592.667 OFFCURVE",
"392 724 OFFCURVE",
"588 724 CURVE SMOOTH",
"664 724 OFFCURVE",
"732.667 706.333 OFFCURVE",
"786 681 CURVE",
"786 215 LINE",
"678 60.333 OFFCURVE",
"580 -19 OFFCURVE",
"492 -19 CURVE SMOOTH",
"422.667 -19 OFFCURVE",
"371.5 15.5 OFFCURVE",
"337.5 77.5 CURVE SMOOTH",
"303.5 139.5 OFFCURVE",
"287 230 OFFCURVE",
"287 342 CURVE SMOOTH"
);
}
);
width = 1126;
}
);
note = q;
unicode = 0071;
},
{
glyphname = r;
lastChange = "2020-10-13 12:04:57 +0000";
layers = (
{
layerId = "6D6001D6-F15D-4D59-841D-B4ABFE65A828";
paths = (
{
closed = 1;
nodes = (
"377 -150 LINE",
"377 495 LINE",
"441 576.333 OFFCURVE",
"496.5 632.833 OFFCURVE",
"546.5 669.5 CURVE SMOOTH",
"596.5 706.167 OFFCURVE",
"643.333 722 OFFCURVE",
"690 722 CURVE SMOOTH",
"796.667 722 OFFCURVE",
"854 647 OFFCURVE",
"850 471 CURVE",
"1026 471 LINE",
"1034 736.333 OFFCURVE",
"923 872 OFFCURVE",
"715 872 CURVE SMOOTH",
"597.667 872 OFFCURVE",
"483.667 811.667 OFFCURVE",
"365 669 CURVE",
"360 854 LINE",
"201 854 LINE",
"201 -150 LINE"
);
}
);
width = 1126;
}
);
note = r;
unicode = 0072;
},
{
glyphname = s;
lastChange = "2020-10-13 12:04:57 +0000";
layers = (
{
layerId = "6D6001D6-F15D-4D59-841D-B4ABFE65A828";
paths = (
{
closed = 1;
nodes = (
"955 198.667 OFFCURVE",
"934.667 256.333 OFFCURVE",
"884 303 CURVE SMOOTH",
"833.333 349.667 OFFCURVE",
"753.667 386.333 OFFCURVE",
"635 421 CURVE SMOOTH",
"525.667 453 OFFCURVE",
"460.5 479.167 OFFCURVE",
"422.5 506.5 CURVE SMOOTH",
"384.5 533.833 OFFCURVE",
"373 562 OFFCURVE",
"373 598 CURVE SMOOTH",
"373 682.972 OFFCURVE",
"455.305 727 OFFCURVE",
"606 727 CURVE SMOOTH",
"678 727 OFFCURVE",
"779.667 714.667 OFFCURVE",
"889 688 CURVE",
"889 843 LINE",
"785 864.333 OFFCURVE",
"686.667 872 OFFCURVE",
"608 872 CURVE SMOOTH",
"448 872 OFFCURVE",
"343.667 829.333 OFFCURVE",
"281 772 CURVE SMOOTH",
"218.333 714.667 OFFCURVE",
"195 643 OFFCURVE",
"195 587 CURVE SMOOTH",
"195 501.667 OFFCURVE",
"229 440.667 OFFCURVE",
"285 394 CURVE SMOOTH",
"341 347.333 OFFCURVE",
"419.333 314.667 OFFCURVE",
"510 288 CURVE SMOOTH",
"631.333 252 OFFCURVE",
"697.667 225.5 OFFCURVE",
"731 199.5 CURVE SMOOTH",
"764.333 173.5 OFFCURVE",
"775 146 OFFCURVE",
"775 110 CURVE SMOOTH",
"775 26 OFFCURVE",
"696.667 -21 OFFCURVE",
"530 -21 CURVE SMOOTH",
"415.333 -21 OFFCURVE",
"299.333 -3.333 OFFCURVE",
"182 30 CURVE",
"182 -130 LINE",
"291.333 -156.667 OFFCURVE",
"401 -168 OFFCURVE",
"537 -168 CURVE SMOOTH",
"599.667 -168 OFFCURVE",
"666.5 -159 OFFCURVE",
"728.5 -139 CURVE SMOOTH",
"759.5 -129 OFFCURVE",
"788.667 -116.333 OFFCURVE",
"816 -101 CURVE SMOOTH",
"870.667 -70.333 OFFCURVE",
"913 -27 OFFCURVE",
"937 29 CURVE SMOOTH",
"949 57 OFFCURVE",
"955 88.667 OFFCURVE",
"955 124 CURVE SMOOTH"
);
}
);
width = 1126;
}
);
note = s;
unicode = 0073;
},
{
glyphname = t;
lastChange = "2020-10-13 12:04:57 +0000";
layers = (
{
layerId = "6D6001D6-F15D-4D59-841D-B4ABFE65A828";
paths = (
{
closed = 1;
nodes = (
"886.333 -7.333 OFFCURVE",
"809 -17 OFFCURVE",
"745 -17 CURVE SMOOTH",
"595.667 -17 OFFCURVE",
"518 54 OFFCURVE",
"518 198 CURVE SMOOTH",
"518 708 LINE",
"969 708 LINE",
"969 854 LINE",
"518 854 LINE",
"518 1175 LINE",
"344 1130 LINE",
"344 854 LINE",
"63 854 LINE",
"63 708 LINE",
"344 708 LINE",
"344 184 LINE SMOOTH",
"344 -52 OFFCURVE",
"467 -164 OFFCURVE",
"719 -164 CURVE SMOOTH",
"805.667 -164 OFFCURVE",
"890.333 -156 OFFCURVE",
"969 -136 CURVE",
"969 14 LINE"
);
}
);
width = 1126;
}
);
note = t;
unicode = 0074;
},
{
glyphname = u;
lastChange = "2020-10-13 12:04:57 +0000";
layers = (
{
layerId = "6D6001D6-F15D-4D59-841D-B4ABFE65A828";
paths = (
{
closed = 1;
nodes = (
"793 854 LINE",
"793 188 LINE",
"729 106.667 OFFCURVE",
"679.167 54.833 OFFCURVE",
"634.5 23.5 CURVE SMOOTH",
"589.833 -7.833 OFFCURVE",
"550.667 -19 OFFCURVE",
"508 -19 CURVE SMOOTH",
"392 -19 OFFCURVE",
"334 58 OFFCURVE",
"334 212 CURVE SMOOTH",
"334 854 LINE",
"160 854 LINE",
"160 198 LINE SMOOTH",
"160 -47.333 OFFCURVE",
"266.333 -168 OFFCURVE",
"473 -168 CURVE SMOOTH",
"601.815 -168 OFFCURVE",
"693.688 -116.628 OFFCURVE",
"805 12 CURVE",
"811 -150 LINE",
"967 -150 LINE",
"967 854 LINE"
);
}
);
width = 1126;
}
);
note = u;
unicode = 0075;
},
{
glyphname = v;
lastChange = "2020-10-13 12:04:57 +0000";
layers = (
{
layerId = "6D6001D6-F15D-4D59-841D-B4ABFE65A828";
paths = (
{
closed = 1;
nodes = (
"659 -150 LINE",
"1053 854 LINE",
"862 854 LINE",
"618 194 LINE",
"563 28 LINE",
"510 190 LINE",
"264 854 LINE",
"66 854 LINE",
"459 -150 LINE"
);
}
);
width = 1126;
}
);
note = v;
unicode = 0076;
},
{
glyphname = w;
lastChange = "2020-10-13 12:04:57 +0000";
layers = (
{
layerId = "6D6001D6-F15D-4D59-841D-B4ABFE65A828";
paths = (
{
closed = 1;
nodes = (
"840 167 LINE",
"825 26 LINE",
"780 159 LINE",
"623 604 LINE",
"498 604 LINE",
"309 20 LINE",
"291 172 LINE",
"207 854 LINE",
"37 854 LINE",
"182 -150 LINE",
"387 -150 LINE",
"526 264 LINE",
"559 372 LINE",
"588 270 LINE",
"733 -150 LINE",
"944 -150 LINE",
"1090 854 LINE",
"918 854 LINE"
);
}
);
width = 1126;
}
);
note = w;
unicode = 0077;
},
{
glyphname = x;
lastChange = "2020-10-13 12:04:57 +0000";
layers = (
{
layerId = "6D6001D6-F15D-4D59-841D-B4ABFE65A828";
paths = (
{
closed = 1;
nodes = (
"1049 854 LINE",
"834 854 LINE",
"575 468 LINE",
"311 854 LINE",
"88 854 LINE",
"459 354 LINE",
"70 -150 LINE",
"295 -150 LINE",
"563 233 LINE",
"834 -150 LINE",
"1065 -150 LINE",
"672 350 LINE"
);
}
);
width = 1126;
}
);
note = x;
unicode = 0078;
},
{
glyphname = y;
lastChange = "2020-10-13 12:04:57 +0000";
layers = (
{
layerId = "6D6001D6-F15D-4D59-841D-B4ABFE65A828";
paths = (
{
closed = 1;
nodes = (
"627 194 LINE",
"569 34 LINE",
"518 190 LINE",
"264 854 LINE",
"66 854 LINE",
"467 -150 LINE",
"424.333 -244.667 OFFCURVE",
"379.333 -310.5 OFFCURVE",
"330 -352.5 CURVE SMOOTH",
"280.667 -394.5 OFFCURVE",
"226 -412 OFFCURVE",
"162 -412 CURVE SMOOTH",
"123.333 -412 OFFCURVE",
"88.333 -408 OFFCURVE",
"59 -404 CURVE",
"59 -562 LINE",
"92.333 -564.667 OFFCURVE",
"117.333 -566 OFFCURVE",
"152 -566 CURVE SMOOTH",
"284 -566 OFFCURVE",
"388.667 -527.167 OFFCURVE",
"478 -442.5 CURVE SMOOTH",
"567.333 -357.833 OFFCURVE",
"640.333 -226.667 OFFCURVE",
"711 -44 CURVE SMOOTH",
"1053 854 LINE",
"862 854 LINE"
);
}
);
width = 1126;
}
);
note = y;
unicode = 0079;
},
{
glyphname = z;
lastChange = "2020-10-13 12:04:57 +0000";
layers = (
{
layerId = "6D6001D6-F15D-4D59-841D-B4ABFE65A828";
paths = (
{
closed = 1;
nodes = (
"383 -3 LINE",
"940 718 LINE",
"940 854 LINE",
"178 854 LINE",
"178 708 LINE",
"731 708 LINE",
"164 -25 LINE",
"164 -150 LINE",
"973 -150 LINE",
"973 -3 LINE"
);
}
);
width = 1126;
}
);
note = z;
unicode = 007A;
},
{
glyphname = braceleft;
lastChange = "2020-10-13 12:04:57 +0000";
layers = (
{
layerId = "6D6001D6-F15D-4D59-841D-B4ABFE65A828";
paths = (
{
closed = 1;
nodes = (
"838 -420 LINE SMOOTH",
"684.667 -420 OFFCURVE",
"608 -343.667 OFFCURVE",
"608 -191 CURVE SMOOTH",
"608 151 LINE SMOOTH",
"608 319.667 OFFCURVE",
"537 411 OFFCURVE",
"395 425 CURVE",
"535.667 445.667 OFFCURVE",
"606 537.333 OFFCURVE",
"606 700 CURVE SMOOTH",
"606 933 LINE SMOOTH",
"606 1083 OFFCURVE",
"683.333 1158 OFFCURVE",
"838 1158 CURVE SMOOTH",
"897 1158 LINE",
"897 1298 LINE",
"823 1298 LINE SMOOTH",
"683 1298 OFFCURVE",
"588.167 1262.833 OFFCURVE",
"527.5 1199.5 CURVE SMOOTH",
"466.833 1136.167 OFFCURVE",
"442 1045 OFFCURVE",
"442 933 CURVE SMOOTH",
"442 696 LINE SMOOTH",
"442 626.667 OFFCURVE",
"430.667 576.167 OFFCURVE",
"396 543.5 CURVE SMOOTH",
"361.333 510.833 OFFCURVE",
"302.333 495 OFFCURVE",
"205 495 CURVE SMOOTH",
"162 495 LINE",
"162 356 LINE",
"205 356 LINE SMOOTH",
"378.765 356 OFFCURVE",
"442 289.362 OFFCURVE",
"442 149 CURVE SMOOTH",
"442 -195 LINE SMOOTH",
"442 -440.333 OFFCURVE",
"565.667 -560 OFFCURVE",
"823 -560 CURVE SMOOTH",
"897 -560 LINE",
"897 -420 LINE"
);
}
);
width = 1126;
}
);
note = braceleft;
unicode = 007B;
},
{
glyphname = bar;
lastChange = "2020-10-13 12:04:57 +0000";
layers = (
{
layerId = "6D6001D6-F15D-4D59-841D-B4ABFE65A828";
paths = (
{
closed = 1;
nodes = (
"481 1488 LINE",
"481 -560 LINE",
"645 -560 LINE",
"645 1488 LINE"
);
}
);
width = 1126;
}
);
note = bar;
unicode = 007C;
},
{
glyphname = braceright;
lastChange = "2020-10-13 12:04:57 +0000";
layers = (
{
layerId = "6D6001D6-F15D-4D59-841D-B4ABFE65A828";
paths = (
{
closed = 1;
nodes = (
"289 1158 LINE SMOOTH",
"441.667 1158 OFFCURVE",
"518 1081.667 OFFCURVE",
"518 929 CURVE SMOOTH",
"518 700 LINE SMOOTH",
"518 532 OFFCURVE",
"589 440.333 OFFCURVE",
"731 425 CURVE",
"590.333 405 OFFCURVE",
"520 313.667 OFFCURVE",
"520 151 CURVE SMOOTH",
"520 -195 LINE SMOOTH",
"520 -345 OFFCURVE",
"443 -420 OFFCURVE",
"289 -420 CURVE SMOOTH",
"229 -420 LINE",
"229 -560 LINE",
"303 -560 LINE SMOOTH",
"443 -560 OFFCURVE",
"539 -524.833 OFFCURVE",
"599 -461.5 CURVE SMOOTH",
"659 -398.167 OFFCURVE",
"684 -307 OFFCURVE",
"684 -195 CURVE SMOOTH",
"684 155 LINE SMOOTH",
"684 224.333 OFFCURVE",
"695.333 274.833 OFFCURVE",
"730 307.5 CURVE SMOOTH",
"764.667 340.167 OFFCURVE",
"824.667 356 OFFCURVE",
"922 356 CURVE SMOOTH",
"965 356 LINE",
"965 495 LINE",
"922 495 LINE SMOOTH",
"747.37 495 OFFCURVE",
"684 561.615 OFFCURVE",
"684 702 CURVE SMOOTH",
"684 933 LINE SMOOTH",
"684 1178.333 OFFCURVE",
"560.333 1298 OFFCURVE",
"303 1298 CURVE SMOOTH",
"229 1298 LINE",
"229 1158 LINE"
);
}
);
width = 1126;
}
);
note = braceright;
unicode = 007D;
},
{
glyphname = asciitilde;
lastChange = "2020-10-13 12:04:57 +0000";
layers = (
{
layerId = "6D6001D6-F15D-4D59-841D-B4ABFE65A828";
paths = (
{
closed = 1;
nodes = (
"901 410 OFFCURVE",
"868 352 OFFCURVE",
"784 352 CURVE SMOOTH",
"738.667 352 OFFCURVE",
"700.167 379.667 OFFCURVE",
"659.5 417 CURVE SMOOTH",
"639.167 435.667 OFFCURVE",
"618.5 456 OFFCURVE",
"597.5 478 CURVE SMOOTH",
"555.5 522 OFFCURVE",
"505.667 560.833 OFFCURVE",
"447 585.5 CURVE SMOOTH",
"417.667 597.833 OFFCURVE",
"384.667 604 OFFCURVE",
"348 604 CURVE SMOOTH",
"253.333 604 OFFCURVE",
"181.833 566.833 OFFCURVE",
"134.5 503.5 CURVE SMOOTH",
"87.167 440.167 OFFCURVE",
"63.333 352.333 OFFCURVE",
"66 251 CURVE",
"226 251 LINE",
"226 385.667 OFFCURVE",
"263.333 446 OFFCURVE",
"342 446 CURVE SMOOTH",
"387.333 446 OFFCURVE",
"425.833 418.333 OFFCURVE",
"466.5 381 CURVE SMOOTH",
"486.833 362.333 OFFCURVE",
"507.5 342 OFFCURVE",
"528.5 320 CURVE SMOOTH",
"570.5 276 OFFCURVE",
"620.333 237.167 OFFCURVE",
"679 212.5 CURVE SMOOTH",
"708.333 200.167 OFFCURVE",
"741.333 194 OFFCURVE",
"778 194 CURVE SMOOTH",
"872.667 194 OFFCURVE",
"944 231.333 OFFCURVE",
"992 294 CURVE SMOOTH",
"1040 356.667 OFFCURVE",
"1062.333 444.667 OFFCURVE",
"1061 546 CURVE",
"901 546 LINE"
);
}
);
width = 1126;
}
);
note = asciitilde;
unicode = 007E;
},
{
glyphname = quotedblleft;
lastChange = "2020-10-13 12:04:57 +0000";
layers = (
{
layerId = "6D6001D6-F15D-4D59-841D-B4ABFE65A828";
paths = (
{
closed = 1;
nodes = (
"132 1690.333 OFFCURVE",
"99.667 1596 OFFCURVE",
"101 1508 CURVE SMOOTH",
"101.667 1482.667 OFFCURVE",
"104.667 1461.333 OFFCURVE",
"110 1444 CURVE SMOOTH",
"134.882 1363.613 OFFCURVE",
"209.042 1337.512 OFFCURVE",
"261.5 1410 CURVE SMOOTH",
"298.167 1460.667 OFFCURVE",
"299.5 1546.833 OFFCURVE",
"269.5 1579.5 CURVE SMOOTH",
"202.487 1652.469 OFFCURVE",
"148.203 1580.805 OFFCURVE",
"209 1691 CURVE SMOOTH",
"250.832 1761.793 OFFCURVE",
"274.22 1828.554 OFFCURVE",
"212 1773 CURVE"
);
},
{
closed = 1;
nodes = (
"398 1697.333 OFFCURVE",
"365.667 1603 OFFCURVE",
"367 1515 CURVE SMOOTH",
"367.667 1489.667 OFFCURVE",
"370.667 1468.333 OFFCURVE",
"376 1451 CURVE SMOOTH",
"400.882 1370.613 OFFCURVE",
"475.042 1344.512 OFFCURVE",
"527.5 1417 CURVE SMOOTH",
"564.167 1467.667 OFFCURVE",
"565.5 1553.833 OFFCURVE",
"535.5 1586.5 CURVE SMOOTH",
"468.487 1659.469 OFFCURVE",
"414.203 1587.805 OFFCURVE",
"475 1698 CURVE SMOOTH",
"516.832 1768.793 OFFCURVE",
"540.22 1835.554 OFFCURVE",
"478 1780 CURVE"
);
}
);
width = 658;
}
);
note = quotedblleft;
unicode = 201C;
},
{
glyphname = quotedblright;
lastChange = "2020-10-13 12:04:57 +0000";
layers = (
{
layerId = "6D6001D6-F15D-4D59-841D-B4ABFE65A828";
paths = (
{
closed = 1;
nodes = (
"261 1503.667 OFFCURVE",
"292.333 1598 OFFCURVE",
"291 1686 CURVE SMOOTH",
"290.333 1711.333 OFFCURVE",
"287.333 1733 OFFCURVE",
"282 1751 CURVE SMOOTH",
"259.363 1830.228 OFFCURVE",
"183.16 1856.385 OFFCURVE",
"131.5 1785 CURVE SMOOTH",
"94.833 1734.333 OFFCURVE",
"92.333 1648.333 OFFCURVE",
"123 1615 CURVE SMOOTH",
"191.763 1540.258 OFFCURVE",
"242.782 1613.726 OFFCURVE",
"184 1504 CURVE SMOOTH",
"142.391 1433.586 OFFCURVE",
"117.008 1368.041 OFFCURVE",
"181 1421 CURVE"
);
},
{
closed = 1;
nodes = (
"527 1510.667 OFFCURVE",
"558.333 1605 OFFCURVE",
"557 1693 CURVE SMOOTH",
"556.333 1718.333 OFFCURVE",
"553.333 1740 OFFCURVE",
"548 1758 CURVE SMOOTH",
"525.363 1837.228 OFFCURVE",
"449.16 1863.385 OFFCURVE",
"397.5 1792 CURVE SMOOTH",
"360.833 1741.333 OFFCURVE",
"358.333 1655.333 OFFCURVE",
"389 1622 CURVE SMOOTH",
"457.763 1547.258 OFFCURVE",
"508.782 1620.726 OFFCURVE",
"450 1511 CURVE SMOOTH",
"408.391 1440.586 OFFCURVE",
"383.008 1375.041 OFFCURVE",
"447 1428 CURVE"
);
}
);
width = 658;
}
);
note = quotedblright;
unicode = 201D;
},
{
glyphname = arabicquestion;
lastChange = "2020-10-13 12:04:57 +0000";
layers = (
{
layerId = "6D6001D6-F15D-4D59-841D-B4ABFE65A828";
paths = (
{
closed = 1;
nodes = (
"602 876 OFFCURVE",
"567.333 912 OFFCURVE",
"498 912 CURVE SMOOTH",
"410.667 912 OFFCURVE",
"336.667 859.333 OFFCURVE",
"276 754 CURVE SMOOTH",
"225.333 668 OFFCURVE",
"200 592.667 OFFCURVE",
"200 528 CURVE SMOOTH",
"200 479.333 OFFCURVE",
"219.667 449 OFFCURVE",
"259 437 CURVE",
"265 434.333 OFFCURVE",
"305.333 431.333 OFFCURVE",
"380 428 CURVE SMOOTH",
"428.667 425.333 OFFCURVE",
"459.667 411 OFFCURVE",
"473 385 CURVE SMOOTH",
"480.333 371 OFFCURVE",
"484 353.667 OFFCURVE",
"484 333 CURVE SMOOTH",
"484 319 OFFCURVE",
"480.333 299.167 OFFCURVE",
"473 273.5 CURVE SMOOTH",
"465.667 247.833 OFFCURVE",
"462 229.333 OFFCURVE",
"462 218 CURVE SMOOTH",
"462 206.667 OFFCURVE",
"468.333 201 OFFCURVE",
"481 201 CURVE SMOOTH",
"493 201 OFFCURVE",
"501.333 204.667 OFFCURVE",
"506 212 CURVE SMOOTH",
"542 262.667 OFFCURVE",
"565.667 316.667 OFFCURVE",
"577 374 CURVE SMOOTH",
"580.333 392 OFFCURVE",
"582 408.667 OFFCURVE",
"582 424 CURVE SMOOTH",
"582 479.333 OFFCURVE",
"561 527.333 OFFCURVE",
"519 568 CURVE SMOOTH",
"505.667 580 OFFCURVE",
"462 587 OFFCURVE",
"388 589 CURVE SMOOTH",
"324.667 590.333 OFFCURVE",
"293 601 OFFCURVE",
"293 621 CURVE SMOOTH",
"293 645.667 OFFCURVE",
"309.667 675.667 OFFCURVE",
"343 711 CURVE SMOOTH",
"379 747 OFFCURVE",
"413.333 765 OFFCURVE",
"446 765 CURVE SMOOTH",
"468.667 765 OFFCURVE",
"482 750.833 OFFCURVE",
"486 722.5 CURVE SMOOTH",
"490 694.167 OFFCURVE",
"500 680 OFFCURVE",
"516 680 CURVE SMOOTH",
"552 680 OFFCURVE",
"602 746.667 OFFCURVE",
"602 804 CURVE SMOOTH"
);
},
{
closed = 1;
nodes = (
"536 7.333 OFFCURVE",
"468.667 105 OFFCURVE",
"454 105 CURVE SMOOTH",
"443.333 105 OFFCURVE",
"369 -23.333 OFFCURVE",
"369 -42 CURVE SMOOTH",
"369 -51.333 OFFCURVE",
"380 -71 OFFCURVE",
"402 -101 CURVE SMOOTH",
"424.667 -132.333 OFFCURVE",
"442 -148 OFFCURVE",
"454 -148 CURVE SMOOTH",
"465.333 -148 OFFCURVE",
"481.667 -127 OFFCURVE",
"503 -85 CURVE SMOOTH",
"525 -45 OFFCURVE",
"536 -20 OFFCURVE",
"536 -10 CURVE SMOOTH"
);
}
);
width = 802;
}
);
note = arabicquestion;
unicode = 061F;
},
{
glyphname = alefwithmaddaabove;
lastChange = "2020-10-13 12:04:57 +0000";
layers = (
{
layerId = "6D6001D6-F15D-4D59-841D-B4ABFE65A828";
paths = (
{
closed = 1;
nodes = (
"404 60 OFFCURVE",
"425.667 169.667 OFFCURVE",
"427 231 CURVE SMOOTH",
"433.667 345 OFFCURVE",
"437 419.667 OFFCURVE",
"437 455 CURVE SMOOTH",
"437 701 LINE",
"443.173 765.817 OFFCURVE",
"454.302 812.117 OFFCURVE",
"455.5 820.5 CURVE SMOOTH",
"456.167 825.167 OFFCURVE",
"452.667 844.333 OFFCURVE",
"442 839 CURVE",
"384.667 705.667 OFFCURVE",
"345.167 577.833 OFFCURVE",
"336.5 514.5 CURVE SMOOTH",
"332.167 482.833 OFFCURVE",
"329 447.333 OFFCURVE",
"327 408 CURVE SMOOTH",
"318.5 218 LINE SMOOTH",
"311.167 43.333 OFFCURVE",
"305.667 5 OFFCURVE",
"291 -67 CURVE SMOOTH",
"283.667 -103 OFFCURVE",
"276 -136.333 OFFCURVE",
"268 -167 CURVE",
"289.333 -171 OFFCURVE",
"322.667 -122 OFFCURVE",
"368 -20 CURVE SMOOTH"
);
},
{
closed = 1;
nodes = (
"917.275 1406.705 OFFCURVE",
"896.82 1389.138 OFFCURVE",
"871.5 1354 CURVE SMOOTH",
"855.167 1331.333 OFFCURVE",
"831.167 1305.5 OFFCURVE",
"799.5 1276.5 CURVE SMOOTH",
"736.167 1218.5 OFFCURVE",
"681.667 1194.667 OFFCURVE",
"615 1192 CURVE SMOOTH",
"532.112 1188.684 OFFCURVE",
"566.407 1235 OFFCURVE",
"495 1235 CURVE SMOOTH",
"493 1235 LINE SMOOTH",
"385 1224.333 OFFCURVE",
"285 1149.333 OFFCURVE",
"193 1010 CURVE SMOOTH",
"141 925.333 OFFCURVE",
"114.667 870.667 OFFCURVE",
"114 846 CURVE",
"116.479 848.479 OFFCURVE",
"147.373 853.326 OFFCURVE",
"162 871 CURVE SMOOTH",
"178 890.333 OFFCURVE",
"194 906.167 OFFCURVE",
"210 918.5 CURVE SMOOTH",
"254.633 952.905 OFFCURVE",
"323.59 992 OFFCURVE",
"368 992 CURVE SMOOTH",
"377.084 992 OFFCURVE",
"405.646 976.162 OFFCURVE",
"431.5 963 CURVE SMOOTH",
"468.167 944.333 OFFCURVE",
"548.167 942 OFFCURVE",
"627.5 978 CURVE SMOOTH",
"706.833 1014 OFFCURVE",
"803.333 1116 OFFCURVE",
"862 1228 CURVE SMOOTH",
"891.333 1284 OFFCURVE",
"909.333 1326.667 OFFCURVE",
"916 1356 CURVE SMOOTH",
"919.333 1368 OFFCURVE",
"920.333 1378 OFFCURVE",
"919 1386 CURVE SMOOTH"
);
}
);
width = 764;
}
);
note = alefwithmaddaabove;
unicode = 0622;
},
{
glyphname = arabicpercent;
lastChange = "2020-10-13 12:04:57 +0000";
layers = (
{
layerId = "6D6001D6-F15D-4D59-841D-B4ABFE65A828";
paths = (
{
closed = 1;
nodes = (
"254 -172 LINE",
"366 -172 LINE",
"1305 1537 LINE",
"1201 1537 LINE"
);
},
{
closed = 1;
nodes = (
"528 963.667 OFFCURVE",
"538 997.667 OFFCURVE",
"538 1041 CURVE SMOOTH",
"538 1151.615 OFFCURVE",
"465.341 1239.746 OFFCURVE",
"355 1245 CURVE SMOOTH",
"347 1245 LINE SMOOTH",
"244.967 1245 OFFCURVE",
"177 1161.988 OFFCURVE",
"177 1060 CURVE SMOOTH",
"177 950.861 OFFCURVE",
"257.186 863 OFFCURVE",
"355 863 CURVE SMOOTH",
"418.333 863 OFFCURVE",
"469.333 888.333 OFFCURVE",
"508 939 CURVE SMOOTH"
);
},
{
closed = 1;
nodes = (
"1329 121.667 OFFCURVE",
"1338 154.667 OFFCURVE",
"1338 192 CURVE SMOOTH",
"1338 296.771 OFFCURVE",
"1261.266 378 OFFCURVE",
"1153 378 CURVE SMOOTH",
"1053.618 378 OFFCURVE",
"984 279.627 OFFCURVE",
"984 175 CURVE SMOOTH",
"984 67.36 OFFCURVE",
"1075.463 14 OFFCURVE",
"1163 14 CURVE SMOOTH",
"1229 14 OFFCURVE",
"1278.333 40.333 OFFCURVE",
"1311 93 CURVE SMOOTH"
);
}
);
userData = {
assembly = "PUSHW[ ]	/* 1 value pushed */\01243 \012MDAP[1]	/* MoveDirectAbsPt */\012PUSHW[ ]	/* 1 value pushed */\01244 \012MDAP[1]	/* MoveDirectAbsPt */\012PUSHW[ ]	/* 1 value pushed */\01241 \012MDRP[11100]	/* MoveDirectRelPt */\012PUSHW[ ]	/* 1 value pushed */\01231 \012MDRP[11100]	/* MoveDirectRelPt */\012NPUSHW[ ]	/* 5 values pushed */\012218 31 234 31 2 \012DELTAP1[ ]	/* DeltaExceptionP1 */\012NPUSHW[ ]	/* 27 values pushed */\0129 31 25 31 41 31 57 31 73 31 89 31 105 31 121 31 137 31 153 31 169 31 185 31 201 31 13 \012DELTAP1[ ]	/* DeltaExceptionP1 */\012PUSHW[ ]	/* 3 values pushed */\0120 41 31 \012SRP1[ ]	/* SetRefPoint1 */\012SRP2[ ]	/* SetRefPoint2 */\012IP[ ]	/* InterpolatePts */\012PUSHW[ ]	/* 1 value pushed */\01243 \012SRP0[ ]	/* SetRefPoint0 */\012PUSHW[ ]	/* 1 value pushed */\01211 \012MDRP[10000]	/* MoveDirectRelPt */\012PUSHW[ ]	/* 1 value pushed */\01211 \012MDAP[1]	/* MoveDirectAbsPt */\012PUSHW[ ]	/* 1 value pushed */\01222 \012MDRP[11100]	/* MoveDirectRelPt */\012NPUSHW[ ]	/* 27 values pushed */\0126 22 22 22 38 22 54 22 70 22 86 22 102 22 118 22 134 22 150 22 166 22 182 22 198 22 13 \012DELTAP1[ ]	/* DeltaExceptionP1 */\012NPUSHW[ ]	/* 5 values pushed */\012213 22 229 22 2 \012DELTAP1[ ]	/* DeltaExceptionP1 */\012PUSHW[ ]	/* 3 values pushed */\0122 11 22 \012SRP1[ ]	/* SetRefPoint1 */\012SRP2[ ]	/* SetRefPoint2 */\012IP[ ]	/* InterpolatePts */\012SVTCA[0]	/* SetFreedomAndProjectionVectorToAxis */\012PUSHW[ ]	/* 1 value pushed */\0120 \012MDAP[1]	/* MoveDirectAbsPt */\012PUSHW[ ]	/* 1 value pushed */\0121 \012MDAP[1]	/* MoveDirectAbsPt */\012PUSHW[ ]	/* 3 values pushed */\01236 26 3 \012CALL[ ]	/* CallFunction */\012PUSHW[ ]	/* 1 value pushed */\01236 \012SRP0[ ]	/* SetRefPoint0 */\012PUSHW[ ]	/* 3 values pushed */\01217 6 3 \012CALL[ ]	/* CallFunction */\012PUSHW[ ]	/* 1 value pushed */\01217 \012SRP0[ ]	/* SetRefPoint0 */\012IUP[0]	/* InterpolateUntPts */\012IUP[1]	/* InterpolateUntPts */";
};
width = 1617;
}
);
note = arabicpercent;
unicode = 066A;
},
{
glyphname = urdu0;
lastChange = "2020-10-13 12:04:57 +0000";
layers = (
{
layerId = "6D6001D6-F15D-4D59-841D-B4ABFE65A828";
paths = (
{
closed = 1;
nodes = (
"359 591 OFFCURVE",
"353 595.667 OFFCURVE",
"349 597 CURVE",
"341.667 597.667 OFFCURVE",
"334 594.333 OFFCURVE",
"326 587 CURVE SMOOTH",
"292.276 553.276 OFFCURVE",
"175.864 421.542 OFFCURVE",
"186 381 CURVE",
"186 367.73 OFFCURVE",
"311.681 284.074 OFFCURVE",
"339 267 CURVE",
"392.333 265.667 OFFCURVE",
"499.167 418.167 OFFCURVE",
"498.5 453.5 CURVE SMOOTH",
"497.833 488.833 OFFCURVE",
"488 488.333 OFFCURVE",
"468 503 CURVE SMOOTH",
"445.596 519.429 OFFCURVE",
"389.99 558.8 OFFCURVE",
"367 583 CURVE SMOOTH"
);
}
);
width = 724;
}
);
note = urdu0;
unicode = 06F0;
},
{
glyphname = urdu1;
lastChange = "2020-10-13 12:04:57 +0000";
layers = (
{
layerId = "6D6001D6-F15D-4D59-841D-B4ABFE65A828";
paths = (
{
closed = 1;
nodes = (
"374.333 1037.667 OFFCURVE",
"373.333 1061.833 OFFCURVE",
"370 1065.5 CURVE SMOOTH",
"366.667 1069.167 OFFCURVE",
"360 1059 OFFCURVE",
"350 1035 CURVE SMOOTH",
"305 918 LINE SMOOTH",
"289 876.667 OFFCURVE",
"279 837.333 OFFCURVE",
"275 800 CURVE",
"275 287 LINE",
"264 142 LINE",
"250.207 89.126 OFFCURVE",
"270.87 127.739 OFFCURVE",
"301 188 CURVE",
"349 301.333 OFFCURVE",
"373 422 OFFCURVE",
"373 550 CURVE SMOOTH",
"373 993 LINE SMOOTH"
);
}
);
width = 719;
}
);
note = urdu1;
unicode = 06F1;
},
{
glyphname = urdu2;
lastChange = "2020-10-13 12:04:57 +0000";
layers = (
{
layerId = "6D6001D6-F15D-4D59-841D-B4ABFE65A828";
paths = (
{
closed = 1;
nodes = (
"298 517.333 OFFCURVE",
"297.167 538.333 OFFCURVE",
"295.5 559 CURVE SMOOTH",
"293.833 579.667 OFFCURVE",
"293 600.667 OFFCURVE",
"293 622 CURVE",
"478.56 589.402 OFFCURVE",
"546.124 792.447 OFFCURVE",
"572 938 CURVE SMOOTH",
"582.714 995.855 OFFCURVE",
"555.789 963.782 OFFCURVE",
"519 904 CURVE",
"485.667 858.667 OFFCURVE",
"409.333 837.333 OFFCURVE",
"340 856 CURVE SMOOTH",
"284 868 OFFCURVE",
"244.667 908 OFFCURVE",
"238 976 CURVE",
"213.761 988.119 OFFCURVE",
"180 796.368 OFFCURVE",
"180 776 CURVE",
"204 465 LINE SMOOTH",
"214.667 330.333 OFFCURVE",
"200.667 178 OFFCURVE",
"186 42 CURVE SMOOTH",
"186 38.667 OFFCURVE",
"185.5 34.667 OFFCURVE",
"184.5 30 CURVE SMOOTH",
"183.5 25.333 OFFCURVE",
"183 21.667 OFFCURVE",
"183 19 CURVE SMOOTH",
"183 12.333 OFFCURVE",
"187.667 7 OFFCURVE",
"197 19 CURVE",
"269 167 OFFCURVE",
"298 332 OFFCURVE",
"298 496 CURVE SMOOTH"
);
}
);
width = 719;
}
);
note = urdu2;
unicode = 06F2;
},
{
glyphname = urdu3;
lastChange = "2020-10-13 12:04:57 +0000";
layers = (
{
layerId = "6D6001D6-F15D-4D59-841D-B4ABFE65A828";
paths = (
{
closed = 1;
nodes = (
"192 445.333 OFFCURVE",
"191.167 477.167 OFFCURVE",
"189.5 509.5 CURVE SMOOTH",
"187.833 541.833 OFFCURVE",
"187 573.667 OFFCURVE",
"187 605 CURVE",
"275.253 605 OFFCURVE",
"307.141 625.211 OFFCURVE",
"357 700 CURVE",
"380.355 629.935 OFFCURVE",
"459.654 617.704 OFFCURVE",
"523 648 CURVE SMOOTH",
"599.191 687.409 OFFCURVE",
"697 879.423 OFFCURVE",
"697 958 CURVE SMOOTH",
"697 964.667 OFFCURVE",
"696.667 976 OFFCURVE",
"686 976 CURVE SMOOTH",
"683.221 976 OFFCURVE",
"636.053 901.93 OFFCURVE",
"631 898 CURVE SMOOTH",
"608.333 880.667 OFFCURVE",
"571.667 866 OFFCURVE",
"545 866 CURVE SMOOTH",
"516.11 866 OFFCURVE",
"458 874.122 OFFCURVE",
"458 908 CURVE",
"454.287 933.994 OFFCURVE",
"478.512 967 OFFCURVE",
"457 967 CURVE SMOOTH",
"440.813 967 OFFCURVE",
"423.904 917.904 OFFCURVE",
"410 904 CURVE",
"374 860 OFFCURVE",
"341.667 837 OFFCURVE",
"287 837 CURVE SMOOTH",
"197.667 837 OFFCURVE",
"153.667 872.333 OFFCURVE",
"139 963 CURVE",
"137 963 LINE SMOOTH",
"104.402 963 OFFCURVE",
"74 775.752 OFFCURVE",
"74 761 CURVE SMOOTH",
"74 742 LINE",
"104.667 514 OFFCURVE",
"128.667 284 OFFCURVE",
"106 56 CURVE",
"102 33.333 OFFCURVE",
"100 18 OFFCURVE",
"100 10 CURVE SMOOTH",
"100 -18.544 OFFCURVE",
"115.283 12.136 OFFCURVE",
"129 43 CURVE SMOOTH",
"187.225 176.086 OFFCURVE",
"192 260.354 OFFCURVE",
"192 414 CURVE SMOOTH"
);
}
);
width = 719;
}
);
note = urdu3;
unicode = 06F3;
},
{
glyphname = urdu4;
lastChange = "2020-10-13 12:04:57 +0000";
layers = (
{
layerId = "6D6001D6-F15D-4D59-841D-B4ABFE65A828";
paths = (
{
closed = 1;
nodes = (
"103.425 678.548 OFFCURVE",
"94 627.607 OFFCURVE",
"94 622 CURVE SMOOTH",
"86 543.333 OFFCURVE",
"93.167 468.5 OFFCURVE",
"100.5 378.5 CURVE SMOOTH",
"107.833 288.5 OFFCURVE",
"117 184.333 OFFCURVE",
"117 51 CURVE",
"109.287 -20.992 OFFCURVE",
"129.311 -4.1 OFFCURVE",
"146 71 CURVE",
"170 153.667 OFFCURVE",
"179 235 OFFCURVE",
"179 323 CURVE SMOOTH",
"179 375.667 OFFCURVE",
"175.667 427.667 OFFCURVE",
"169 479 CURVE SMOOTH",
"162.333 530.333 OFFCURVE",
"157.333 582 OFFCURVE",
"154 634 CURVE SMOOTH",
"151.369 673.463 OFFCURVE",
"233.897 699 OFFCURVE",
"269 699 CURVE SMOOTH",
"321 699 OFFCURVE",
"363 663 OFFCURVE",
"383 619 CURVE SMOOTH",
"383.636 617.474 OFFCURVE",
"413.424 493 OFFCURVE",
"413 493 CURVE SMOOTH",
"420 493 LINE",
"481.333 662.333 OFFCURVE",
"560.333 792 OFFCURVE",
"703 904 CURVE",
"713.667 953.333 OFFCURVE",
"727 1020.667 OFFCURVE",
"727 1070 CURVE",
"608.854 1017.211 OFFCURVE",
"522.191 881.874 OFFCURVE",
"472 763 CURVE",
"463.94 854.343 OFFCURVE",
"399.824 936 OFFCURVE",
"306 936 CURVE SMOOTH",
"180.064 936 OFFCURVE",
"129.222 807.205 OFFCURVE",
"106 694 CURVE SMOOTH"
);
}
);
width = 719;
}
);
note = urdu4;
unicode = 06F4;
},
{
glyphname = urdu5;
lastChange = "2020-10-13 12:04:57 +0000";
layers = (
{
layerId = "6D6001D6-F15D-4D59-841D-B4ABFE65A828";
paths = (
{
closed = 1;
nodes = (
"133 421.077 OFFCURVE",
"272.581 656.036 OFFCURVE",
"330 749 CURVE",
"370.989 737.289 OFFCURVE",
"453.409 613.409 OFFCURVE",
"480 575 CURVE SMOOTH",
"527.795 503.308 OFFCURVE",
"583.849 388.328 OFFCURVE",
"581 300 CURVE",
"565 277.333 OFFCURVE",
"522.667 276 OFFCURVE",
"500 276 CURVE SMOOTH",
"431.437 276 OFFCURVE",
"403.813 394 OFFCURVE",
"389 394 CURVE",
"359.667 323.333 OFFCURVE",
"336.833 288.333 OFFCURVE",
"297.5 255 CURVE SMOOTH",
"277.833 238.333 OFFCURVE",
"255.333 231 OFFCURVE",
"230 233 CURVE SMOOTH",
"180.667 237 OFFCURVE",
"133 272.667 OFFCURVE",
"133 326 CURVE SMOOTH"
);
},
{
closed = 1;
nodes = (
"42 93.642 OFFCURVE",
"78.428 5 OFFCURVE",
"168 5 CURVE SMOOTH",
"252.441 5 OFFCURVE",
"292.496 85.993 OFFCURVE",
"327 155 CURVE",
"340.333 91 OFFCURVE",
"379.667 40 OFFCURVE",
"445 40 CURVE SMOOTH",
"498.333 40 OFFCURVE",
"538.667 76 OFFCURVE",
"572 128 CURVE SMOOTH",
"588.667 154 OFFCURVE",
"603.5 182.833 OFFCURVE",
"616.5 214.5 CURVE SMOOTH",
"642.5 277.833 OFFCURVE",
"657 344.667 OFFCURVE",
"665 402 CURVE SMOOTH",
"669 430.667 OFFCURVE",
"671 455 OFFCURVE",
"671 475 CURVE SMOOTH",
"671 564.333 OFFCURVE",
"636 652.833 OFFCURVE",
"588 733.5 CURVE SMOOTH",
"540 814.167 OFFCURVE",
"475.333 887.333 OFFCURVE",
"418 946 CURVE",
"407.333 955.333 OFFCURVE",
"380.667 978 OFFCURVE",
"370 978 CURVE",
"309 805 LINE",
"198.333 622.333 OFFCURVE",
"131.667 498.667 OFFCURVE",
"93 404 CURVE SMOOTH",
"54.333 309.333 OFFCURVE",
"42 243.667 OFFCURVE",
"42 181 CURVE SMOOTH"
);
}
);
width = 719;
}
);
note = urdu5;
unicode = 06F5;
},
{
glyphname = urdu6;
lastChange = "2020-10-13 12:04:57 +0000";
layers = (
{
layerId = "6D6001D6-F15D-4D59-841D-B4ABFE65A828";
paths = (
{
closed = 1;
nodes = (
"479 510.667 OFFCURVE",
"479.667 415.667 OFFCURVE",
"477 321 CURVE SMOOTH",
"474.837 244.215 OFFCURVE",
"469.919 112.755 OFFCURVE",
"471 36 CURVE",
"464.29 -22.156 OFFCURVE",
"477.848 -16.405 OFFCURVE",
"499 40 CURVE SMOOTH",
"529.667 120 OFFCURVE",
"543 204.5 OFFCURVE",
"551 290.5 CURVE SMOOTH",
"557.486 360.221 OFFCURVE",
"559.738 479.869 OFFCURVE",
"564 547 CURVE SMOOTH",
"564.667 605.667 OFFCURVE",
"565.833 662.667 OFFCURVE",
"567.5 718 CURVE SMOOTH",
"569.167 773.333 OFFCURVE",
"570.333 830.333 OFFCURVE",
"571 889 CURVE",
"577.667 974.333 OFFCURVE",
"568.667 989.333 OFFCURVE",
"542 916 CURVE SMOOTH",
"512.667 846.667 OFFCURVE",
"467.333 793 OFFCURVE",
"378 793 CURVE SMOOTH",
"280.667 793 OFFCURVE",
"210.5 861 OFFCURVE",
"208.5 901 CURVE SMOOTH",
"207.5 921 OFFCURVE",
"206.5 931.667 OFFCURVE",
"205.5 933 CURVE SMOOTH",
"198.883 941.823 OFFCURVE",
"190.428 932.202 OFFCURVE",
"181 912 CURVE",
"167.964 865.07 OFFCURVE",
"157 780.351 OFFCURVE",
"157 760 CURVE SMOOTH",
"149.147 581.991 OFFCURVE",
"320.385 508.972 OFFCURVE",
"467 604 CURVE"
);
}
);
width = 719;
}
);
note = urdu6;
unicode = 06F6;
},
{
glyphname = urdu7;
lastChange = "2020-10-13 12:04:57 +0000";
layers = (
{
layerId = "6D6001D6-F15D-4D59-841D-B4ABFE65A828";
paths = (
{
closed = 1;
nodes = (
"333 579 OFFCURVE",
"424.667 703 OFFCURVE",
"492 797 CURVE",
"507.186 804.593 OFFCURVE",
"545.12 896.221 OFFCURVE",
"557 918 CURVE SMOOTH",
"573 942 OFFCURVE",
"567.333 943 OFFCURVE",
"546 927 CURVE",
"371.333 769.667 OFFCURVE",
"208.667 527.333 OFFCURVE",
"98 330 CURVE SMOOTH",
"83.333 303.333 OFFCURVE",
"74 272.667 OFFCURVE",
"74 242 CURVE",
"87.824 220.496 OFFCURVE",
"142.893 172.44 OFFCURVE",
"205 130 CURVE SMOOTH",
"285 75.333 OFFCURVE",
"460.333 5.333 OFFCURVE",
"479 4 CURVE",
"525.387 22.555 OFFCURVE",
"620.276 137.379 OFFCURVE",
"631 191 CURVE",
"557 236.333 OFFCURVE",
"485.167 272.333 OFFCURVE",
"415.5 299 CURVE SMOOTH",
"345.833 325.667 OFFCURVE",
"279.667 367.667 OFFCURVE",
"217 425 CURVE"
);
}
);
width = 719;
}
);
note = urdu7;
unicode = 06F7;
},
{
glyphname = urdu8;
lastChange = "2020-10-13 12:04:57 +0000";
layers = (
{
layerId = "6D6001D6-F15D-4D59-841D-B4ABFE65A828";
paths = (
{
closed = 1;
nodes = (
"362.667 489 OFFCURVE",
"405.833 393.167 OFFCURVE",
"446.5 296.5 CURVE SMOOTH",
"487.167 199.833 OFFCURVE",
"528 101.667 OFFCURVE",
"576 7 CURVE",
"621.121 68.745 OFFCURVE",
"663.394 131.901 OFFCURVE",
"696 191 CURVE",
"636 345.667 OFFCURVE",
"560.333 505.667 OFFCURVE",
"487 655 CURVE",
"443.378 728.02 OFFCURVE",
"393.536 809.863 OFFCURVE",
"380.5 828 CURVE SMOOTH",
"369.851 842.815 OFFCURVE",
"368.339 846.803 OFFCURVE",
"357 840 CURVE",
"346.333 818 OFFCURVE",
"336.333 795.167 OFFCURVE",
"327 771.5 CURVE SMOOTH",
"317.667 747.833 OFFCURVE",
"306.667 723.667 OFFCURVE",
"294 699 CURVE",
"246.667 582.333 OFFCURVE",
"199 467.5 OFFCURVE",
"151 354.5 CURVE SMOOTH",
"103 241.5 OFFCURVE",
"55.667 126.333 OFFCURVE",
"9 9 CURVE",
"-13.497 -67.49 OFFCURVE",
"63.083 30.248 OFFCURVE",
"79 78 CURVE",
"125.667 158.667 OFFCURVE",
"166 241.833 OFFCURVE",
"200 327.5 CURVE SMOOTH",
"234 413.167 OFFCURVE",
"270 497.667 OFFCURVE",
"308 581 CURVE"
);
}
);
width = 719;
}
);
note = urdu8;
unicode = 06F8;
},
{
glyphname = urdu9;
lastChange = "2020-10-13 12:04:57 +0000";
layers = (
{
layerId = "6D6001D6-F15D-4D59-841D-B4ABFE65A828";
paths = (
{
closed = 1;
nodes = (
"195 734.564 OFFCURVE",
"238.22 795 OFFCURVE",
"292 795 CURVE SMOOTH",
"373.237 795 OFFCURVE",
"434 703.864 OFFCURVE",
"434 624 CURVE",
"431.612 588.18 OFFCURVE",
"376.901 580 OFFCURVE",
"345 580 CURVE SMOOTH",
"281.758 580 OFFCURVE",
"195 613.648 OFFCURVE",
"195 682 CURVE SMOOTH"
);
},
{
closed = 1;
nodes = (
"177.797 806.421 OFFCURVE",
"124.806 663.445 OFFCURVE",
"108 529 CURVE SMOOTH",
"108 528 LINE SMOOTH",
"113.249 352.171 OFFCURVE",
"324.647 302.971 OFFCURVE",
"418 443 CURVE",
"418 425.231 OFFCURVE",
"423 336.478 OFFCURVE",
"423 320 CURVE SMOOTH",
"423 216 OFFCURVE",
"415.667 132.333 OFFCURVE",
"405 47 CURVE SMOOTH",
"397.667 5 OFFCURVE",
"400.667 -2.667 OFFCURVE",
"414 24 CURVE SMOOTH",
"427.333 50.667 OFFCURVE",
"447.333 104.667 OFFCURVE",
"474 186 CURVE",
"519.333 359.333 OFFCURVE",
"531 548.333 OFFCURVE",
"531 731 CURVE SMOOTH",
"531 792.333 OFFCURVE",
"516.5 859.667 OFFCURVE",
"490.5 913 CURVE SMOOTH",
"477.5 939.667 OFFCURVE",
"462 962.167 OFFCURVE",
"444 980.5 CURVE SMOOTH",
"408 1017.167 OFFCURVE",
"364.167 1027.5 OFFCURVE",
"315.5 1001.5 CURVE SMOOTH",
"291.167 988.5 OFFCURVE",
"266 964 OFFCURVE",
"240 928 CURVE"
);
}
);
width = 719;
}
);
note = urdu9;
unicode = 06F9;
},
{
glyphname = arabicfullstop;
lastChange = "2020-10-13 12:04:57 +0000";
layers = (
{
layerId = "6D6001D6-F15D-4D59-841D-B4ABFE65A828";
paths = (
{
closed = 1;
nodes = (
"751 63 OFFCURVE",
"743.667 74 OFFCURVE",
"729 74 CURVE",
"613.605 58.707 OFFCURVE",
"424.862 26.287 OFFCURVE",
"332 25.5 CURVE SMOOTH",
"200 25 LINE",
"203 -22 LINE",
"246.333 -47.333 OFFCURVE",
"309.667 -74.667 OFFCURVE",
"393 -104 CURVE SMOOTH",
"434.929 -118.413 OFFCURVE",
"491.476 -138.786 OFFCURVE",
"514.5 -142.5 CURVE SMOOTH",
"535.167 -145.833 OFFCURVE",
"563 -148 OFFCURVE",
"603 -148 CURVE SMOOTH",
"533 -148 LINE SMOOTH",
"578.333 -148 OFFCURVE",
"603.667 -147 OFFCURVE",
"609 -145 CURVE",
"701.807 -97.407 OFFCURVE",
"742.585 -9.489 OFFCURVE",
"751 41 CURVE"
);
}
);
width = 951;
}
);
note = arabicfullstop;
unicode = 06D4;
},
{
glyphname = uni0614;
lastChange = "2020-10-13 12:04:57 +0000";
layers = (
{
anchors = (
{
name = _bottom2;
position = "{0, 0}";
}
);
layerId = "6D6001D6-F15D-4D59-841D-B4ABFE65A828";
paths = (
{
closed = 1;
nodes = (
"166 1480.667 OFFCURVE",
"96.833 1464.833 OFFCURVE",
"24.5 1462.5 CURVE SMOOTH",
"-47.833 1460.167 OFFCURVE",
"-118.667 1457 OFFCURVE",
"-188 1453 CURVE SMOOTH",
"-208 1453 OFFCURVE",
"-214 1432.667 OFFCURVE",
"-186 1426 CURVE",
"-132.667 1399.333 OFFCURVE",
"-66.667 1392.667 OFFCURVE",
"-8 1390 CURVE",
"128 1395.333 OFFCURVE",
"234.333 1418.667 OFFCURVE",
"329 1508 CURVE",
"370.333 1540 OFFCURVE",
"402 1566.333 OFFCURVE",
"450 1573 CURVE",
"470.34 1571.983 OFFCURVE",
"509.019 1554 OFFCURVE",
"520 1554 CURVE",
"555.66 1543.028 OFFCURVE",
"614.05 1651.446 OFFCURVE",
"632 1721 CURVE",
"632.667 1731.667 OFFCURVE",
"630.667 1737 OFFCURVE",
"626 1737 CURVE SMOOTH",
"624.667 1737 OFFCURVE",
"622.333 1735.333 OFFCURVE",
"619 1732 CURVE SMOOTH",
"610.333 1722 OFFCURVE",
"601.833 1707.333 OFFCURVE",
"593.5 1688 CURVE SMOOTH",
"585.167 1668.667 OFFCURVE",
"573.667 1657.333 OFFCURVE",
"559 1654 CURVE",
"548.333 1658.667 OFFCURVE",
"539.5 1665.667 OFFCURVE",
"532.5 1675 CURVE SMOOTH",
"525.5 1684.333 OFFCURVE",
"513 1689 OFFCURVE",
"495 1689 CURVE SMOOTH",
"461 1691.667 OFFCURVE",
"431.667 1679.5 OFFCURVE",
"407 1652.5 CURVE SMOOTH",
"382.333 1625.5 OFFCURVE",
"357 1600 OFFCURVE",
"331 1576 CURVE",
"301.667 1553.333 OFFCURVE",
"262.667 1526 OFFCURVE",
"232 1510 CURVE SMOOTH"
);
}
);
width = 51620;
}
);
note = uni0614;
unicode = 0614;
},
{
glyphname = uni060F;
lastChange = "2020-10-13 12:04:57 +0000";
layers = (
{
layerId = "6D6001D6-F15D-4D59-841D-B4ABFE65A828";
paths = (
{
closed = 1;
nodes = (
"534.333 -143.667 OFFCURVE",
"584.167 -77.167 OFFCURVE",
"602.5 -53.5 CURVE SMOOTH",
"639.167 -6.167 OFFCURVE",
"734 116.833 OFFCURVE",
"810 185.5 CURVE SMOOTH",
"886 254.167 OFFCURVE",
"977 285.333 OFFCURVE",
"1093 288 CURVE SMOOTH",
"1209 290.667 OFFCURVE",
"1313 185.667 OFFCURVE",
"1309 131 CURVE SMOOTH",
"1307 103.667 OFFCURVE",
"1291.667 68.667 OFFCURVE",
"1263 26 CURVE SMOOTH",
"1205.667 -59.333 OFFCURVE",
"1153.167 -128 OFFCURVE",
"992.5 -228 CURVE",
"983.833 -250.667 OFFCURVE",
"892.833 -297.667 OFFCURVE",
"809.5 -319 CURVE SMOOTH",
"767.833 -329.667 OFFCURVE",
"681.667 -326.667 OFFCURVE",
"551 -310 CURVE",
"516.333 -296.667 OFFCURVE",
"483.667 -277.667 OFFCURVE",
"453 -253 CURVE"
);
},
{
closed = 1;
nodes = (
"328.333 -511.333 OFFCURVE",
"349 -535.667 OFFCURVE",
"371 -553 CURVE SMOOTH",
"416.333 -591.667 OFFCURVE",
"484.5 -621 OFFCURVE",
"562.5 -629 CURVE SMOOTH",
"640.5 -637 OFFCURVE",
"730.333 -616.667 OFFCURVE",
"809 -586 CURVE SMOOTH",
"887.667 -555.333 OFFCURVE",
"1036.667 -455.333 OFFCURVE",
"1134 -342 CURVE SMOOTH",
"1231.333 -228.667 OFFCURVE",
"1295.333 -125 OFFCURVE",
"1346 7 CURVE SMOOTH",
"1382 100.333 OFFCURVE",
"1391.333 136.5 OFFCURVE",
"1402 226.5 CURVE SMOOTH",
"1407.333 271.5 OFFCURVE",
"1406.667 310.667 OFFCURVE",
"1400 344 CURVE SMOOTH",
"1386.667 410.667 OFFCURVE",
"1352.167 455.5 OFFCURVE",
"1291.5 485.5 CURVE SMOOTH",
"1261.167 500.5 OFFCURVE",
"1228.667 508 OFFCURVE",
"1194 508 CURVE SMOOTH",
"1039.333 508 OFFCURVE",
"877.333 391.333 OFFCURVE",
"764 270 CURVE SMOOTH",
"650.667 148.667 OFFCURVE",
"587.333 69.667 OFFCURVE",
"406 -189 CURVE",
"398.667 -173 OFFCURVE",
"392.667 -158.667 OFFCURVE",
"388 -146 CURVE SMOOTH",
"374 -108 OFFCURVE",
"367 -66 OFFCURVE",
"367 -20 CURVE SMOOTH",
"367 118.667 OFFCURVE",
"410.667 242 OFFCURVE",
"498 350 CURVE SMOOTH",
"586 466 OFFCURVE",
"677.667 548 OFFCURVE",
"799 640 CURVE SMOOTH",
"912.333 725.333 OFFCURVE",
"980.333 777.5 OFFCURVE",
"1003 796.5 CURVE SMOOTH",
"1048.333 834.5 OFFCURVE",
"1077.833 862.5 OFFCURVE",
"1098.5 900.5 CURVE SMOOTH",
"1108.833 919.5 OFFCURVE",
"1102.833 926.833 OFFCURVE",
"1080.5 922.5 CURVE SMOOTH",
"1058.167 918.167 OFFCURVE",
"1011.333 890.667 OFFCURVE",
"940 840 CURVE SMOOTH",
"856 784 OFFCURVE",
"802.667 761.833 OFFCURVE",
"768 758.5 CURVE SMOOTH",
"750.667 756.833 OFFCURVE",
"728.667 760.167 OFFCURVE",
"702 768.5 CURVE SMOOTH",
"648.667 785.167 OFFCURVE",
"597.667 852.5 OFFCURVE",
"651 914.5 CURVE SMOOTH",
"704.333 976.5 OFFCURVE",
"798.667 958.5 OFFCURVE",
"852 940.5 CURVE SMOOTH",
"878.667 931.5 OFFCURVE",
"900.167 934.5 OFFCURVE",
"916.5 949.5 CURVE SMOOTH",
"932.833 964.5 OFFCURVE",
"941.167 981.333 OFFCURVE",
"941.5 1000 CURVE SMOOTH",
"941.833 1018.667 OFFCURVE",
"910 1041 OFFCURVE",
"846 1067 CURVE",
"880.127 1114.253 OFFCURVE",
"768.254 1120.536 OFFCURVE",
"696 1063 CURVE SMOOTH",
"660 1034.333 OFFCURVE",
"588.667 939 OFFCURVE",
"482 777 CURVE",
"429.333 711.667 OFFCURVE",
"403 676 OFFCURVE",
"403 670 CURVE SMOOTH",
"409 600 OFFCURVE",
"447.333 550 OFFCURVE",
"518 520 CURVE",
"502 505.333 OFFCURVE",
"475.333 466 OFFCURVE",
"438 402 CURVE SMOOTH",
"314.667 181.333 OFFCURVE",
"253 -23.667 OFFCURVE",
"253 -213 CURVE SMOOTH",
"253 -272.333 OFFCURVE",
"258.333 -323.667 OFFCURVE",
"269 -367 CURVE SMOOTH",
"275 -400 LINE",
"246.333 -444 OFFCURVE",
"214.167 -490.833 OFFCURVE",
"178.5 -540.5 CURVE SMOOTH",
"142.833 -590.167 OFFCURVE",
"117.333 -633.333 OFFCURVE",
"102 -670 CURVE",
"126 -670 OFFCURVE",
"145.667 -652.667 OFFCURVE",
"175 -630 CURVE SMOOTH",
"205.821 -606.184 OFFCURVE",
"255.62 -550.127 OFFCURVE",
"309 -480 CURVE"
);
}
);
width = 1799;
}
);
note = uni060F;
unicode = 060F;
},
{
glyphname = uni060E;
lastChange = "2020-10-13 12:04:57 +0000";
layers = (
{
layerId = "6D6001D6-F15D-4D59-841D-B4ABFE65A828";
paths = (
{
closed = 1;
nodes = (
"215 209.333 OFFCURVE",
"256.667 258 OFFCURVE",
"310 258 CURVE SMOOTH",
"408.281 258 OFFCURVE",
"466 108.367 OFFCURVE",
"466 10 CURVE",
"367.511 19.849 OFFCURVE",
"215 45.696 OFFCURVE",
"215 160 CURVE SMOOTH"
);
},
{
closed = 1;
nodes = (
"124 -22.333 OFFCURVE",
"179.5 -81 OFFCURVE",
"253.5 -117 CURVE SMOOTH",
"327.5 -153 OFFCURVE",
"420.667 -170.333 OFFCURVE",
"494 -177 CURVE SMOOTH",
"556 -182.333 OFFCURVE",
"622.333 -185 OFFCURVE",
"693 -185 CURVE SMOOTH",
"726 -185 LINE SMOOTH",
"892.667 -182.333 OFFCURVE",
"1118.333 -170.833 OFFCURVE",
"1341 -151.5 CURVE SMOOTH",
"1452.333 -141.833 OFFCURVE",
"1544.833 -128.833 OFFCURVE",
"1618.5 -112.5 CURVE SMOOTH",
"1765.833 -79.833 OFFCURVE",
"1888 -36 OFFCURVE",
"1956 16 CURVE",
"1969.333 20.667 OFFCURVE",
"1978.333 28.667 OFFCURVE",
"1983 40 CURVE SMOOTH",
"1983.667 41.333 OFFCURVE",
"1984 43 OFFCURVE",
"1984 45 CURVE SMOOTH",
"1984 50.333 OFFCURVE",
"1978.667 53 OFFCURVE",
"1968 53 CURVE SMOOTH",
"1958 53 LINE",
"1778 27.667 OFFCURVE",
"1574 -1.167 OFFCURVE",
"1250 -8.5 CURVE SMOOTH",
"1088 -12.167 OFFCURVE",
"952.667 -14.333 OFFCURVE",
"844 -15 CURVE SMOOTH",
"826 -15 LINE SMOOTH",
"724 -15 OFFCURVE",
"632 -9.667 OFFCURVE",
"550 1 CURVE",
"552.667 30.333 OFFCURVE",
"554 61 OFFCURVE",
"554 101 CURVE SMOOTH",
"554 206.333 OFFCURVE",
"534 319 OFFCURVE",
"458 379 CURVE",
"427.333 400.333 OFFCURVE",
"397.667 411 OFFCURVE",
"369 411 CURVE SMOOTH",
"355.667 411 OFFCURVE",
"342.667 409 OFFCURVE",
"330 405 CURVE SMOOTH",
"248.667 377 OFFCURVE",
"183.333 298 OFFCURVE",
"146 202 CURVE SMOOTH",
"130 160 OFFCURVE",
"122 122 OFFCURVE",
"122 88 CURVE SMOOTH",
"122 82 OFFCURVE",
"122.667 76.333 OFFCURVE",
"124 71 CURVE"
);
}
);
width = 2071;
}
);
note = uni060E;
unicode = 0602;
},
{
glyphname = uni0603;
lastChange = "2020-10-13 12:04:57 +0000";
layers = (
{
layerId = "6D6001D6-F15D-4D59-841D-B4ABFE65A828";
paths = (
{
closed = 1;
nodes = (
"1860.333 198 OFFCURVE",
"1877.833 225.5 OFFCURVE",
"1895.5 254.5 CURVE SMOOTH",
"1913.167 283.5 OFFCURVE",
"1936 306 OFFCURVE",
"1964 322 CURVE",
"1997.333 346 OFFCURVE",
"2061.333 333.667 OFFCURVE",
"2080 287 CURVE",
"2035.564 200.598 OFFCURVE",
"1900.408 172 OFFCURVE",
"1843 172 CURVE"
);
},
{
closed = 1;
nodes = (
"1718.592 225.864 OFFCURVE",
"1697.984 194.812 OFFCURVE",
"1678.5 176 CURVE SMOOTH",
"1668.833 166.667 OFFCURVE",
"1649.167 154.5 OFFCURVE",
"1619.5 139.5 CURVE",
"1369.167 81.167 OFFCURVE",
"1200 65.333 OFFCURVE",
"944 48 CURVE",
"648.667 38 OFFCURVE",
"447.5 36.167 OFFCURVE",
"340.5 42.5 CURVE SMOOTH",
"233.5 48.833 OFFCURVE",
"157.333 48.667 OFFCURVE",
"112 42 CURVE SMOOTH",
"90.667 38.667 OFFCURVE",
"80 33.333 OFFCURVE",
"80 26 CURVE SMOOTH",
"80 17.333 OFFCURVE",
"95.333 5.667 OFFCURVE",
"126 -9 CURVE SMOOTH",
"180.667 -35.667 OFFCURVE",
"254.667 -51 OFFCURVE",
"348 -55 CURVE SMOOTH",
"456.667 -63.667 OFFCURVE",
"580.667 -69.333 OFFCURVE",
"720 -72 CURVE",
"1052.667 -58.667 OFFCURVE",
"1279.833 -40.5 OFFCURVE",
"1401.5 -17.5 CURVE",
"1644.833 77.833 OFFCURVE",
"1666.667 104.333 OFFCURVE",
"1686 133 CURVE",
"1692.667 50.333 OFFCURVE",
"1722 5 OFFCURVE",
"1814 1 CURVE SMOOTH",
"1888.667 1 OFFCURVE",
"1965 37.667 OFFCURVE",
"2017 95 CURVE SMOOTH",
"2069 152.333 OFFCURVE",
"2105 230 OFFCURVE",
"2105 318 CURVE SMOOTH",
"2105 372.667 OFFCURVE",
"2079 412 OFFCURVE",
"2027 412 CURVE SMOOTH",
"1972.015 412 OFFCURVE",
"1914.207 338.722 OFFCURVE",
"1886 290 CURVE SMOOTH",
"1877.204 275.34 OFFCURVE",
"1832.796 193.156 OFFCURVE",
"1821 179 CURVE",
"1780.087 179 OFFCURVE",
"1748.584 230 OFFCURVE",
"1731 230 CURVE"
);
}
);
width = 2245;
}
);
note = uni0603;
unicode = 0603;
},
{
glyphname = uni0601;
lastChange = "2020-10-13 12:04:57 +0000";
layers = (
{
layerId = "6D6001D6-F15D-4D59-841D-B4ABFE65A828";
paths = (
{
closed = 1;
nodes = (
"944.111 -112.266 OFFCURVE",
"830.205 135.67 OFFCURVE",
"982 -7.5 CURVE SMOOTH",
"1011.333 -35.167 OFFCURVE",
"1072.333 -68.333 OFFCURVE",
"1165 -107 CURVE SMOOTH",
"1257.667 -145.667 OFFCURVE",
"1387 -169.333 OFFCURVE",
"1553 -178 CURVE SMOOTH",
"1885 -195.333 OFFCURVE",
"2135.333 -187.833 OFFCURVE",
"2638 7.5 CURVE",
"2646.667 -19.5 OFFCURVE",
"2711.667 -1.833 OFFCURVE",
"2833 60.5 CURVE SMOOTH",
"2954.333 122.833 OFFCURVE",
"3195.333 294 OFFCURVE",
"3556 574 CURVE",
"3669.333 691.333 OFFCURVE",
"3742.667 773.333 OFFCURVE",
"3776 820 CURVE",
"3774 820.667 OFFCURVE",
"3773 821.667 OFFCURVE",
"3773 823 CURVE",
"3723.667 829.667 OFFCURVE",
"3555.333 724.333 OFFCURVE",
"3268 507 CURVE",
"2977.333 269.667 OFFCURVE",
"2657 155.333 OFFCURVE",
"2273 106 CURVE SMOOTH",
"1889 56.667 OFFCURVE",
"1538.833 75.167 OFFCURVE",
"1367.5 126.5 CURVE SMOOTH",
"1281.833 152.167 OFFCURVE",
"1218.333 176.167 OFFCURVE",
"1177 198.5 CURVE SMOOTH",
"1115.715 231.613 OFFCURVE",
"1081.248 260.004 OFFCURVE",
"1070 278 CURVE SMOOTH",
"1048.531 308.414 OFFCURVE",
"1016.875 291.838 OFFCURVE",
"969 246 CURVE SMOOTH",
"937.667 216 OFFCURVE",
"902 179.333 OFFCURVE",
"862 136 CURVE",
"740.566 25.605 OFFCURVE",
"769.592 136 OFFCURVE",
"615 136 CURVE SMOOTH",
"595 136 OFFCURVE",
"574.667 133.333 OFFCURVE",
"554 128 CURVE SMOOTH",
"483.333 110.667 OFFCURVE",
"409 62 OFFCURVE",
"331 -18 CURVE SMOOTH",
"275 -74.667 OFFCURVE",
"229.667 -137 OFFCURVE",
"195 -205 CURVE SMOOTH",
"173.667 -245 OFFCURVE",
"165.667 -269.333 OFFCURVE",
"171 -278 CURVE SMOOTH",
"174.333 -282 OFFCURVE",
"178 -284 OFFCURVE",
"182 -284 CURVE SMOOTH",
"192.667 -284 OFFCURVE",
"209 -271.333 OFFCURVE",
"231 -246 CURVE SMOOTH",
"272.333 -198 OFFCURVE",
"314.667 -163.333 OFFCURVE",
"358 -142 CURVE SMOOTH",
"406 -118 OFFCURVE",
"475.667 -106.667 OFFCURVE",
"525 -128 CURVE",
"557 -149.333 OFFCURVE",
"585.333 -161.667 OFFCURVE",
"610 -165 CURVE SMOOTH",
"623.333 -166.333 OFFCURVE",
"640 -165.667 OFFCURVE",
"660 -163 CURVE SMOOTH"
);
}
);
width = 3941;
}
);
note = uni0601;
unicode = 0601;
},
{
glyphname = uni060C;
lastChange = "2020-10-13 12:04:57 +0000";
layers = (
{
layerId = "6D6001D6-F15D-4D59-841D-B4ABFE65A828";
paths = (
{
closed = 1;
nodes = (
"423.608 245.247 OFFCURVE",
"369.151 243.363 OFFCURVE",
"354 207 CURVE SMOOTH",
"348 189.667 OFFCURVE",
"342.167 178.333 OFFCURVE",
"336.5 173 CURVE SMOOTH",
"330.833 167.667 OFFCURVE",
"324 168.667 OFFCURVE",
"316 176 CURVE SMOOTH",
"296.667 192 OFFCURVE",
"287 213 OFFCURVE",
"287 239 CURVE SMOOTH",
"287 292.333 OFFCURVE",
"307.333 350 OFFCURVE",
"334 398 CURVE SMOOTH",
"364 453 LINE SMOOTH",
"405.854 538.801 OFFCURVE",
"322.252 509.631 OFFCURVE",
"280 404 CURVE",
"226.667 306.667 OFFCURVE",
"198 214.667 OFFCURVE",
"206 140 CURVE SMOOTH",
"215.333 54.667 OFFCURVE",
"273.667 10.833 OFFCURVE",
"331 19.5 CURVE SMOOTH",
"388.333 28.167 OFFCURVE",
"442.667 88.333 OFFCURVE",
"440 207 CURVE"
);
}
);
width = 642;
}
);
note = uni060C;
unicode = 060C;
},
{
glyphname = uni061B;
lastChange = "2020-10-13 12:04:57 +0000";
layers = (
{
layerId = "6D6001D6-F15D-4D59-841D-B4ABFE65A828";
paths = (
{
closed = 1;
nodes = (
"335.005 479.988 OFFCURVE",
"280.474 477.633 OFFCURVE",
"266 440 CURVE SMOOTH",
"259.333 422.667 OFFCURVE",
"253.333 411.5 OFFCURVE",
"248 406.5 CURVE SMOOTH",
"242.667 401.5 OFFCURVE",
"235.667 402.667 OFFCURVE",
"227 410 CURVE SMOOTH",
"207.667 426 OFFCURVE",
"198 447 OFFCURVE",
"198 473 CURVE SMOOTH",
"198 547.158 OFFCURVE",
"243.534 622.068 OFFCURVE",
"276 687 CURVE SMOOTH",
"317.973 775.364 OFFCURVE",
"242.844 740.688 OFFCURVE",
"191 637 CURVE SMOOTH",
"144.333 533 OFFCURVE",
"109 447.333 OFFCURVE",
"117 374 CURVE SMOOTH",
"126.333 288.667 OFFCURVE",
"185.833 244.833 OFFCURVE",
"242.5 253.5 CURVE SMOOTH",
"299.167 262.167 OFFCURVE",
"353.667 321.333 OFFCURVE",
"351 440 CURVE"
);
},
{
closed = 1;
nodes = (
"148.333 -74.333 OFFCURVE",
"168.667 -92 OFFCURVE",
"192 -108 CURVE SMOOTH",
"215.333 -124 OFFCURVE",
"237.667 -139.667 OFFCURVE",
"259 -155 CURVE",
"283.343 -152.295 OFFCURVE",
"358 -45.627 OFFCURVE",
"358 -24 CURVE SMOOTH",
"358 -14.391 OFFCURVE",
"234.587 73 OFFCURVE",
"225 73 CURVE SMOOTH",
"210.074 73 OFFCURVE",
"125.315 -46.472 OFFCURVE",
"131 -55 CURVE"
);
}
);
width = 461;
}
);
note = uni061B;
unicode = 061B;
},
{
glyphname = ellipsis;
lastChange = "2020-10-13 12:04:57 +0000";
layers = (
{
layerId = "6D6001D6-F15D-4D59-841D-B4ABFE65A828";
paths = (
{
closed = 1;
nodes = (
"166 -61.976 OFFCURVE",
"208.308 -102 OFFCURVE",
"262 -102 CURVE SMOOTH",
"312.527 -102 OFFCURVE",
"358 -61.796 OFFCURVE",
"358 -8 CURVE SMOOTH",
"358 44.138 OFFCURVE",
"312.055 85 OFFCURVE",
"262 85 CURVE SMOOTH",
"208.763 85 OFFCURVE",
"166 43.612 OFFCURVE",
"166 -8 CURVE SMOOTH"
);
},
{
closed = 1;
nodes = (
"787 -61.566 OFFCURVE",
"829.504 -102 OFFCURVE",
"884 -102 CURVE SMOOTH",
"935.444 -102 OFFCURVE",
"980 -62.588 OFFCURVE",
"980 -8 CURVE SMOOTH",
"980 44.055 OFFCURVE",
"935.409 85 OFFCURVE",
"884 85 CURVE SMOOTH",
"830.342 85 OFFCURVE",
"787 43.374 OFFCURVE",
"787 -8 CURVE SMOOTH"
);
},
{
closed = 1;
nodes = (
"1437 -74.751 OFFCURVE",
"1478.911 -117 OFFCURVE",
"1533 -117 CURVE SMOOTH",
"1585.459 -117 OFFCURVE",
"1628 -74.637 OFFCURVE",
"1628 -22 CURVE SMOOTH",
"1628 28.618 OFFCURVE",
"1585.492 72 OFFCURVE",
"1533 72 CURVE SMOOTH",
"1478.895 72 OFFCURVE",
"1437 28.702 OFFCURVE",
"1437 -22 CURVE SMOOTH"
);
}
);
width = 1853;
}
);
note = ellipsis;
unicode = 2026;
},
{
glyphname = quoteleft;
lastChange = "2020-10-13 12:04:57 +0000";
layers = (
{
layerId = "6D6001D6-F15D-4D59-841D-B4ABFE65A828";
paths = (
{
closed = 1;
nodes = (
"274 1503.667 OFFCURVE",
"305.333 1598 OFFCURVE",
"304 1686 CURVE SMOOTH",
"303.333 1711.333 OFFCURVE",
"300.333 1733 OFFCURVE",
"295 1751 CURVE SMOOTH",
"272.363 1830.228 OFFCURVE",
"196.16 1856.385 OFFCURVE",
"144.5 1785 CURVE SMOOTH",
"107.833 1734.333 OFFCURVE",
"105.333 1648.333 OFFCURVE",
"136 1615 CURVE SMOOTH",
"204.763 1540.258 OFFCURVE",
"255.782 1613.726 OFFCURVE",
"197 1504 CURVE SMOOTH",
"155.391 1433.586 OFFCURVE",
"130.008 1368.041 OFFCURVE",
"194 1421 CURVE"
);
}
);
width = 469;
}
);
note = quoteleft;
unicode = 2019;
},
{
glyphname = quoteright;
lastChange = "2020-10-13 12:04:57 +0000";
layers = (
{
layerId = "6D6001D6-F15D-4D59-841D-B4ABFE65A828";
paths = (
{
closed = 1;
nodes = (
"163 1704.333 OFFCURVE",
"130.667 1610 OFFCURVE",
"132 1522 CURVE SMOOTH",
"132.667 1496.667 OFFCURVE",
"135.667 1475.333 OFFCURVE",
"141 1458 CURVE SMOOTH",
"165.882 1377.613 OFFCURVE",
"240.042 1351.512 OFFCURVE",
"292.5 1424 CURVE SMOOTH",
"329.167 1474.667 OFFCURVE",
"330.5 1560.833 OFFCURVE",
"300.5 1593.5 CURVE SMOOTH",
"233.487 1666.469 OFFCURVE",
"179.203 1594.805 OFFCURVE",
"240 1705 CURVE SMOOTH",
"281.832 1775.793 OFFCURVE",
"305.22 1842.554 OFFCURVE",
"243 1787 CURVE"
);
}
);
width = 469;
}
);
note = quoteright;
unicode = 2018;
},
{
glyphname = MAD_SMALL;
lastChange = "2020-10-13 12:49:45 +0000";
layers = (
{
anchors = (
{
name = _bottom2;
position = "{0, 0}";
}
);
layerId = "6D6001D6-F15D-4D59-841D-B4ABFE65A828";
paths = (
{
closed = 1;
nodes = (
"543 1555 OFFCURVE",
"501 1513.667 OFFCURVE",
"497 1511 CURVE SMOOTH",
"436.333 1464.333 OFFCURVE",
"378.667 1441 OFFCURVE",
"324 1441 CURVE SMOOTH",
"302.234 1441 OFFCURVE",
"239.809 1470 OFFCURVE",
"227 1470 CURVE SMOOTH",
"226 1470 LINE SMOOTH",
"156.667 1462.667 OFFCURVE",
"95.333 1416 OFFCURVE",
"42 1330 CURVE SMOOTH",
"6.667 1272.667 OFFCURVE",
"-12.667 1236.667 OFFCURVE",
"-16 1222 CURVE",
"-9 1228 LINE SMOOTH",
"7.003 1240.447 OFFCURVE",
"56.355 1273.391 OFFCURVE",
"86.5 1290.5 CURVE SMOOTH",
"111.167 1304.5 OFFCURVE",
"134 1315 OFFCURVE",
"146 1315 CURVE SMOOTH",
"159.14 1315 OFFCURVE",
"223.501 1284 OFFCURVE",
"244 1284 CURVE SMOOTH",
"251 1284 LINE",
"355 1297.333 OFFCURVE",
"449.333 1359.667 OFFCURVE",
"534 1471 CURVE SMOOTH",
"593.333 1549.667 OFFCURVE",
"623 1604.333 OFFCURVE",
"623 1635 CURVE"
);
}
);
width = 0;
}
);
note = MAD_SMALL;
unicode = 06E4;
category = Mark;
subCategory = Nonspacing;
},
{
glyphname = DZABAR;
lastChange = "2020-10-13 12:49:19 +0000";
layers = (
{
anchors = (
{
name = _bottom2;
position = "{0, 0}";
}
);
layerId = "6D6001D6-F15D-4D59-841D-B4ABFE65A828";
paths = (
{
closed = 1;
nodes = (
"265.667 1467 OFFCURVE",
"324.167 1499.167 OFFCURVE",
"363.5 1518.5 CURVE SMOOTH",
"383.167 1528.167 OFFCURVE",
"399 1539 OFFCURVE",
"411 1551 CURVE SMOOTH",
"423 1563 OFFCURVE",
"434.667 1580.667 OFFCURVE",
"446 1604 CURVE SMOOTH",
"457.333 1627.333 OFFCURVE",
"458.333 1636 OFFCURVE",
"449 1630 CURVE SMOOTH",
"429.533 1617.485 OFFCURVE",
"351.017 1575.051 OFFCURVE",
"314 1555 CURVE SMOOTH",
"298 1546.333 OFFCURVE",
"283.833 1539 OFFCURVE",
"271.5 1533 CURVE SMOOTH",
"259.167 1527 OFFCURVE",
"236.667 1510 OFFCURVE",
"204 1482 CURVE",
"184 1490 OFFCURVE",
"149.667 1448.333 OFFCURVE",
"171 1415 CURVE"
);
},
{
closed = 1;
nodes = (
"241.667 1317 OFFCURVE",
"300.167 1349.167 OFFCURVE",
"339.5 1368.5 CURVE SMOOTH",
"359.167 1378.167 OFFCURVE",
"375 1389 OFFCURVE",
"387 1401 CURVE SMOOTH",
"399 1413 OFFCURVE",
"410.667 1430.667 OFFCURVE",
"422 1454 CURVE SMOOTH",
"433.333 1477.333 OFFCURVE",
"434.333 1486 OFFCURVE",
"425 1480 CURVE SMOOTH",
"405.533 1467.485 OFFCURVE",
"327.017 1425.051 OFFCURVE",
"290 1405 CURVE SMOOTH",
"274 1396.333 OFFCURVE",
"259.833 1389 OFFCURVE",
"247.5 1383 CURVE SMOOTH",
"235.167 1377 OFFCURVE",
"212.667 1360 OFFCURVE",
"180 1332 CURVE",
"160 1340 OFFCURVE",
"125.667 1298.333 OFFCURVE",
"147 1265 CURVE"
);
}
);
width = 0;
}
);
note = DZABAR;
unicode = 064B;
category = Mark;
subCategory = Nonspacing;
},
{
glyphname = DPESH;
lastChange = "2020-10-13 12:49:45 +0000";
layers = (
{
anchors = (
{
name = _bottom2;
position = "{0, 0}";
}
);
layerId = "6D6001D6-F15D-4D59-841D-B4ABFE65A828";
paths = (
{
closed = 1;
nodes = (
"362 1631 OFFCURVE",
"386 1638 OFFCURVE",
"402 1638 CURVE SMOOTH",
"431.333 1638 OFFCURVE",
"459 1613.667 OFFCURVE",
"459 1587 CURVE SMOOTH",
"459 1563 OFFCURVE",
"446 1546 OFFCURVE",
"420 1536 CURVE",
"394.667 1536 OFFCURVE",
"354 1560.333 OFFCURVE",
"354 1595 CURVE"
);
},
{
closed = 1;
nodes = (
"357 1443 OFFCURVE",
"339 1427.833 OFFCURVE",
"321 1411.5 CURVE SMOOTH",
"303 1395.167 OFFCURVE",
"282.333 1378.333 OFFCURVE",
"259 1361 CURVE SMOOTH",
"245 1349.667 OFFCURVE",
"232 1339.833 OFFCURVE",
"220 1331.5 CURVE SMOOTH",
"208 1323.167 OFFCURVE",
"197.667 1311.667 OFFCURVE",
"189 1297 CURVE SMOOTH",
"183.667 1286.333 OFFCURVE",
"183.667 1281 OFFCURVE",
"189 1281 CURVE SMOOTH",
"193.667 1281 OFFCURVE",
"196.667 1282 OFFCURVE",
"198 1284 CURVE",
"200 1284 OFFCURVE",
"208 1288.167 OFFCURVE",
"222 1296.5 CURVE SMOOTH",
"236 1304.833 OFFCURVE",
"247 1310.667 OFFCURVE",
"255 1314 CURVE",
"373.145 1389.95 OFFCURVE",
"505 1490.856 OFFCURVE",
"505 1634 CURVE SMOOTH",
"505 1679.333 OFFCURVE",
"498 1730 OFFCURVE",
"442 1730 CURVE SMOOTH",
"379.307 1730 OFFCURVE",
"310.772 1610.266 OFFCURVE",
"305 1541 CURVE",
"306.333 1490.333 OFFCURVE",
"337.667 1462.333 OFFCURVE",
"375 1457 CURVE"
);
},
{
closed = 1;
nodes = (
"152 1638.667 OFFCURVE",
"85.5 1520.833 OFFCURVE",
"103.5 1441.5 CURVE SMOOTH",
"112.5 1401.833 OFFCURVE",
"127.333 1382 OFFCURVE",
"148 1382 CURVE SMOOTH",
"207.38 1378.401 OFFCURVE",
"250 1421.825 OFFCURVE",
"250 1481 CURVE SMOOTH",
"250 1501 OFFCURVE",
"246.667 1512.333 OFFCURVE",
"240 1515 CURVE",
"229.333 1525.667 OFFCURVE",
"216 1516 OFFCURVE",
"208 1496 CURVE",
"204 1490.667 OFFCURVE",
"201.333 1486 OFFCURVE",
"200 1482 CURVE SMOOTH",
"198.667 1478 OFFCURVE",
"195.333 1475 OFFCURVE",
"190 1473 CURVE",
"174 1473 OFFCURVE",
"160 1507 OFFCURVE",
"160 1523 CURVE SMOOTH",
"160 1598.845 OFFCURVE",
"208.803 1633.163 OFFCURVE",
"252 1685 CURVE",
"256.667 1693.667 OFFCURVE",
"263.667 1704.833 OFFCURVE",
"273 1718.5 CURVE SMOOTH",
"282.333 1732.167 OFFCURVE",
"287 1740 OFFCURVE",
"287 1742 CURVE",
"291.667 1754 OFFCURVE",
"291.667 1760 OFFCURVE",
"287 1760 CURVE SMOOTH",
"282.333 1760 OFFCURVE",
"278.333 1758.333 OFFCURVE",
"275 1755 CURVE",
"268.333 1751 OFFCURVE",
"224 1713.333 OFFCURVE",
"208 1692 CURVE"
);
}
);
width = 0;
}
);
note = DPESH;
unicode = 064C;
category = Mark;
subCategory = Nonspacing;
},
{
glyphname = DZER;
lastChange = "2020-10-13 12:49:45 +0000";
layers = (
{
anchors = (
{
name = _top2;
position = "{0, 0}";
}
);
layerId = "6D6001D6-F15D-4D59-841D-B4ABFE65A828";
paths = (
{
closed = 1;
nodes = (
"273.667 -919 OFFCURVE",
"332.167 -886.833 OFFCURVE",
"371.5 -867.5 CURVE SMOOTH",
"391.167 -857.833 OFFCURVE",
"407 -847 OFFCURVE",
"419 -835 CURVE SMOOTH",
"431 -823 OFFCURVE",
"442.667 -805.333 OFFCURVE",
"454 -782 CURVE SMOOTH",
"465.333 -758.667 OFFCURVE",
"466.333 -750 OFFCURVE",
"457 -756 CURVE SMOOTH",
"437.533 -768.515 OFFCURVE",
"359.017 -810.949 OFFCURVE",
"322 -831 CURVE SMOOTH",
"306 -839.667 OFFCURVE",
"291.833 -847 OFFCURVE",
"279.5 -853 CURVE SMOOTH",
"267.167 -859 OFFCURVE",
"244.667 -876 OFFCURVE",
"212 -904 CURVE",
"192 -896 OFFCURVE",
"157.667 -937.667 OFFCURVE",
"179 -971 CURVE"
);
},
{
closed = 1;
nodes = (
"249.667 -1069 OFFCURVE",
"308.167 -1036.833 OFFCURVE",
"347.5 -1017.5 CURVE SMOOTH",
"367.167 -1007.833 OFFCURVE",
"383 -997 OFFCURVE",
"395 -985 CURVE SMOOTH",
"407 -973 OFFCURVE",
"418.667 -955.333 OFFCURVE",
"430 -932 CURVE SMOOTH",
"441.333 -908.667 OFFCURVE",
"442.333 -900 OFFCURVE",
"433 -906 CURVE SMOOTH",
"413.533 -918.515 OFFCURVE",
"335.017 -960.949 OFFCURVE",
"298 -981 CURVE SMOOTH",
"282 -989.667 OFFCURVE",
"267.833 -997 OFFCURVE",
"255.5 -1003 CURVE SMOOTH",
"243.167 -1009 OFFCURVE",
"220.667 -1026 OFFCURVE",
"188 -1054 CURVE",
"168 -1046 OFFCURVE",
"133.667 -1087.667 OFFCURVE",
"155 -1121 CURVE"
);
}
);
width = 0;
}
);
note = DZER;
unicode = 064D;
category = Mark;
subCategory = Nonspacing;
},
{
glyphname = ZABAR;
lastChange = "2020-10-13 12:49:12 +0000";
layers = (
{
anchors = (
{
name = _bottom2;
position = "{0, 0}";
}
);
layerId = "6D6001D6-F15D-4D59-841D-B4ABFE65A828";
paths = (
{
closed = 1;
nodes = (
"246.667 1347 OFFCURVE",
"305.167 1379.167 OFFCURVE",
"344.5 1398.5 CURVE SMOOTH",
"364.167 1408.167 OFFCURVE",
"380 1419 OFFCURVE",
"392 1431 CURVE SMOOTH",
"404 1443 OFFCURVE",
"415.667 1460.667 OFFCURVE",
"427 1484 CURVE SMOOTH",
"438.333 1507.333 OFFCURVE",
"439.333 1516 OFFCURVE",
"430 1510 CURVE SMOOTH",
"410.533 1497.485 OFFCURVE",
"332.017 1455.051 OFFCURVE",
"295 1435 CURVE SMOOTH",
"279 1426.333 OFFCURVE",
"264.833 1419 OFFCURVE",
"252.5 1413 CURVE SMOOTH",
"240.167 1407 OFFCURVE",
"217.667 1390 OFFCURVE",
"185 1362 CURVE",
"165 1370 OFFCURVE",
"130.667 1328.333 OFFCURVE",
"152 1295 CURVE"
);
}
);
width = 0;
}
);
note = ZABAR;
unicode = 064E;
category = Mark;
subCategory = Nonspacing;
},
{
glyphname = PESH;
lastChange = "2020-10-13 12:49:45 +0000";
layers = (
{
anchors = (
{
name = _bottom2;
position = "{0, 0}";
}
);
layerId = "6D6001D6-F15D-4D59-841D-B4ABFE65A828";
paths = (
{
closed = 1;
nodes = (
"302 1601 OFFCURVE",
"326 1608 OFFCURVE",
"342 1608 CURVE SMOOTH",
"370 1608 OFFCURVE",
"398 1583.667 OFFCURVE",
"398 1557 CURVE SMOOTH",
"398 1533 OFFCURVE",
"385.333 1516 OFFCURVE",
"360 1506 CURVE",
"333.333 1506 OFFCURVE",
"294 1531.667 OFFCURVE",
"294 1565 CURVE"
);
},
{
closed = 1;
nodes = (
"297 1414 OFFCURVE",
"279.167 1399 OFFCURVE",
"261.5 1383 CURVE SMOOTH",
"243.833 1367 OFFCURVE",
"223.333 1350 OFFCURVE",
"200 1332 CURVE SMOOTH",
"185.333 1320.667 OFFCURVE",
"172.167 1311 OFFCURVE",
"160.5 1303 CURVE SMOOTH",
"148.833 1295 OFFCURVE",
"138.667 1283.667 OFFCURVE",
"130 1269 CURVE SMOOTH",
"124.667 1258.333 OFFCURVE",
"124.667 1253 OFFCURVE",
"130 1253 CURVE SMOOTH",
"134 1253 OFFCURVE",
"137 1254 OFFCURVE",
"139 1256 CURVE",
"141 1256 OFFCURVE",
"148.833 1260.167 OFFCURVE",
"162.5 1268.5 CURVE SMOOTH",
"176.167 1276.833 OFFCURVE",
"187 1282.667 OFFCURVE",
"195 1286 CURVE",
"312.411 1361.478 OFFCURVE",
"444 1460.683 OFFCURVE",
"444 1604 CURVE SMOOTH",
"444 1649.333 OFFCURVE",
"437 1699 OFFCURVE",
"381 1699 CURVE SMOOTH",
"319.65 1699 OFFCURVE",
"250.741 1579.894 OFFCURVE",
"245 1511 CURVE",
"246.333 1461.667 OFFCURVE",
"277.667 1433.333 OFFCURVE",
"315 1428 CURVE"
);
}
);
width = 0;
}
);
note = PESH;
unicode = 064F;
category = Mark;
subCategory = Nonspacing;
},
{
glyphname = TASHDEED;
lastChange = "2020-10-13 12:49:45 +0000";
layers = (
{
anchors = (
{
name = Anchor121;
position = "{27, 324}";
},
{
name = _bottom2;
position = "{0, 0}";
}
);
layerId = "6D6001D6-F15D-4D59-841D-B4ABFE65A828";
paths = (
{
closed = 1;
nodes = (
"425 1499.333 OFFCURVE",
"418.5 1480.833 OFFCURVE",
"413.5 1458.5 CURVE SMOOTH",
"397 1387 LINE",
"387 1387 LINE SMOOTH",
"356.333 1387 OFFCURVE",
"341 1398.667 OFFCURVE",
"341 1422 CURVE SMOOTH",
"341 1435.267 OFFCURVE",
"353 1465.78 OFFCURVE",
"353 1482 CURVE SMOOTH",
"353 1488 OFFCURVE",
"349.333 1491 OFFCURVE",
"342 1491 CURVE SMOOTH",
"328.667 1491 OFFCURVE",
"319.333 1474.667 OFFCURVE",
"314 1442 CURVE SMOOTH",
"308.241 1398.805 OFFCURVE",
"301.478 1370 OFFCURVE",
"280 1370 CURVE SMOOTH",
"262 1370 LINE SMOOTH",
"243.333 1370 OFFCURVE",
"223 1376 OFFCURVE",
"223 1392 CURVE SMOOTH",
"223 1404.898 OFFCURVE",
"243 1459.47 OFFCURVE",
"243 1474 CURVE SMOOTH",
"243 1482 LINE SMOOTH",
"243 1484.667 OFFCURVE",
"242.667 1487.333 OFFCURVE",
"242 1490 CURVE",
"200.667 1458.667 OFFCURVE",
"180 1408.333 OFFCURVE",
"180 1339 CURVE SMOOTH",
"180 1299 OFFCURVE",
"197.667 1279 OFFCURVE",
"233 1279 CURVE SMOOTH",
"247.667 1279 OFFCURVE",
"271 1290 OFFCURVE",
"303 1312 CURVE",
"305 1312.667 OFFCURVE",
"308 1313 OFFCURVE",
"312 1313 CURVE SMOOTH",
"320.455 1313 OFFCURVE",
"345.837 1302 OFFCURVE",
"358 1302 CURVE SMOOTH",
"418.137 1302 OFFCURVE",
"450.52 1391.071 OFFCURVE",
"447 1465 CURVE SMOOTH",
"446.333 1497.667 OFFCURVE",
"441.667 1514 OFFCURVE",
"433 1514 CURVE"
);
}
);
width = 0;
}
);
note = TASHDEED;
unicode = 0651;
category = Mark;
subCategory = Nonspacing;
},
{
glyphname = JAZM;
lastChange = "2020-10-13 12:49:45 +0000";
layers = (
{
anchors = (
{
name = _bottom2;
position = "{0, 0}";
}
);
layerId = "6D6001D6-F15D-4D59-841D-B4ABFE65A828";
paths = (
{
closed = 1;
nodes = (
"318 1366 OFFCURVE",
"194.667 1283 OFFCURVE",
"188 1279 CURVE SMOOTH",
"174.667 1273 OFFCURVE",
"166.5 1266.667 OFFCURVE",
"163.5 1260 CURVE SMOOTH",
"160.5 1253.333 OFFCURVE",
"166 1251.667 OFFCURVE",
"180 1255 CURVE",
"266.327 1255 OFFCURVE",
"401 1384.367 OFFCURVE",
"401 1479 CURVE SMOOTH",
"401 1533.054 OFFCURVE",
"333.149 1537 OFFCURVE",
"290 1537 CURVE SMOOTH",
"224.667 1537 OFFCURVE",
"206.333 1528.667 OFFCURVE",
"177 1474 CURVE SMOOTH",
"167.667 1458 OFFCURVE",
"159 1434.333 OFFCURVE",
"151 1403 CURVE",
"185.667 1409.667 OFFCURVE",
"207.667 1415 OFFCURVE",
"241 1415 CURVE SMOOTH",
"263.667 1415 OFFCURVE",
"318 1414 OFFCURVE",
"318 1382 CURVE SMOOTH"
);
}
);
width = 0;
}
);
note = JAZM;
unicode = 0652;
category = Mark;
subCategory = Nonspacing;
},
{
glyphname = MAD_LARGE;
lastChange = "2020-10-13 12:49:45 +0000";
layers = (
{
anchors = (
{
name = _bottom2;
position = "{0, 0}";
}
);
layerId = "6D6001D6-F15D-4D59-841D-B4ABFE65A828";
paths = (
{
closed = 1;
nodes = (
"732.275 1647.705 OFFCURVE",
"711.82 1630.138 OFFCURVE",
"686.5 1595 CURVE SMOOTH",
"670.167 1572.333 OFFCURVE",
"646.167 1546.5 OFFCURVE",
"614.5 1517.5 CURVE SMOOTH",
"551.167 1459.5 OFFCURVE",
"496.667 1435.667 OFFCURVE",
"430 1433 CURVE SMOOTH",
"347.112 1429.684 OFFCURVE",
"381.407 1476 OFFCURVE",
"310 1476 CURVE SMOOTH",
"308 1476 LINE SMOOTH",
"200 1465.333 OFFCURVE",
"100 1390.333 OFFCURVE",
"8 1251 CURVE SMOOTH",
"-44 1166.333 OFFCURVE",
"-70.333 1111.667 OFFCURVE",
"-71 1087 CURVE",
"-68.521 1089.479 OFFCURVE",
"-37.627 1094.326 OFFCURVE",
"-23 1112 CURVE SMOOTH",
"-7 1131.333 OFFCURVE",
"9 1147.167 OFFCURVE",
"25 1159.5 CURVE SMOOTH",
"69.633 1193.905 OFFCURVE",
"138.59 1233 OFFCURVE",
"183 1233 CURVE SMOOTH",
"192.084 1233 OFFCURVE",
"220.646 1217.162 OFFCURVE",
"246.5 1204 CURVE SMOOTH",
"283.167 1185.333 OFFCURVE",
"363.167 1183 OFFCURVE",
"442.5 1219 CURVE SMOOTH",
"521.833 1255 OFFCURVE",
"618.333 1357 OFFCURVE",
"677 1469 CURVE SMOOTH",
"706.333 1525 OFFCURVE",
"724.333 1567.667 OFFCURVE",
"731 1597 CURVE SMOOTH",
"734.333 1609 OFFCURVE",
"735.333 1619 OFFCURVE",
"734 1627 CURVE SMOOTH"
);
}
);
width = 0;
}
);
note = MAD_LARGE;
unicode = 0653;
category = Mark;
subCategory = Nonspacing;
},
{
glyphname = HAMZA_BELOW;
lastChange = "2020-10-13 12:49:45 +0000";
layers = (
{
anchors = (
{
name = _top2;
position = "{0, 0}";
}
);
layerId = "6D6001D6-F15D-4D59-841D-B4ABFE65A828";
paths = (
{
closed = 1;
nodes = (
"124.106 -969.726 OFFCURVE",
"107.68 -1000.993 OFFCURVE",
"145.5 -1015 CURVE SMOOTH",
"163.5 -1021.667 OFFCURVE",
"184.5 -1024.667 OFFCURVE",
"210.5 -1014 CURVE SMOOTH",
"292.872 -980.206 OFFCURVE",
"278.707 -919.055 OFFCURVE",
"348.5 -878 CURVE",
"348.167 -874 OFFCURVE",
"360 -869 OFFCURVE",
"384 -863 CURVE",
"399.333 -863 OFFCURVE",
"411.167 -867.5 OFFCURVE",
"419.5 -876.5 CURVE SMOOTH",
"427.833 -885.5 OFFCURVE",
"434.333 -885.667 OFFCURVE",
"439 -877 CURVE SMOOTH",
"456.333 -844.333 OFFCURVE",
"465.667 -809 OFFCURVE",
"467 -771 CURVE",
"457.422 -749.449 OFFCURVE",
"423.285 -743.474 OFFCURVE",
"379 -767 CURVE SMOOTH",
"369 -772.333 OFFCURVE",
"359.667 -779.333 OFFCURVE",
"351 -788 CURVE SMOOTH",
"304.131 -834.869 OFFCURVE",
"292.444 -917 OFFCURVE",
"225 -917 CURVE SMOOTH",
"207.667 -917 OFFCURVE",
"193.667 -911.667 OFFCURVE",
"183 -901 CURVE SMOOTH",
"179 -897 OFFCURVE",
"171.667 -898.667 OFFCURVE",
"161 -906 CURVE"
);
}
);
width = 0;
}
);
note = HAMZA_BELOW;
unicode = 0655;
category = Mark;
subCategory = Nonspacing;
},
{
glyphname = arabicdecimalseparator;
lastChange = "2020-10-13 12:04:57 +0000";
layers = (
{
layerId = "6D6001D6-F15D-4D59-841D-B4ABFE65A828";
paths = (
{
closed = 1;
nodes = (
"176 -380.667 OFFCURVE",
"182.333 -389 OFFCURVE",
"195 -389 CURVE SMOOTH",
"220.333 -389 OFFCURVE",
"251.333 -352.833 OFFCURVE",
"282 -297.5 CURVE SMOOTH",
"297.333 -269.833 OFFCURVE",
"312.333 -237.667 OFFCURVE",
"327 -201 CURVE SMOOTH",
"356.333 -127.667 OFFCURVE",
"380.167 -45.333 OFFCURVE",
"395.5 36 CURVE SMOOTH",
"403.167 76.667 OFFCURVE",
"407.667 115.333 OFFCURVE",
"409 152 CURVE SMOOTH",
"409 156 LINE SMOOTH",
"409 210.263 OFFCURVE",
"359.091 293 OFFCURVE",
"313 293 CURVE SMOOTH",
"239.128 293 OFFCURVE",
"164 153.348 OFFCURVE",
"164 68 CURVE SMOOTH",
"164 25.333 OFFCURVE",
"180 4 OFFCURVE",
"212 4 CURVE SMOOTH",
"243.502 4 OFFCURVE",
"272.024 13.814 OFFCURVE",
"284 21 CURVE SMOOTH",
"286.667 22.333 OFFCURVE",
"287.667 23.333 OFFCURVE",
"287 24 CURVE",
"303 23.333 OFFCURVE",
"311 4.333 OFFCURVE",
"311 -33 CURVE SMOOTH",
"311 -57 OFFCURVE",
"296 -100.833 OFFCURVE",
"276 -149.5 CURVE SMOOTH",
"266 -173.833 OFFCURVE",
"255.167 -198.5 OFFCURVE",
"243.5 -223.5 CURVE SMOOTH",
"230.642 -251.053 OFFCURVE",
"176 -362.042 OFFCURVE",
"176 -364 CURVE SMOOTH"
);
}
);
width = 623;
}
);
note = arabicdecimalseparator;
unicode = 066B;
},
{
glyphname = arabicthousandseparator;
lastChange = "2020-10-13 12:04:57 +0000";
layers = (
{
layerId = "6D6001D6-F15D-4D59-841D-B4ABFE65A828";
paths = (
{
closed = 1;
nodes = (
"397 284.667 OFFCURVE",
"390.667 293 OFFCURVE",
"378 293 CURVE SMOOTH",
"352.667 293 OFFCURVE",
"321.667 256.833 OFFCURVE",
"291 201.5 CURVE SMOOTH",
"275.667 173.833 OFFCURVE",
"260.667 141.667 OFFCURVE",
"246 105 CURVE SMOOTH",
"216.667 31.667 OFFCURVE",
"192.833 -50.667 OFFCURVE",
"177.5 -132 CURVE SMOOTH",
"169.833 -172.667 OFFCURVE",
"165.333 -211.333 OFFCURVE",
"164 -248 CURVE SMOOTH",
"164 -252 LINE SMOOTH",
"164 -306.263 OFFCURVE",
"213.909 -389 OFFCURVE",
"260 -389 CURVE SMOOTH",
"333.872 -389 OFFCURVE",
"409 -249.348 OFFCURVE",
"409 -164 CURVE SMOOTH",
"409 -121.333 OFFCURVE",
"393 -100 OFFCURVE",
"361 -100 CURVE SMOOTH",
"329.498 -100 OFFCURVE",
"300.976 -109.814 OFFCURVE",
"289 -117 CURVE SMOOTH",
"286.333 -118.333 OFFCURVE",
"285.333 -119.333 OFFCURVE",
"286 -120 CURVE",
"270 -119.333 OFFCURVE",
"262 -100.333 OFFCURVE",
"262 -63 CURVE SMOOTH",
"262 -39 OFFCURVE",
"277 4.833 OFFCURVE",
"297 53.5 CURVE SMOOTH",
"307 77.833 OFFCURVE",
"317.833 102.5 OFFCURVE",
"329.5 127.5 CURVE SMOOTH",
"342.358 155.053 OFFCURVE",
"397 266.042 OFFCURVE",
"397 268 CURVE SMOOTH"
);
}
);
width = 587;
}
);
note = arabicthousandseparator;
unicode = 066C;
},
{
glyphname = HAMZA_ABOVE;
lastChange = "2020-10-13 12:49:45 +0000";
layers = (
{
anchors = (
{
name = Anchor121;
position = "{27, 275}";
},
{
name = _bottom2;
position = "{0, 0}";
}
);
layerId = "6D6001D6-F15D-4D59-841D-B4ABFE65A828";
paths = (
{
closed = 1;
nodes = (
"140.106 1324.274 OFFCURVE",
"123.68 1293.007 OFFCURVE",
"161.5 1279 CURVE SMOOTH",
"179.5 1272.333 OFFCURVE",
"200.5 1269.333 OFFCURVE",
"226.5 1280 CURVE SMOOTH",
"308.872 1313.794 OFFCURVE",
"294.707 1374.945 OFFCURVE",
"364.5 1416 CURVE",
"364.167 1420 OFFCURVE",
"376 1425 OFFCURVE",
"400 1431 CURVE",
"415.333 1431 OFFCURVE",
"427.167 1426.5 OFFCURVE",
"435.5 1417.5 CURVE SMOOTH",
"443.833 1408.5 OFFCURVE",
"450.333 1408.333 OFFCURVE",
"455 1417 CURVE SMOOTH",
"472.333 1449.667 OFFCURVE",
"481.667 1485 OFFCURVE",
"483 1523 CURVE",
"473.422 1544.551 OFFCURVE",
"439.285 1550.526 OFFCURVE",
"395 1527 CURVE SMOOTH",
"385 1521.667 OFFCURVE",
"375.667 1514.667 OFFCURVE",
"367 1506 CURVE SMOOTH",
"320.131 1459.131 OFFCURVE",
"308.444 1377 OFFCURVE",
"241 1377 CURVE SMOOTH",
"223.667 1377 OFFCURVE",
"209.667 1382.333 OFFCURVE",
"199 1393 CURVE SMOOTH",
"195 1397 OFFCURVE",
"187.667 1395.333 OFFCURVE",
"177 1388 CURVE"
);
}
);
width = 0;
}
);
note = HAMZA_ABOVE;
unicode = "0654,0674";
category = Mark;
subCategory = Nonspacing;
},
{
glyphname = KZABAR;
lastChange = "2020-10-13 12:49:19 +0000";
layers = (
{
anchors = (
{
name = _bottom2;
position = "{0, 0}";
}
);
layerId = "6D6001D6-F15D-4D59-841D-B4ABFE65A828";
paths = (
{
closed = 1;
nodes = (
"320.667 1669.333 OFFCURVE",
"301 1592 OFFCURVE",
"297 1512 CURVE SMOOTH",
"290 1245 LINE",
"371.333 1347.667 OFFCURVE",
"357.667 1513.667 OFFCURVE",
"359 1611 CURVE SMOOTH",
"360 1726 LINE SMOOTH",
"360 1733.333 OFFCURVE",
"359.333 1738.667 OFFCURVE",
"358 1742 CURVE",
"350 1744 LINE"
);
}
);
width = 0;
}
);
note = KZABAR;
unicode = 0670;
category = Mark;
subCategory = Nonspacing;
},
{
glyphname = KZER;
lastChange = "2020-10-13 12:49:45 +0000";
layers = (
{
anchors = (
{
name = _top2;
position = "{0, 0}";
}
);
layerId = "6D6001D6-F15D-4D59-841D-B4ABFE65A828";
paths = (
{
closed = 1;
nodes = (
"319.667 -833.667 OFFCURVE",
"300 -911 OFFCURVE",
"296 -991 CURVE SMOOTH",
"289 -1258 LINE",
"370.333 -1155.333 OFFCURVE",
"356.667 -989.333 OFFCURVE",
"358 -892 CURVE SMOOTH",
"359 -777 LINE SMOOTH",
"359 -769.667 OFFCURVE",
"358.333 -764.333 OFFCURVE",
"357 -761 CURVE",
"349 -759 LINE"
);
}
);
width = 0;
}
);
note = KZER;
unicode = 0656;
category = Mark;
subCategory = Nonspacing;
},
{
glyphname = KPESH;
lastChange = "2020-10-13 12:49:45 +0000";
layers = (
{
anchors = (
{
name = _bottom2;
position = "{0, 0}";
}
);
layerId = "6D6001D6-F15D-4D59-841D-B4ABFE65A828";
paths = (
{
closed = 1;
nodes = (
"293.667 1634.667 OFFCURVE",
"203.833 1478.333 OFFCURVE",
"228.5 1373 CURVE SMOOTH",
"240.833 1320.333 OFFCURVE",
"260.667 1294 OFFCURVE",
"288 1294 CURVE",
"345.333 1288.667 OFFCURVE",
"371.667 1301.333 OFFCURVE",
"401 1352 CURVE SMOOTH",
"415.667 1377.333 OFFCURVE",
"423 1402 OFFCURVE",
"423 1426 CURVE SMOOTH",
"423 1452.667 OFFCURVE",
"419 1467.667 OFFCURVE",
"411 1471 CURVE",
"396.333 1485.667 OFFCURVE",
"377.667 1472.333 OFFCURVE",
"367 1447 CURVE",
"362.333 1439 OFFCURVE",
"359.167 1432.333 OFFCURVE",
"357.5 1427 CURVE SMOOTH",
"355.833 1421.667 OFFCURVE",
"351.333 1417.667 OFFCURVE",
"344 1415 CURVE",
"322.667 1415 OFFCURVE",
"303 1460.667 OFFCURVE",
"303 1482 CURVE SMOOTH",
"303 1578.354 OFFCURVE",
"368.859 1631.554 OFFCURVE",
"427 1698 CURVE",
"433 1710 OFFCURVE",
"442 1725 OFFCURVE",
"454 1743 CURVE SMOOTH",
"466 1761 OFFCURVE",
"472 1771.333 OFFCURVE",
"472 1774 CURVE",
"478.667 1790 OFFCURVE",
"478.667 1798 OFFCURVE",
"472 1798 CURVE SMOOTH",
"466 1798 OFFCURVE",
"460.667 1795.667 OFFCURVE",
"456 1791 CURVE SMOOTH",
"449.333 1785.667 OFFCURVE",
"389.667 1733.333 OFFCURVE",
"367 1708 CURVE SMOOTH"
);
}
);
width = 0;
}
);
note = KPESH;
unicode = 0657;
category = Mark;
subCategory = Nonspacing;
},
{
glyphname = uni0610;
lastChange = "2020-10-13 12:49:45 +0000";
layers = (
{
anchors = (
{
name = _bottom2;
position = "{0, 0}";
}
);
layerId = "6D6001D6-F15D-4D59-841D-B4ABFE65A828";
paths = (
{
closed = 1;
nodes = (
"418.598 1615.635 OFFCURVE",
"328.929 1590.008 OFFCURVE",
"302 1593 CURVE SMOOTH",
"291.78 1594.136 OFFCURVE",
"339.286 1655.062 OFFCURVE",
"378 1716 CURVE",
"403.333 1740.667 OFFCURVE",
"426.667 1753 OFFCURVE",
"448 1753 CURVE SMOOTH",
"482 1755.667 OFFCURVE",
"505.333 1741 OFFCURVE",
"518 1709 CURVE",
"504 1675 LINE"
);
},
{
closed = 1;
nodes = (
"232.667 1594.333 OFFCURVE",
"216.167 1598.5 OFFCURVE",
"208.5 1607.5 CURVE SMOOTH",
"178 1643 LINE",
"144.667 1631 OFFCURVE",
"124.667 1592.667 OFFCURVE",
"118 1528 CURVE",
"119.333 1482.667 OFFCURVE",
"121.833 1441.667 OFFCURVE",
"125.5 1405 CURVE SMOOTH",
"129.167 1368.333 OFFCURVE",
"129.667 1308 OFFCURVE",
"127 1224 CURVE",
"161.585 1238.822 OFFCURVE",
"175.389 1283.549 OFFCURVE",
"187.5 1311 CURVE SMOOTH",
"197.5 1333.667 OFFCURVE",
"224 1445.333 OFFCURVE",
"224 1448 CURVE",
"304 1445.333 OFFCURVE",
"389.667 1469 OFFCURVE",
"423 1497 CURVE SMOOTH",
"511 1567.667 OFFCURVE",
"544.167 1659.333 OFFCURVE",
"555.5 1730 CURVE SMOOTH",
"566.833 1800.667 OFFCURVE",
"554.333 1830.167 OFFCURVE",
"505 1849.5 CURVE SMOOTH",
"421.697 1882.146 OFFCURVE",
"289.782 1668.099 OFFCURVE",
"258 1595 CURVE"
);
}
);
width = 0;
}
);
note = uni0610;
unicode = 0610;
category = Mark;
subCategory = Nonspacing;
},
{
glyphname = RZ;
lastChange = "2020-10-13 12:49:45 +0000";
layers = (
{
anchors = (
{
name = _bottom2;
position = "{0, 0}";
}
);
layerId = "6D6001D6-F15D-4D59-841D-B4ABFE65A828";
paths = (
{
closed = 1;
nodes = (
"668 1759 OFFCURVE",
"658 1741 OFFCURVE",
"648 1705 CURVE SMOOTH",
"630 1641 OFFCURVE",
"621 1608.333 OFFCURVE",
"621 1607 CURVE SMOOTH",
"618.66 1574.237 OFFCURVE",
"576.825 1491.019 OFFCURVE",
"567.5 1479.5 CURVE SMOOTH",
"560.896 1471.342 OFFCURVE",
"531.645 1440.941 OFFCURVE",
"506.5 1417.5 CURVE SMOOTH",
"467.167 1380.833 OFFCURVE",
"413.833 1340 OFFCURVE",
"358.5 1304 CURVE SMOOTH",
"350.833 1300 OFFCURVE",
"337 1287.667 OFFCURVE",
"317 1267 CURVE",
"317 1266.333 OFFCURVE",
"318.333 1266 OFFCURVE",
"321 1266 CURVE SMOOTH",
"368.672 1266 OFFCURVE",
"430.08 1292.204 OFFCURVE",
"499 1311 CURVE SMOOTH",
"573.155 1331.224 OFFCURVE",
"610.906 1429.774 OFFCURVE",
"652.5 1571 CURVE",
"658.833 1578.333 OFFCURVE",
"664 1592.333 OFFCURVE",
"668 1613 CURVE SMOOTH",
"691 1734 LINE",
"691 1750.667 OFFCURVE",
"686.667 1759 OFFCURVE",
"678 1759 CURVE SMOOTH"
);
},
{
closed = 1;
nodes = (
"364.723 1630.734 OFFCURVE",
"276.449 1605.061 OFFCURVE",
"250 1608 CURVE SMOOTH",
"238.702 1609.255 OFFCURVE",
"285.516 1668.312 OFFCURVE",
"325 1729 CURVE",
"350.333 1754.333 OFFCURVE",
"373.333 1767 OFFCURVE",
"394 1767 CURVE SMOOTH",
"428 1769 OFFCURVE",
"451 1754.333 OFFCURVE",
"463 1723 CURVE",
"449 1689 LINE"
);
},
{
closed = 1;
nodes = (
"262 1924.991 OFFCURVE",
"195.667 1981 OFFCURVE",
"167 1981 CURVE SMOOTH",
"144.898 1981 OFFCURVE",
"91 1887.281 OFFCURVE",
"91 1864 CURVE SMOOTH",
"91 1841.848 OFFCURVE",
"163.391 1797 OFFCURVE",
"183 1797 CURVE SMOOTH",
"211.524 1797 OFFCURVE",
"262 1871.317 OFFCURVE",
"262 1896 CURVE SMOOTH"
);
},
{
closed = 1;
nodes = (
"181.667 1609.333 OFFCURVE",
"165.167 1613.5 OFFCURVE",
"157.5 1622.5 CURVE SMOOTH",
"127 1658 LINE",
"94.333 1646 OFFCURVE",
"78 1617.333 OFFCURVE",
"78 1572 CURVE",
"78 1572 OFFCURVE",
"101.167 1445.5 OFFCURVE",
"100.5 1419.5 CURVE SMOOTH",
"100.167 1406.5 OFFCURVE",
"101.667 1391 OFFCURVE",
"105 1373 CURVE",
"109 1246 LINE",
"152.456 1265.314 OFFCURVE",
"163.391 1327.018 OFFCURVE",
"170.5 1358.5 CURVE SMOOTH",
"173.944 1373.752 OFFCURVE",
"193 1459.741 OFFCURVE",
"193 1463 CURVE",
"245 1463 OFFCURVE",
"335.667 1486.333 OFFCURVE",
"369 1513 CURVE SMOOTH",
"457 1583.667 OFFCURVE",
"489.333 1673.5 OFFCURVE",
"500 1743.5 CURVE SMOOTH",
"510.667 1813.5 OFFCURVE",
"499.167 1842.167 OFFCURVE",
"450.5 1861.5 CURVE SMOOTH",
"367.018 1894.664 OFFCURVE",
"237.87 1683.114 OFFCURVE",
"207 1610 CURVE"
);
}
);
width = 0;
}
);
note = RZ;
unicode = 0613;
category = Mark;
subCategory = Nonspacing;
},
{
glyphname = AS;
lastChange = "2020-10-13 12:49:45 +0000";
layers = (
{
anchors = (
{
name = _bottom2;
position = "{0, 0}";
}
);
layerId = "6D6001D6-F15D-4D59-841D-B4ABFE65A828";
paths = (
{
closed = 1;
nodes = (
"232.333 1297.667 OFFCURVE",
"243.667 1334.667 OFFCURVE",
"253 1382 CURVE",
"266.333 1376.667 OFFCURVE",
"290.667 1374 OFFCURVE",
"326 1374 CURVE SMOOTH",
"432.745 1374 OFFCURVE",
"563.656 1483.411 OFFCURVE",
"611 1608 CURVE",
"560.966 1608 OFFCURVE",
"528.967 1516.394 OFFCURVE",
"452.5 1532 CURVE SMOOTH",
"419.044 1538.828 OFFCURVE",
"399 1562.018 OFFCURVE",
"399 1581 CURVE SMOOTH",
"399 1637.596 OFFCURVE",
"444.263 1650 OFFCURVE",
"495 1650 CURVE SMOOTH",
"544.403 1650 OFFCURVE",
"591 1654.133 OFFCURVE",
"591 1704 CURVE SMOOTH",
"591 1728.166 OFFCURVE",
"561.564 1751 OFFCURVE",
"537 1751 CURVE SMOOTH",
"481 1749.667 OFFCURVE",
"430 1719.333 OFFCURVE",
"386 1654 CURVE SMOOTH",
"351.333 1603.333 OFFCURVE",
"328.667 1565.667 OFFCURVE",
"314 1539 CURVE",
"278.715 1535.286 OFFCURVE",
"259.589 1563.813 OFFCURVE",
"258 1594 CURVE",
"204.667 1591.333 OFFCURVE",
"179.333 1515.667 OFFCURVE",
"178 1493 CURVE",
"186.165 1392.293 OFFCURVE",
"186.652 1281.857 OFFCURVE",
"193.5 1265 CURVE SMOOTH",
"197.833 1254.333 OFFCURVE",
"206.333 1256.333 OFFCURVE",
"219 1271 CURVE"
);
}
);
width = 0;
}
);
note = AS;
unicode = 0611;
category = Mark;
subCategory = Nonspacing;
},
{
glyphname = RHA;
lastChange = "2020-10-13 12:49:45 +0000";
layers = (
{
anchors = (
{
name = _bottom2;
position = "{0, 0}";
}
);
layerId = "6D6001D6-F15D-4D59-841D-B4ABFE65A828";
paths = (
{
closed = 1;
nodes = (
"145 1414 OFFCURVE",
"166.333 1436.333 OFFCURVE",
"189 1457 CURVE SMOOTH",
"348 1595 LINE",
"419 1658 LINE",
"461.667 1714.667 OFFCURVE",
"463.667 1748.333 OFFCURVE",
"425 1759 CURVE",
"401.667 1769.667 OFFCURVE",
"378.333 1776.667 OFFCURVE",
"355 1780 CURVE SMOOTH",
"353 1780 LINE",
"278 1788 LINE",
"275 1788 LINE SMOOTH",
"231 1788 OFFCURVE",
"170 1748.833 OFFCURVE",
"134 1713.5 CURVE SMOOTH",
"98 1678.167 OFFCURVE",
"42.167 1602.667 OFFCURVE",
"49.5 1588 CURVE SMOOTH",
"52.532 1581.936 OFFCURVE",
"203.089 1690 OFFCURVE",
"205 1690 CURVE SMOOTH",
"254.333 1690 OFFCURVE",
"318.333 1672.667 OFFCURVE",
"325 1650 CURVE",
"250.333 1586 OFFCURVE",
"230.833 1565.5 OFFCURVE",
"187.5 1519.5 CURVE SMOOTH",
"165.833 1496.5 OFFCURVE",
"135.667 1458 OFFCURVE",
"97 1404 CURVE SMOOTH",
"85 1386.667 OFFCURVE",
"113 1378 OFFCURVE",
"125 1390 CURVE SMOOTH"
);
},
{
closed = 1;
nodes = (
"654.333 1781 OFFCURVE",
"644 1762.333 OFFCURVE",
"634 1725 CURVE SMOOTH",
"606 1625 LINE",
"604.037 1597.518 OFFCURVE",
"573.978 1534.12 OFFCURVE",
"566 1517.5 CURVE SMOOTH",
"558 1500.833 OFFCURVE",
"547 1487.167 OFFCURVE",
"531 1470.5 CURVE SMOOTH",
"515 1453.833 OFFCURVE",
"470.833 1411.833 OFFCURVE",
"423.5 1372.5 CURVE SMOOTH",
"399.833 1352.833 OFFCURVE",
"375.833 1332.333 OFFCURVE",
"351.5 1311 CURVE SMOOTH",
"302.833 1268.333 OFFCURVE",
"313.333 1259 OFFCURVE",
"396 1291 CURVE",
"398.692 1296.385 OFFCURVE",
"506.839 1329.145 OFFCURVE",
"526.5 1344 CURVE SMOOTH",
"541.5 1355.333 OFFCURVE",
"555.167 1373.833 OFFCURVE",
"567.5 1399.5 CURVE SMOOTH",
"579.833 1425.167 OFFCURVE",
"598.5 1475.333 OFFCURVE",
"623.5 1550 CURVE",
"618.5 1525.333 OFFCURVE",
"621.333 1527.5 OFFCURVE",
"632 1556.5 CURVE SMOOTH",
"642.667 1585.5 OFFCURVE",
"658 1651.667 OFFCURVE",
"678 1755 CURVE",
"678 1772.333 OFFCURVE",
"673.667 1781 OFFCURVE",
"665 1781 CURVE SMOOTH"
);
}
);
width = 0;
}
);
note = RHA;
unicode = 0612;
category = Mark;
subCategory = Nonspacing;
},
{
glyphname = sdb;
lastChange = "2020-10-16 13:39:00 +0000";
layers = (
{
anchors = (
{
name = Anchor119;
position = "{-45, 261}";
},
{
name = _bottom;
position = "{0, 0}";
},
{
name = bottom;
position = "{263, -676}";
}
);
layerId = "6D6001D6-F15D-4D59-841D-B4ABFE65A828";
paths = (
{
closed = 1;
nodes = (
"247.333 -61 OFFCURVE",
"235.333 -69 OFFCURVE",
"222 -85 CURVE",
"196 -128.333 OFFCURVE",
"173.333 -163.667 OFFCURVE",
"154 -191 CURVE SMOOTH",
"124.667 -228.333 OFFCURVE",
"110 -255.333 OFFCURVE",
"110 -272 CURVE SMOOTH",
"110 -275 LINE SMOOTH",
"110 -281 OFFCURVE",
"118.667 -291.667 OFFCURVE",
"136 -307 CURVE SMOOTH",
"190 -349 OFFCURVE",
"227.667 -372 OFFCURVE",
"249 -376 CURVE",
"253.667 -376 OFFCURVE",
"261.667 -374 OFFCURVE",
"273 -370 CURVE",
"273.667 -370 OFFCURVE",
"285.333 -359 OFFCURVE",
"308 -337 CURVE SMOOTH",
"338 -305.667 OFFCURVE",
"358.667 -281.667 OFFCURVE",
"370 -265 CURVE SMOOTH",
"392.667 -229.667 OFFCURVE",
"404 -204 OFFCURVE",
"404 -188 CURVE SMOOTH",
"404 -184 LINE SMOOTH",
"404 -176.667 OFFCURVE",
"400.333 -168.333 OFFCURVE",
"393 -159 CURVE SMOOTH",
"379 -144.333 OFFCURVE",
"364.667 -131 OFFCURVE",
"350 -119 CURVE SMOOTH",
"303.333 -81 OFFCURVE",
"273 -61 OFFCURVE",
"259 -61 CURVE SMOOTH",
"258 -61 LINE SMOOTH"
);
}
);
width = 0;
}
);
note = sdb;
category = Mark;
subCategory = Nonspacing;
},
{
glyphname = tdb;
lastChange = "2020-10-13 12:20:46 +0000";
layers = (
{
anchors = (
{
name = Anchor119;
position = "{0, 25}";
},
{
name = _bottom;
position = "{0, 0}";
}
);
layerId = "6D6001D6-F15D-4D59-841D-B4ABFE65A828";
paths = (
{
closed = 1;
nodes = (
"370.111 -468.333 OFFCURVE",
"291.794 -407.72 OFFCURVE",
"264 -382.5 CURVE SMOOTH",
"228 -349.833 OFFCURVE",
"131 -530.667 OFFCURVE",
"131 -564 CURVE SMOOTH",
"131 -569.284 OFFCURVE",
"173.087 -607.075 OFFCURVE",
"187.5 -619.5 CURVE SMOOTH",
"202.953 -632.822 OFFCURVE",
"241.848 -668 OFFCURVE",
"248 -668 CURVE",
"293.542 -657.879 OFFCURVE",
"375 -546.139 OFFCURVE",
"375 -490 CURVE SMOOTH",
"375 -484.667 OFFCURVE",
"374.667 -481.333 OFFCURVE",
"374 -480 CURVE SMOOTH"
);
},
{
closed = 1;
nodes = (
"305 -346.667 OFFCURVE",
"344 -372 OFFCURVE",
"356 -372 CURVE SMOOTH",
"362 -372 OFFCURVE",
"369.333 -370 OFFCURVE",
"378 -366 CURVE",
"452.667 -294 OFFCURVE",
"493.667 -235.333 OFFCURVE",
"501 -190 CURVE",
"501 -181 LINE SMOOTH",
"501 -174.333 OFFCURVE",
"497 -164.333 OFFCURVE",
"489 -151 CURVE",
"428.333 -93 OFFCURVE",
"387.333 -62 OFFCURVE",
"366 -58 CURVE",
"354.667 -58 OFFCURVE",
"342.667 -66.333 OFFCURVE",
"330 -83 CURVE",
"303.333 -127 OFFCURVE",
"274.667 -165.667 OFFCURVE",
"244 -199 CURVE",
"240 -195 LINE SMOOTH",
"176.667 -133.667 OFFCURVE",
"139 -103 OFFCURVE",
"127 -103 CURVE SMOOTH",
"124 -103 LINE SMOOTH",
"117.333 -103 OFFCURVE",
"107 -109.667 OFFCURVE",
"93 -123 CURVE",
"23 -218.333 OFFCURVE",
"-13.333 -280 OFFCURVE",
"-16 -308 CURVE SMOOTH",
"-16 -314 LINE",
"-7 -326 LINE",
"59.667 -387.333 OFFCURVE",
"102.667 -418 OFFCURVE",
"122 -418 CURVE",
"130.667 -414 OFFCURVE",
"137.667 -409.333 OFFCURVE",
"143 -404 CURVE SMOOTH",
"186.333 -352 OFFCURVE",
"218.333 -316 OFFCURVE",
"239 -296 CURVE"
);
}
);
width = 0;
}
);
note = tdb;
category = Mark;
subCategory = Nonspacing;
},
{
glyphname = ddb;
lastChange = "2020-10-13 12:20:46 +0000";
layers = (
{
anchors = (
{
name = Anchor119;
position = "{-9, 243}";
},
{
name = _bottom;
position = "{0, 0}";
}
);
layerId = "6D6001D6-F15D-4D59-841D-B4ABFE65A828";
paths = (
{
closed = 1;
nodes = (
"315 -346.667 OFFCURVE",
"354 -372 OFFCURVE",
"366 -372 CURVE SMOOTH",
"372 -372 OFFCURVE",
"379.333 -370 OFFCURVE",
"388 -366 CURVE",
"462.667 -294 OFFCURVE",
"503.667 -235.333 OFFCURVE",
"511 -190 CURVE",
"511 -181 LINE SMOOTH",
"511 -174.333 OFFCURVE",
"507 -164.333 OFFCURVE",
"499 -151 CURVE",
"438.333 -93 OFFCURVE",
"397.333 -62 OFFCURVE",
"376 -58 CURVE",
"364.667 -58 OFFCURVE",
"352.667 -66.333 OFFCURVE",
"340 -83 CURVE",
"313.333 -127 OFFCURVE",
"284.667 -165.667 OFFCURVE",
"254 -199 CURVE",
"250 -195 LINE SMOOTH",
"186.667 -133.667 OFFCURVE",
"149 -103 OFFCURVE",
"137 -103 CURVE SMOOTH",
"134 -103 LINE SMOOTH",
"127.333 -103 OFFCURVE",
"117 -109.667 OFFCURVE",
"103 -123 CURVE",
"33 -218.333 OFFCURVE",
"-3.333 -280 OFFCURVE",
"-6 -308 CURVE SMOOTH",
"-6 -314 LINE",
"3 -326 LINE",
"69.667 -387.333 OFFCURVE",
"112.667 -418 OFFCURVE",
"132 -418 CURVE",
"140.667 -414 OFFCURVE",
"147.667 -409.333 OFFCURVE",
"153 -404 CURVE SMOOTH",
"196.333 -352 OFFCURVE",
"228.333 -316 OFFCURVE",
"249 -296 CURVE"
);
}
);
width = 0;
}
);
note = ddb;
category = Mark;
subCategory = Nonspacing;
},
{
glyphname = haydb;
lastChange = "2020-10-13 12:20:46 +0000";
layers = (
{
anchors = (
{
name = Anchor119;
position = "{0, 134}";
},
{
name = _bottom;
position = "{0, 0}";
}
);
layerId = "6D6001D6-F15D-4D59-841D-B4ABFE65A828";
paths = (
{
closed = 1;
nodes = (
"292.667 -117 OFFCURVE",
"267.667 -156.333 OFFCURVE",
"249 -191 CURVE SMOOTH",
"230.333 -225.667 OFFCURVE",
"220.333 -244.667 OFFCURVE",
"219 -248 CURVE SMOOTH",
"185.667 -322.667 OFFCURVE",
"167.833 -375.167 OFFCURVE",
"165.5 -405.5 CURVE SMOOTH",
"160.833 -466.167 OFFCURVE",
"168.833 -484.5 OFFCURVE",
"181.5 -506.5 CURVE SMOOTH",
"194.167 -528.5 OFFCURVE",
"213.667 -544 OFFCURVE",
"239 -544 CURVE SMOOTH",
"299.363 -544 OFFCURVE",
"370 -459.818 OFFCURVE",
"370 -394 CURVE SMOOTH",
"370 -370.667 OFFCURVE",
"361.333 -351.333 OFFCURVE",
"344 -336 CURVE",
"282 -404 LINE",
"274.667 -414 OFFCURVE",
"263.667 -414.333 OFFCURVE",
"249 -405 CURVE",
"217.719 -353.479 OFFCURVE",
"242.793 -281.414 OFFCURVE",
"266.5 -234 CURVE SMOOTH",
"289.858 -187.284 OFFCURVE",
"329.074 -117.081 OFFCURVE",
"346 -90 CURVE",
"346 -88 LINE",
"358 -68 OFFCURVE",
"344 -49 OFFCURVE",
"324 -73 CURVE"
);
}
);
width = 0;
}
);
note = haydb;
category = Mark;
subCategory = Nonspacing;
},
{
glyphname = glyph00198;
lastChange = "2020-10-13 12:20:46 +0000";
layers = (
{
anchors = (
{
name = Anchor119;
position = "{-291, 70}";
}
);
layerId = "6D6001D6-F15D-4D59-841D-B4ABFE65A828";
paths = (
{
closed = 1;
nodes = (
"47.333 -341 OFFCURVE",
"35.333 -349 OFFCURVE",
"22 -365 CURVE",
"-4 -408.333 OFFCURVE",
"-26.667 -443.667 OFFCURVE",
"-46 -471 CURVE SMOOTH",
"-75.333 -508.333 OFFCURVE",
"-90 -535.333 OFFCURVE",
"-90 -552 CURVE SMOOTH",
"-90 -555 LINE SMOOTH",
"-90 -561 OFFCURVE",
"-81.333 -571.667 OFFCURVE",
"-64 -587 CURVE SMOOTH",
"-10 -629 OFFCURVE",
"27.667 -652 OFFCURVE",
"49 -656 CURVE",
"53.667 -656 OFFCURVE",
"61.667 -654 OFFCURVE",
"73 -650 CURVE",
"73.667 -650 OFFCURVE",
"85.333 -639 OFFCURVE",
"108 -617 CURVE SMOOTH",
"138 -585.667 OFFCURVE",
"158.667 -561.667 OFFCURVE",
"170 -545 CURVE SMOOTH",
"192.667 -509.667 OFFCURVE",
"204 -484 OFFCURVE",
"204 -468 CURVE SMOOTH",
"204 -464 LINE SMOOTH",
"204 -456.667 OFFCURVE",
"200.333 -448.333 OFFCURVE",
"193 -439 CURVE SMOOTH",
"179 -424.333 OFFCURVE",
"164.667 -411 OFFCURVE",
"150 -399 CURVE SMOOTH",
"103.333 -361 OFFCURVE",
"73 -341.667 OFFCURVE",
"59 -341 CURVE SMOOTH",
"58 -341 LINE SMOOTH"
);
}
);
width = 0;
}
);
note = glyph00198;
category = Mark;
subCategory = Nonspacing;
},
{
glyphname = glyph00199;
lastChange = "2020-10-13 12:20:46 +0000";
layers = (
{
anchors = (
{
name = Anchor119;
position = "{-218, -157}";
}
);
layerId = "6D6001D6-F15D-4D59-841D-B4ABFE65A828";
paths = (
{
closed = 1;
nodes = (
"226.111 -718.333 OFFCURVE",
"147.794 -657.72 OFFCURVE",
"120 -632.5 CURVE SMOOTH",
"84 -599.833 OFFCURVE",
"-13 -780.667 OFFCURVE",
"-13 -814 CURVE SMOOTH",
"-13 -819.284 OFFCURVE",
"29.087 -857.075 OFFCURVE",
"43.5 -869.5 CURVE SMOOTH",
"58.953 -882.822 OFFCURVE",
"97.848 -918 OFFCURVE",
"104 -918 CURVE",
"149.542 -907.879 OFFCURVE",
"231 -796.139 OFFCURVE",
"231 -740 CURVE SMOOTH",
"231 -734.667 OFFCURVE",
"230.667 -731.333 OFFCURVE",
"230 -730 CURVE SMOOTH"
);
},
{
closed = 1;
nodes = (
"161 -596.667 OFFCURVE",
"200 -622 OFFCURVE",
"212 -622 CURVE SMOOTH",
"218 -622 OFFCURVE",
"225.333 -620 OFFCURVE",
"234 -616 CURVE",
"308.667 -544 OFFCURVE",
"349.667 -485.333 OFFCURVE",
"357 -440 CURVE",
"357 -431 LINE SMOOTH",
"357 -424.333 OFFCURVE",
"353 -414.333 OFFCURVE",
"345 -401 CURVE",
"284.333 -343 OFFCURVE",
"243.333 -312 OFFCURVE",
"222 -308 CURVE",
"210.667 -308 OFFCURVE",
"198.667 -316.333 OFFCURVE",
"186 -333 CURVE",
"159.333 -377 OFFCURVE",
"130.667 -415.667 OFFCURVE",
"100 -449 CURVE",
"96 -445 LINE SMOOTH",
"32.667 -383.667 OFFCURVE",
"-5 -353 OFFCURVE",
"-17 -353 CURVE SMOOTH",
"-20 -353 LINE SMOOTH",
"-26.667 -353 OFFCURVE",
"-37 -359.667 OFFCURVE",
"-51 -373 CURVE",
"-121 -468.333 OFFCURVE",
"-157.333 -530 OFFCURVE",
"-160 -558 CURVE SMOOTH",
"-160 -564 LINE",
"-151 -576 LINE",
"-84.333 -637.333 OFFCURVE",
"-41.333 -668 OFFCURVE",
"-22 -668 CURVE",
"-13.333 -664 OFFCURVE",
"-6.333 -659.333 OFFCURVE",
"-1 -654 CURVE SMOOTH",
"42.333 -602 OFFCURVE",
"74.333 -566 OFFCURVE",
"95 -546 CURVE"
);
}
);
width = 0;
}
);
note = glyph00199;
category = Mark;
subCategory = Nonspacing;
},
{
glyphname = glyph00200;
lastChange = "2020-10-13 12:20:46 +0000";
layers = (
{
anchors = (
{
name = Anchor119;
position = "{-245, 80}";
}
);
layerId = "6D6001D6-F15D-4D59-841D-B4ABFE65A828";
paths = (
{
closed = 1;
nodes = (
"161 -596.667 OFFCURVE",
"200 -622 OFFCURVE",
"212 -622 CURVE SMOOTH",
"218 -622 OFFCURVE",
"225.333 -620 OFFCURVE",
"234 -616 CURVE",
"308.667 -544 OFFCURVE",
"349.667 -485.333 OFFCURVE",
"357 -440 CURVE",
"357 -431 LINE SMOOTH",
"357 -424.333 OFFCURVE",
"353 -414.333 OFFCURVE",
"345 -401 CURVE",
"284.333 -343 OFFCURVE",
"243.333 -312 OFFCURVE",
"222 -308 CURVE",
"210.667 -308 OFFCURVE",
"198.667 -316.333 OFFCURVE",
"186 -333 CURVE",
"159.333 -377 OFFCURVE",
"130.667 -415.667 OFFCURVE",
"100 -449 CURVE",
"96 -445 LINE SMOOTH",
"32.667 -383.667 OFFCURVE",
"-5 -353 OFFCURVE",
"-17 -353 CURVE SMOOTH",
"-20 -353 LINE SMOOTH",
"-26.667 -353 OFFCURVE",
"-37 -359.667 OFFCURVE",
"-51 -373 CURVE",
"-121 -468.333 OFFCURVE",
"-157.333 -530 OFFCURVE",
"-160 -558 CURVE SMOOTH",
"-160 -564 LINE",
"-151 -576 LINE",
"-84.333 -637.333 OFFCURVE",
"-41.333 -668 OFFCURVE",
"-22 -668 CURVE",
"-13.333 -664 OFFCURVE",
"-6.333 -659.333 OFFCURVE",
"-1 -654 CURVE SMOOTH",
"42.333 -602 OFFCURVE",
"74.333 -566 OFFCURVE",
"95 -546 CURVE"
);
}
);
width = 0;
}
);
note = glyph00200;
category = Mark;
subCategory = Nonspacing;
},
{
glyphname = glyph00201;
lastChange = "2020-10-13 12:20:46 +0000";
layers = (
{
anchors = (
{
name = Anchor119;
position = "{-272, -102}";
}
);
layerId = "6D6001D6-F15D-4D59-841D-B4ABFE65A828";
paths = (
{
closed = 1;
nodes = (
"50 -592.333 OFFCURVE",
"42 -559 OFFCURVE",
"42 -527 CURVE SMOOTH",
"42 -444.961 OFFCURVE",
"134.869 -333.524 OFFCURVE",
"151 -269 CURVE",
"140 -269 LINE",
"58 -401.5 LINE SMOOTH",
"39.333 -431.833 OFFCURVE",
"29.333 -448.667 OFFCURVE",
"28 -452 CURVE SMOOTH",
"-11.333 -525.333 OFFCURVE",
"-31 -585.333 OFFCURVE",
"-31 -632 CURVE SMOOTH",
"-31 -681.711 OFFCURVE",
"-3.097 -742 OFFCURVE",
"46 -742 CURVE SMOOTH",
"106.351 -742 OFFCURVE",
"177 -655.988 OFFCURVE",
"177 -593 CURVE SMOOTH",
"177 -569 OFFCURVE",
"168.333 -549.333 OFFCURVE",
"151 -534 CURVE",
"66 -627 LINE"
);
}
);
width = 0;
}
);
note = glyph00201;
category = Mark;
subCategory = Nonspacing;
},
{
glyphname = sda;
lastChange = "2020-10-13 12:20:46 +0000";
layers = (
{
anchors = (
{
name = Anchor117;
position = "{-81, -1433}";
},
{
name = _top;
position = "{0, 0}";
}
);
layerId = "6D6001D6-F15D-4D59-841D-B4ABFE65A828";
paths = (
{
closed = 1;
nodes = (
"243.333 -304 OFFCURVE",
"231.333 -312 OFFCURVE",
"218 -328 CURVE",
"192 -371.333 OFFCURVE",
"169.333 -406.667 OFFCURVE",
"150 -434 CURVE SMOOTH",
"120.667 -471.333 OFFCURVE",
"106 -498.333 OFFCURVE",
"106 -515 CURVE SMOOTH",
"106 -518 LINE SMOOTH",
"106 -524 OFFCURVE",
"114.667 -534.667 OFFCURVE",
"132 -550 CURVE SMOOTH",
"186 -592 OFFCURVE",
"223.667 -615 OFFCURVE",
"245 -619 CURVE",
"249.667 -619 OFFCURVE",
"257.667 -617 OFFCURVE",
"269 -613 CURVE",
"269.667 -613 OFFCURVE",
"281.333 -602 OFFCURVE",
"304 -580 CURVE SMOOTH",
"334 -548.667 OFFCURVE",
"354.667 -524.667 OFFCURVE",
"366 -508 CURVE SMOOTH",
"388.667 -472.667 OFFCURVE",
"400 -447 OFFCURVE",
"400 -431 CURVE SMOOTH",
"400 -427 LINE SMOOTH",
"400 -419.667 OFFCURVE",
"396.333 -411.333 OFFCURVE",
"389 -402 CURVE SMOOTH",
"375 -387.333 OFFCURVE",
"360.667 -374 OFFCURVE",
"346 -362 CURVE SMOOTH",
"299.333 -324 OFFCURVE",
"269 -304.667 OFFCURVE",
"255 -304 CURVE SMOOTH",
"254 -304 LINE SMOOTH"
);
}
);
width = 0;
}
);
note = sda;
category = Mark;
subCategory = Nonspacing;
},
{
glyphname = NQTA_HAY;
lastChange = "2020-10-13 12:20:46 +0000";
layers = (
{
anchors = (
{
name = Anchor117;
position = "{-18, -1334}";
},
{
name = _top;
position = "{0, 0}";
}
);
layerId = "6D6001D6-F15D-4D59-841D-B4ABFE65A828";
paths = (
{
closed = 1;
nodes = (
"90.004 -534.04 OFFCURVE",
"71.437 -570.87 OFFCURVE",
"111 -585 CURVE SMOOTH",
"120.333 -588.333 OFFCURVE",
"130.5 -590.333 OFFCURVE",
"141.5 -591 CURVE SMOOTH",
"163.5 -592.333 OFFCURVE",
"194.333 -580.167 OFFCURVE",
"213 -563.5 CURVE SMOOTH",
"246.591 -533.508 OFFCURVE",
"274.949 -475.12 OFFCURVE",
"307 -448 CURVE SMOOTH",
"324.333 -433.333 OFFCURVE",
"343.667 -428 OFFCURVE",
"357 -428 CURVE SMOOTH",
"373 -428 OFFCURVE",
"385.333 -432.667 OFFCURVE",
"394 -442 CURVE SMOOTH",
"402.667 -451.333 OFFCURVE",
"409.333 -451.333 OFFCURVE",
"414 -442 CURVE SMOOTH",
"432 -408.667 OFFCURVE",
"444 -366 OFFCURVE",
"450 -314 CURVE",
"440.401 -290.002 OFFCURVE",
"403.577 -284.68 OFFCURVE",
"358 -313.5 CURVE SMOOTH",
"335.333 -327.833 OFFCURVE",
"308.833 -358.167 OFFCURVE",
"278.5 -404.5 CURVE SMOOTH",
"248.167 -450.833 OFFCURVE",
"218.667 -473.667 OFFCURVE",
"190 -473 CURVE SMOOTH",
"172 -473 OFFCURVE",
"157.667 -467.667 OFFCURVE",
"147 -457 CURVE SMOOTH",
"143 -453 OFFCURVE",
"135.333 -454.667 OFFCURVE",
"124 -462 CURVE"
);
}
);
width = 0;
}
);
note = NQTA_HAY;
category = Mark;
subCategory = Nonspacing;
},
{
glyphname = BEu1s;
lastChange = "2020-10-13 12:04:57 +0000";
layers = (
{
anchors = (
{
name = bottom;
position = "{1269, -405}";
},
{
name = bottom2;
position = "{1035, -657}";
},
{
name = top;
position = "{1080, 1116}";
},
{
name = top2;
position = "{0, 0}";
}
);
layerId = "6D6001D6-F15D-4D59-841D-B4ABFE65A828";
paths = (
{
closed = 1;
nodes = (
"600 -233.667 OFFCURVE",
"974 -238.833 OFFCURVE",
"1286 -219.5 CURVE SMOOTH",
"1442 -209.833 OFFCURVE",
"1564 -199.833 OFFCURVE",
"1652 -189.5 CURVE SMOOTH",
"1828 -168.833 OFFCURVE",
"2030.167 -137.5 OFFCURVE",
"2253.5 -67.5 CURVE SMOOTH",
"2476.833 2.5 OFFCURVE",
"2622 93.667 OFFCURVE",
"2706 239 CURVE SMOOTH",
"2748 311.667 OFFCURVE",
"2775.167 372 OFFCURVE",
"2787.5 420 CURVE SMOOTH",
"2812.167 516 OFFCURVE",
"2789.833 529.833 OFFCURVE",
"2710.5 394.5 CURVE",
"2742.615 406.061 OFFCURVE",
"2658.695 296.692 OFFCURVE",
"2564.5 251.5 CURVE SMOOTH",
"2506.833 223.833 OFFCURVE",
"2426.167 195.833 OFFCURVE",
"2322.5 167.5 CURVE SMOOTH",
"2218.833 139.167 OFFCURVE",
"2101.5 114.667 OFFCURVE",
"1970.5 94 CURVE SMOOTH",
"1839.5 73.333 OFFCURVE",
"1549.333 64.167 OFFCURVE",
"1100 66.5 CURVE",
"1267.333 44.167 OFFCURVE",
"1264.167 32 OFFCURVE",
"1090.5 30 CURVE SMOOTH",
"916.833 28 OFFCURVE",
"597.667 80 OFFCURVE",
"133 186 CURVE",
"125 192.667 OFFCURVE",
"116.167 195.833 OFFCURVE",
"106.5 195.5 CURVE SMOOTH",
"96.833 195.167 OFFCURVE",
"92 156.333 OFFCURVE",
"92 79 CURVE SMOOTH",
"92 -25.667 OFFCURVE",
"136.667 -102 OFFCURVE",
"226 -150 CURVE SMOOTH",
"259.333 -168.667 OFFCURVE",
"309.333 -183.667 OFFCURVE",
"376 -195 CURVE SMOOTH"
);
}
);
width = 2866;
}
);
note = BEu1s;
},
{
glyphname = BEf2s;
lastChange = "2020-10-13 12:04:57 +0000";
layers = (
{
anchors = (
{
name = bottom;
position = "{1260, -405}";
},
{
name = bottom2;
position = "{1098, -585}";
},
{
name = entry;
position = "{2997, 351}";
},
{
name = top;
position = "{1125, 1134}";
},
{
name = top2;
position = "{0, 0}";
}
);
layerId = "6D6001D6-F15D-4D59-841D-B4ABFE65A828";
paths = (
{
closed = 1;
nodes = (
"2446 -7 OFFCURVE",
"2551.167 60.5 OFFCURVE",
"2606.5 114.5 CURVE SMOOTH",
"2655.637 162.453 OFFCURVE",
"2679.185 207.496 OFFCURVE",
"2707 252 CURVE SMOOTH",
"2723 278.667 OFFCURVE",
"2738.333 292.167 OFFCURVE",
"2753 292.5 CURVE SMOOTH",
"2767.667 292.833 OFFCURVE",
"2805.333 288 OFFCURVE",
"2866 278 CURVE",
"2888.667 270 OFFCURVE",
"2905.167 275.833 OFFCURVE",
"2932.5 288.5 CURVE SMOOTH",
"2946.167 294.833 OFFCURVE",
"2969.667 317 OFFCURVE",
"3003 355 CURVE SMOOTH",
"3015 368.333 OFFCURVE",
"3025.667 381 OFFCURVE",
"3035 393 CURVE SMOOTH",
"3050.333 413 OFFCURVE",
"3061.333 430 OFFCURVE",
"3068 444 CURVE SMOOTH",
"3077.333 465.333 OFFCURVE",
"3075.333 481 OFFCURVE",
"3062 491 CURVE SMOOTH",
"3054.667 496.333 OFFCURVE",
"3046 497 OFFCURVE",
"3036 493 CURVE SMOOTH",
"3027.333 489 OFFCURVE",
"3018 481.333 OFFCURVE",
"3008 470 CURVE SMOOTH",
"2962.667 422 OFFCURVE",
"2903.333 454.667 OFFCURVE",
"2866 468 CURVE SMOOTH",
"2823.264 484.026 OFFCURVE",
"2783.995 448.993 OFFCURVE",
"2724.5 375.5 CURVE SMOOTH",
"2684.833 326.5 OFFCURVE",
"2645 290 OFFCURVE",
"2605 266 CURVE SMOOTH",
"2560.1 238.369 OFFCURVE",
"2434.082 189.432 OFFCURVE",
"2295.5 156 CURVE SMOOTH",
"2124.167 114.667 OFFCURVE",
"1844.5 68 OFFCURVE",
"1562.5 48 CURVE SMOOTH",
"1280.5 28 OFFCURVE",
"897.333 19.833 OFFCURVE",
"628 48.5 CURVE SMOOTH",
"493.333 62.833 OFFCURVE",
"385.667 82.5 OFFCURVE",
"305 107.5 CURVE SMOOTH",
"224.333 132.5 OFFCURVE",
"167 158.667 OFFCURVE",
"133 186 CURVE SMOOTH",
"125 192.667 OFFCURVE",
"116.167 195.833 OFFCURVE",
"106.5 195.5 CURVE SMOOTH",
"96.833 195.167 OFFCURVE",
"92 156.333 OFFCURVE",
"92 79 CURVE SMOOTH",
"92 -25.667 OFFCURVE",
"136.667 -102 OFFCURVE",
"226 -150 CURVE SMOOTH",
"259.333 -168.667 OFFCURVE",
"309.333 -183.667 OFFCURVE",
"376 -195 CURVE SMOOTH",
"600 -233.667 OFFCURVE",
"974 -238.833 OFFCURVE",
"1286 -219.5 CURVE SMOOTH",
"1442 -209.833 OFFCURVE",
"1564 -199.833 OFFCURVE",
"1652 -189.5 CURVE SMOOTH",
"1828 -168.833 OFFCURVE",
"2030 -137.667 OFFCURVE",
"2254 -67 CURVE SMOOTH"
);
}
);
width = 2932;
}
);
note = BEf2s;
},
{
glyphname = BEf1s;
lastChange = "2020-10-13 12:04:57 +0000";
layers = (
{
anchors = (
{
name = bottom;
position = "{1188, -315}";
},
{
name = bottom2;
position = "{1017, -657}";
},
{
name = entry;
position = "{3027, 254}";
},
{
name = top;
position = "{1161, 1071}";
},
{
name = top2;
position = "{0, 0}";
}
);
layerId = "6D6001D6-F15D-4D59-841D-B4ABFE65A828";
paths = (
{
closed = 1;
nodes = (
"2780 164 OFFCURVE",
"2833.667 139.333 OFFCURVE",
"2849 136 CURVE SMOOTH",
"2905.049 121.379 OFFCURVE",
"3106.079 278.444 OFFCURVE",
"3035 359 CURVE",
"2953.667 312.333 OFFCURVE",
"2854 290.333 OFFCURVE",
"2736 293 CURVE",
"2761.333 342.333 OFFCURVE",
"2778.667 384.667 OFFCURVE",
"2788 420 CURVE SMOOTH",
"2812 516 OFFCURVE",
"2777.833 512.167 OFFCURVE",
"2746.5 447.5 CURVE SMOOTH",
"2715.167 382.833 OFFCURVE",
"2679.833 306.833 OFFCURVE",
"2564.5 251.5 CURVE SMOOTH",
"2449.167 196.167 OFFCURVE",
"2232.5 135.333 OFFCURVE",
"1970.5 94 CURVE SMOOTH",
"1708.5 52.667 OFFCURVE",
"1505.167 26.833 OFFCURVE",
"888.5 51.5 CURVE",
"849.5 35.167 OFFCURVE",
"762.667 34.167 OFFCURVE",
"628 48.5 CURVE SMOOTH",
"493.333 62.833 OFFCURVE",
"328.333 108.667 OFFCURVE",
"133 186 CURVE",
"125 192.667 OFFCURVE",
"116.167 195.833 OFFCURVE",
"106.5 195.5 CURVE SMOOTH",
"96.833 195.167 OFFCURVE",
"92 156.333 OFFCURVE",
"92 79 CURVE SMOOTH",
"92 -25.667 OFFCURVE",
"136.667 -102 OFFCURVE",
"226 -150 CURVE SMOOTH",
"259.333 -168.667 OFFCURVE",
"309.333 -183.667 OFFCURVE",
"376 -195 CURVE SMOOTH",
"600 -233.667 OFFCURVE",
"974 -238.833 OFFCURVE",
"1286 -219.5 CURVE SMOOTH",
"1442 -209.833 OFFCURVE",
"1564 -199.833 OFFCURVE",
"1652 -189.5 CURVE SMOOTH",
"1828 -168.833 OFFCURVE",
"2030.167 -137.5 OFFCURVE",
"2253.5 -67.5 CURVE SMOOTH",
"2365.167 -32.5 OFFCURVE",
"2458 9.333 OFFCURVE",
"2532 58 CURVE SMOOTH",
"2596 99.333 OFFCURVE",
"2648 150 OFFCURVE",
"2688 210 CURVE"
);
}
);
width = 3013;
}
);
note = BEf1s;
},
{
glyphname = FEu1s;
lastChange = "2020-10-13 12:04:57 +0000";
layers = (
{
anchors = (
{
name = bottom2;
position = "{990, -567}";
},
{
name = top;
position = "{1098, 1044}";
},
{
name = top2;
position = "{0, 0}";
}
);
layerId = "6D6001D6-F15D-4D59-841D-B4ABFE65A828";
paths = (
{
closed = 1;
nodes = (
"2651 302.667 OFFCURVE",
"2573.167 258.333 OFFCURVE",
"2476.5 225 CURVE SMOOTH",
"2428.167 208.333 OFFCURVE",
"2377 192.667 OFFCURVE",
"2323 178 CURVE SMOOTH",
"2115 120.667 OFFCURVE",
"1844.5 78 OFFCURVE",
"1562.5 58 CURVE SMOOTH",
"1421.5 48 OFFCURVE",
"1264.167 42 OFFCURVE",
"1090.5 40 CURVE SMOOTH",
"743.167 36 OFFCURVE",
"466.333 67.5 OFFCURVE",
"305 117.5 CURVE SMOOTH",
"224.333 142.5 OFFCURVE",
"167 168.667 OFFCURVE",
"133 196 CURVE SMOOTH",
"125 202.667 OFFCURVE",
"116.167 205.833 OFFCURVE",
"106.5 205.5 CURVE SMOOTH",
"96.833 205.167 OFFCURVE",
"92 166.333 OFFCURVE",
"92 89 CURVE SMOOTH",
"92 -15.667 OFFCURVE",
"136.667 -92 OFFCURVE",
"226 -140 CURVE SMOOTH",
"259.333 -158.667 OFFCURVE",
"309.333 -173.667 OFFCURVE",
"376 -185 CURVE SMOOTH",
"600 -223.667 OFFCURVE",
"974 -228.833 OFFCURVE",
"1286 -209.5 CURVE SMOOTH",
"1442 -199.833 OFFCURVE",
"1564 -189.833 OFFCURVE",
"1652 -179.5 CURVE SMOOTH",
"1828 -158.833 OFFCURVE",
"2030.167 -127.5 OFFCURVE",
"2253.5 -57.5 CURVE SMOOTH",
"2476.833 12.5 OFFCURVE",
"2563.167 74 OFFCURVE",
"2638.5 146 CURVE SMOOTH",
"2713.833 218 OFFCURVE",
"2757.667 320.333 OFFCURVE",
"2775 391 CURVE",
"2785.667 419 OFFCURVE",
"2788.333 515.667 OFFCURVE",
"2787 541 CURVE SMOOTH",
"2777.667 671.667 OFFCURVE",
"2738.333 730.5 OFFCURVE",
"2709 772.5 CURVE SMOOTH",
"2679.667 814.5 OFFCURVE",
"2638.667 842.333 OFFCURVE",
"2612 849 CURVE",
"2564 849 OFFCURVE",
"2526.667 819 OFFCURVE",
"2500 759 CURVE",
"2484.544 709.542 OFFCURVE",
"2430 561.13 OFFCURVE",
"2430 531 CURVE SMOOTH",
"2430 456.829 OFFCURVE",
"2499.785 394 OFFCURVE",
"2577 394 CURVE SMOOTH",
"2593.667 394 OFFCURVE",
"2606.667 396.333 OFFCURVE",
"2616 401 CURVE SMOOTH",
"2630.299 408.149 OFFCURVE",
"2639.372 429 OFFCURVE",
"2655 429 CURVE",
"2693.667 418.333 OFFCURVE",
"2698.333 393.667 OFFCURVE",
"2697 371 CURVE",
"2687 356 LINE SMOOTH"
);
}
);
width = 2847;
}
);
note = FEu1s;
},
{
glyphname = FEf1s;
lastChange = "2020-10-13 12:04:57 +0000";
layers = (
{
anchors = (
{
name = bottom2;
position = "{0, 0}";
},
{
name = entry;
position = "{3078, 225}";
},
{
name = top;
position = "{1080, 1035}";
},
{
name = top2;
position = "{0, 0}";
}
);
layerId = "6D6001D6-F15D-4D59-841D-B4ABFE65A828";
paths = (
{
closed = 1;
nodes = (
"2356.667 -35 OFFCURVE",
"2436.5 -5 OFFCURVE",
"2493.5 23 CURVE SMOOTH",
"2577.573 64.299 OFFCURVE",
"2590.556 70.963 OFFCURVE",
"2663 77 CURVE SMOOTH",
"2693 79 OFFCURVE",
"2723.667 84 OFFCURVE",
"2755 92 CURVE SMOOTH",
"2863 120 OFFCURVE",
"3005.667 172.833 OFFCURVE",
"3075 229.5 CURVE SMOOTH",
"3109.667 257.833 OFFCURVE",
"3134.667 282.333 OFFCURVE",
"3150 303 CURVE",
"3176.667 345.667 OFFCURVE",
"3145 382.333 OFFCURVE",
"3109 377 CURVE",
"3031.5 328 LINE SMOOTH",
"3004.5 310.667 OFFCURVE",
"2971 293 OFFCURVE",
"2931 275 CURVE SMOOTH",
"2888.333 257.667 OFFCURVE",
"2854.667 247.667 OFFCURVE",
"2830 245 CURVE SMOOTH",
"2824 244.333 OFFCURVE",
"2826.5 255.167 OFFCURVE",
"2837.5 277.5 CURVE SMOOTH",
"2848.5 299.833 OFFCURVE",
"2860.667 330 OFFCURVE",
"2874 368 CURVE SMOOTH",
"2894.667 420 OFFCURVE",
"2905 461.333 OFFCURVE",
"2905 492 CURVE SMOOTH",
"2905 526 LINE SMOOTH",
"2905 547.333 OFFCURVE",
"2901.333 569.333 OFFCURVE",
"2894 592 CURVE SMOOTH",
"2881.333 626 OFFCURVE",
"2862.333 650 OFFCURVE",
"2837 664 CURVE SMOOTH",
"2819.667 672.667 OFFCURVE",
"2804.333 677 OFFCURVE",
"2791 677 CURVE SMOOTH",
"2787 677 LINE SMOOTH",
"2767 677 OFFCURVE",
"2743.667 670.333 OFFCURVE",
"2717 657 CURVE SMOOTH",
"2692.333 646.333 OFFCURVE",
"2663.667 625.333 OFFCURVE",
"2631 594 CURVE SMOOTH",
"2580.333 542 OFFCURVE",
"2560.167 508.167 OFFCURVE",
"2527.5 447.5 CURVE SMOOTH",
"2511.167 417.167 OFFCURVE",
"2498.333 388.667 OFFCURVE",
"2489 362 CURVE SMOOTH",
"2471.667 306 OFFCURVE",
"2462.333 268.5 OFFCURVE",
"2461 249.5 CURVE SMOOTH",
"2459.667 230.5 OFFCURVE",
"2459 218 OFFCURVE",
"2459 212 CURVE",
"2426.903 195.951 OFFCURVE",
"2374.406 175.873 OFFCURVE",
"2273 151 CURVE SMOOTH",
"2131.667 116.333 OFFCURVE",
"1844.5 68 OFFCURVE",
"1562.5 48 CURVE SMOOTH",
"1280.5 28 OFFCURVE",
"897.333 19.833 OFFCURVE",
"628 48.5 CURVE SMOOTH",
"493.333 62.833 OFFCURVE",
"385.667 82.5 OFFCURVE",
"305 107.5 CURVE SMOOTH",
"224.333 132.5 OFFCURVE",
"167 158.667 OFFCURVE",
"133 186 CURVE SMOOTH",
"125 192.667 OFFCURVE",
"116.167 195.833 OFFCURVE",
"106.5 195.5 CURVE SMOOTH",
"96.833 195.167 OFFCURVE",
"92 156.333 OFFCURVE",
"92 79 CURVE SMOOTH",
"92 -25.667 OFFCURVE",
"136.667 -102 OFFCURVE",
"226 -150 CURVE SMOOTH",
"259.333 -168.667 OFFCURVE",
"309.333 -183.667 OFFCURVE",
"376 -195 CURVE SMOOTH",
"600 -233.667 OFFCURVE",
"977.167 -238.833 OFFCURVE",
"1276.5 -219.5 CURVE SMOOTH",
"1426.167 -209.833 OFFCURVE",
"1547.667 -199.5 OFFCURVE",
"1641 -188.5 CURVE SMOOTH",
"1827.667 -166.5 OFFCURVE",
"2030 -137.667 OFFCURVE",
"2254 -67 CURVE SMOOTH"
);
},
{
closed = 1;
nodes = (
"2610.667 278.667 OFFCURVE",
"2597.667 286.667 OFFCURVE",
"2591 296 CURVE SMOOTH",
"2540.706 357.47 OFFCURVE",
"2550.63 407.874 OFFCURVE",
"2610.5 466 CURVE SMOOTH",
"2679.167 532.667 OFFCURVE",
"2780.833 525.667 OFFCURVE",
"2817.5 479 CURVE SMOOTH",
"2835.833 455.667 OFFCURVE",
"2842.667 432.333 OFFCURVE",
"2838 409 CURVE",
"2838 400.333 OFFCURVE",
"2833 390.667 OFFCURVE",
"2823 380 CURVE SMOOTH",
"2785.667 338.667 OFFCURVE",
"2710 289.333 OFFCURVE",
"2630 272 CURVE"
);
}
);
width = 3070;
}
);
note = FEf1s;
},
{
glyphname = KAFu1s;
lastChange = "2020-10-13 12:04:57 +0000";
layers = (
{
anchors = (
{
name = bottom2;
position = "{1170, -630}";
},
{
name = top2;
position = "{0, 0}";
}
);
layerId = "6D6001D6-F15D-4D59-841D-B4ABFE65A828";
paths = (
{
closed = 1;
nodes = (
"2703 529.5 LINE SMOOTH",
"2703 430.167 OFFCURVE",
"2696.333 386.667 OFFCURVE",
"2683 348 CURVE SMOOTH",
"2665.939 301.692 OFFCURVE",
"2634.95 276.03 OFFCURVE",
"2565 242 CURVE SMOOTH",
"2449 186 OFFCURVE",
"2232.5 125.333 OFFCURVE",
"1970.5 84 CURVE SMOOTH",
"1708.5 42.667 OFFCURVE",
"1437.833 24 OFFCURVE",
"1090.5 20 CURVE SMOOTH",
"743.167 16 OFFCURVE",
"466.333 47.5 OFFCURVE",
"305 97.5 CURVE SMOOTH",
"224.333 122.5 OFFCURVE",
"167 148.667 OFFCURVE",
"133 176 CURVE SMOOTH",
"125 182.667 OFFCURVE",
"116.167 185.833 OFFCURVE",
"106.5 185.5 CURVE SMOOTH",
"96.833 185.167 OFFCURVE",
"92 146.333 OFFCURVE",
"92 69 CURVE SMOOTH",
"92 -35.667 OFFCURVE",
"136.667 -112 OFFCURVE",
"226 -160 CURVE SMOOTH",
"259.333 -178.667 OFFCURVE",
"309.333 -193.667 OFFCURVE",
"376 -205 CURVE SMOOTH",
"600 -243.667 OFFCURVE",
"974 -248.833 OFFCURVE",
"1286 -229.5 CURVE SMOOTH",
"1442 -219.833 OFFCURVE",
"1564 -209.833 OFFCURVE",
"1652 -199.5 CURVE SMOOTH",
"1828 -178.833 OFFCURVE",
"2030.167 -147.5 OFFCURVE",
"2253.5 -77.5 CURVE SMOOTH",
"2365.167 -42.5 OFFCURVE",
"2458 -0.667 OFFCURVE",
"2532 48 CURVE SMOOTH",
"2582.667 80.667 OFFCURVE",
"2626 120 OFFCURVE",
"2662 166 CURVE SMOOTH",
"2674 181.333 OFFCURVE",
"2683.333 194 OFFCURVE",
"2690 204 CURVE SMOOTH",
"2696.667 214 OFFCURVE",
"2700.667 220.667 OFFCURVE",
"2702 224 CURVE SMOOTH",
"2707 232 LINE SMOOTH",
"2725 267.333 OFFCURVE",
"2742 304.667 OFFCURVE",
"2758 344 CURVE SMOOTH",
"2769.333 368 OFFCURVE",
"2779.333 393.333 OFFCURVE",
"2788 420 CURVE SMOOTH",
"2808 482.667 OFFCURVE",
"2820.667 552.667 OFFCURVE",
"2826 630 CURVE",
"2826 808 LINE SMOOTH",
"2826.667 960 OFFCURVE",
"2826.667 1069.333 OFFCURVE",
"2826 1136 CURVE",
"2826.667 1142 OFFCURVE",
"2827 1148 OFFCURVE",
"2827 1154 CURVE",
"2826 1154 LINE",
"2826 1247 LINE SMOOTH",
"2828.667 1324.333 OFFCURVE",
"2831.5 1356.5 OFFCURVE",
"2853.5 1382.5 CURVE SMOOTH",
"2864.5 1395.5 OFFCURVE",
"2880.667 1410 OFFCURVE",
"2902 1426 CURVE SMOOTH",
"3080.5 1561 LINE SMOOTH",
"3275.833 1709 OFFCURVE",
"3462 1865.167 OFFCURVE",
"3530 1944.5 CURVE SMOOTH",
"3564 1984.167 OFFCURVE",
"3594.333 2030.667 OFFCURVE",
"3621 2084 CURVE SMOOTH",
"3652 2149 LINE SMOOTH",
"3669.618 2186.438 OFFCURVE",
"3659.648 2207.472 OFFCURVE",
"3638 2175 CURVE",
"3604.667 2135.667 OFFCURVE",
"3502.333 2045.333 OFFCURVE",
"3331 1904 CURVE",
"3076.333 1714 OFFCURVE",
"2928.667 1592.333 OFFCURVE",
"2888 1539 CURVE SMOOTH",
"2818.667 1439 OFFCURVE",
"2774.5 1336.667 OFFCURVE",
"2748.5 1250 CURVE SMOOTH",
"2735.5 1206.667 OFFCURVE",
"2720.667 1144.333 OFFCURVE",
"2704 1063 CURVE",
"2704 834 LINE"
);
}
);
width = 3116;
}
);
note = KAFu1s;
},
{
glyphname = GAFu1s;
lastChange = "2020-10-13 12:04:57 +0000";
layers = (
{
anchors = (
{
name = bottom2;
position = "{1026, -621}";
},
{
name = top2;
position = "{0, 0}";
}
);
layerId = "6D6001D6-F15D-4D59-841D-B4ABFE65A828";
paths = (
{
closed = 1;
nodes = (
"2703 529.5 LINE SMOOTH",
"2703 430.167 OFFCURVE",
"2696.333 386.667 OFFCURVE",
"2683 348 CURVE SMOOTH",
"2665.939 301.692 OFFCURVE",
"2634.95 276.03 OFFCURVE",
"2565 242 CURVE SMOOTH",
"2449 186 OFFCURVE",
"2232.5 125.333 OFFCURVE",
"1970.5 84 CURVE SMOOTH",
"1708.5 42.667 OFFCURVE",
"1437.833 24 OFFCURVE",
"1090.5 20 CURVE SMOOTH",
"743.167 16 OFFCURVE",
"466.333 47.5 OFFCURVE",
"305 97.5 CURVE SMOOTH",
"224.333 122.5 OFFCURVE",
"167 148.667 OFFCURVE",
"133 176 CURVE SMOOTH",
"125 182.667 OFFCURVE",
"116.167 185.833 OFFCURVE",
"106.5 185.5 CURVE SMOOTH",
"96.833 185.167 OFFCURVE",
"92 146.333 OFFCURVE",
"92 69 CURVE SMOOTH",
"92 -35.667 OFFCURVE",
"136.667 -112 OFFCURVE",
"226 -160 CURVE SMOOTH",
"259.333 -178.667 OFFCURVE",
"309.333 -193.667 OFFCURVE",
"376 -205 CURVE SMOOTH",
"600 -243.667 OFFCURVE",
"974 -248.833 OFFCURVE",
"1286 -229.5 CURVE SMOOTH",
"1442 -219.833 OFFCURVE",
"1564 -209.833 OFFCURVE",
"1652 -199.5 CURVE SMOOTH",
"1828 -178.833 OFFCURVE",
"2030.167 -147.5 OFFCURVE",
"2253.5 -77.5 CURVE SMOOTH",
"2365.167 -42.5 OFFCURVE",
"2458 -0.667 OFFCURVE",
"2532 48 CURVE SMOOTH",
"2582.667 80.667 OFFCURVE",
"2626 120 OFFCURVE",
"2662 166 CURVE SMOOTH",
"2674 181.333 OFFCURVE",
"2683.333 194 OFFCURVE",
"2690 204 CURVE SMOOTH",
"2696.667 214 OFFCURVE",
"2700.667 220.667 OFFCURVE",
"2702 224 CURVE SMOOTH",
"2707 232 LINE SMOOTH",
"2725 267.333 OFFCURVE",
"2742 304.667 OFFCURVE",
"2758 344 CURVE SMOOTH",
"2769.333 368 OFFCURVE",
"2779.333 393.333 OFFCURVE",
"2788 420 CURVE SMOOTH",
"2808 482.667 OFFCURVE",
"2820.667 552.667 OFFCURVE",
"2826 630 CURVE",
"2826 808 LINE SMOOTH",
"2826.667 960 OFFCURVE",
"2826.667 1069.333 OFFCURVE",
"2826 1136 CURVE",
"2826.667 1142 OFFCURVE",
"2827 1148 OFFCURVE",
"2827 1154 CURVE",
"2826 1154 LINE",
"2826 1247 LINE SMOOTH",
"2828.667 1324.333 OFFCURVE",
"2831.5 1356.5 OFFCURVE",
"2853.5 1382.5 CURVE SMOOTH",
"2864.5 1395.5 OFFCURVE",
"2880.667 1410 OFFCURVE",
"2902 1426 CURVE SMOOTH",
"3080.5 1561 LINE SMOOTH",
"3275.833 1709 OFFCURVE",
"3462 1865.167 OFFCURVE",
"3530 1944.5 CURVE SMOOTH",
"3564 1984.167 OFFCURVE",
"3594.333 2030.667 OFFCURVE",
"3621 2084 CURVE SMOOTH",
"3652 2149 LINE SMOOTH",
"3669.618 2186.438 OFFCURVE",
"3659.648 2207.472 OFFCURVE",
"3638 2175 CURVE",
"3604.667 2135.667 OFFCURVE",
"3502.333 2045.333 OFFCURVE",
"3331 1904 CURVE",
"3076.333 1714 OFFCURVE",
"2928.667 1592.333 OFFCURVE",
"2888 1539 CURVE SMOOTH",
"2818.667 1439 OFFCURVE",
"2774.5 1336.667 OFFCURVE",
"2748.5 1250 CURVE SMOOTH",
"2735.5 1206.667 OFFCURVE",
"2720.667 1144.333 OFFCURVE",
"2704 1063 CURVE",
"2704 834 LINE"
);
}
);
width = 3116;
}
);
note = GAFu1s;
},
{
glyphname = SINu1s;
lastChange = "2020-10-13 12:04:57 +0000";
layers = (
{
anchors = (
{
name = bottom2;
position = "{1395, -63}";
},
{
name = top;
position = "{1890, 1791}";
},
{
name = top2;
position = "{0, 0}";
}
);
layerId = "6D6001D6-F15D-4D59-841D-B4ABFE65A828";
paths = (
{
closed = 1;
nodes = (
"1192.333 363.667 OFFCURVE",
"1249 361.333 OFFCURVE",
"1335 354 CURVE SMOOTH",
"1507 339.333 OFFCURVE",
"1799.167 365.5 OFFCURVE",
"1994.5 411.5 CURVE SMOOTH",
"2189.833 457.5 OFFCURVE",
"2349 522.833 OFFCURVE",
"2549 639.5 CURVE SMOOTH",
"2684.891 718.77 OFFCURVE",
"3116.533 1107.905 OFFCURVE",
"3194.5 1142.5 CURVE SMOOTH",
"3244.833 1164.833 OFFCURVE",
"3276.833 1184 OFFCURVE",
"3290.5 1200 CURVE SMOOTH",
"3317.833 1232 OFFCURVE",
"3410 1354.833 OFFCURVE",
"3382 1391.5 CURVE",
"3409.333 1413.833 OFFCURVE",
"3412.667 1424 OFFCURVE",
"3392 1422 CURVE SMOOTH",
"3290.94 1412.22 OFFCURVE",
"2752.209 937.67 OFFCURVE",
"2516 822 CURVE SMOOTH",
"2386.667 758.667 OFFCURVE",
"2259.167 711 OFFCURVE",
"2133.5 679 CURVE SMOOTH",
"2007.833 647 OFFCURVE",
"1688.333 640 OFFCURVE",
"1175 658 CURVE",
"1162.333 668 OFFCURVE",
"1153.333 679 OFFCURVE",
"1148 691 CURVE SMOOTH",
"1142.667 701.667 OFFCURVE",
"1136.667 706 OFFCURVE",
"1126 698 CURVE SMOOTH",
"1093.333 674 OFFCURVE",
"1064.333 619.667 OFFCURVE",
"1039 535 CURVE",
"1048.333 344.333 OFFCURVE",
"1057.667 193.333 OFFCURVE",
"1043 128 CURVE SMOOTH",
"1023 56 OFFCURVE",
"997.167 -9.833 OFFCURVE",
"924.5 -110.5 CURVE SMOOTH",
"888.167 -160.833 OFFCURVE",
"835.667 -208.667 OFFCURVE",
"767 -254 CURVE SMOOTH",
"727 -280 OFFCURVE",
"684.667 -298.667 OFFCURVE",
"640 -310 CURVE SMOOTH",
"478.074 -349.655 OFFCURVE",
"330.093 -298.212 OFFCURVE",
"253 -184 CURVE SMOOTH",
"217 -130.667 OFFCURVE",
"206.5 -64 OFFCURVE",
"208.5 0 CURVE SMOOTH",
"209.5 32 OFFCURVE",
"219 78 OFFCURVE",
"237 138 CURVE SMOOTH",
"248.333 173.333 OFFCURVE",
"263 213.667 OFFCURVE",
"281 259 CURVE SMOOTH",
"313 331 OFFCURVE",
"329 377 OFFCURVE",
"329 397 CURVE SMOOTH",
"329 401 LINE SMOOTH",
"327.667 410.333 OFFCURVE",
"323.667 415 OFFCURVE",
"317 415 CURVE SMOOTH",
"311 415 LINE",
"307 410 LINE SMOOTH",
"207 268.667 OFFCURVE",
"100 17.333 OFFCURVE",
"100 -188 CURVE SMOOTH",
"100 -313.333 OFFCURVE",
"130.333 -410 OFFCURVE",
"191 -478 CURVE",
"262.333 -550 OFFCURVE",
"344.667 -586 OFFCURVE",
"438 -586 CURVE SMOOTH",
"477 -586 LINE SMOOTH",
"509.667 -586 OFFCURVE",
"547 -579 OFFCURVE",
"589 -565 CURVE SMOOTH",
"617 -556.333 OFFCURVE",
"644 -544.333 OFFCURVE",
"670 -529 CURVE SMOOTH",
"701.333 -513.667 OFFCURVE",
"742.667 -483.667 OFFCURVE",
"794 -439 CURVE SMOOTH",
"817 -418 LINE",
"927.667 -298 OFFCURVE",
"981.333 -209.667 OFFCURVE",
"1016 -135 CURVE SMOOTH",
"1056 -56.333 OFFCURVE",
"1105.667 109 OFFCURVE",
"1165 361 CURVE"
);
}
);
width = 3008;
}
);
note = SINu1s;
},
{
glyphname = KAFf1s;
lastChange = "2020-10-13 12:04:57 +0000";
layers = (
{
anchors = (
{
name = bottom2;
position = "{1125, -738}";
},
{
name = top2;
position = "{0, 0}";
}
);
layerId = "6D6001D6-F15D-4D59-841D-B4ABFE65A828";
paths = (
{
closed = 1;
nodes = (
"2759.333 432 OFFCURVE",
"2605.333 284.5 OFFCURVE",
"2268 174.5 CURVE SMOOTH",
"1930.667 64.5 OFFCURVE",
"1497.333 6.167 OFFCURVE",
"1116 1.5 CURVE SMOOTH",
"734.667 -3.167 OFFCURVE",
"466.333 28.5 OFFCURVE",
"305 78.5 CURVE SMOOTH",
"224.333 103.5 OFFCURVE",
"167 129.667 OFFCURVE",
"133 157 CURVE SMOOTH",
"125 163.667 OFFCURVE",
"116.167 166.833 OFFCURVE",
"106.5 166.5 CURVE SMOOTH",
"96.833 166.167 OFFCURVE",
"92 127.333 OFFCURVE",
"92 50 CURVE SMOOTH",
"92 -54.667 OFFCURVE",
"136.667 -131.167 OFFCURVE",
"226 -179.5 CURVE SMOOTH",
"404.667 -276.167 OFFCURVE",
"1225.167 -281.833 OFFCURVE",
"1712.5 -190.5 CURVE SMOOTH",
"2199.833 -99.167 OFFCURVE",
"2474.667 38.667 OFFCURVE",
"2612 172 CURVE SMOOTH",
"2680.667 238.667 OFFCURVE",
"2735.667 307.333 OFFCURVE",
"2777 378 CURVE",
"2775 336 LINE",
"2774 305 LINE SMOOTH",
"2767.333 223.667 OFFCURVE",
"2749.333 37.333 OFFCURVE",
"2772 -64 CURVE SMOOTH",
"2783.333 -114.667 OFFCURVE",
"2798.333 -152.833 OFFCURVE",
"2817 -178.5 CURVE SMOOTH",
"2854.333 -229.833 OFFCURVE",
"2887.333 -243.333 OFFCURVE",
"2922 -250 CURVE",
"2971.333 -254 OFFCURVE",
"3033.333 -218.333 OFFCURVE",
"3060 -137 CURVE SMOOTH",
"3073.333 -96.333 OFFCURVE",
"3075.667 -48.667 OFFCURVE",
"3067 6 CURVE",
"3056.333 3.333 OFFCURVE",
"2976.5 22.167 OFFCURVE",
"2942.5 61.5 CURVE SMOOTH",
"2908.5 100.833 OFFCURVE",
"2883.667 153.667 OFFCURVE",
"2877 223 CURVE SMOOTH",
"2873 254.333 OFFCURVE",
"2872 292.333 OFFCURVE",
"2874 337 CURVE SMOOTH",
"2874 350 LINE SMOOTH",
"2878 451.333 OFFCURVE",
"2927 781.333 OFFCURVE",
"2951 904 CURVE SMOOTH",
"2970 1000 LINE SMOOTH",
"2975.333 1025.333 OFFCURVE",
"3008.333 1059 OFFCURVE",
"3051 1091 CURVE SMOOTH",
"3072.333 1107 OFFCURVE",
"3119.667 1144.333 OFFCURVE",
"3193 1203 CURVE SMOOTH",
"3626 1550 LINE",
"3651.333 1575.333 OFFCURVE",
"3717.667 1644.167 OFFCURVE",
"3767 1743.5 CURVE SMOOTH",
"3791.667 1793.167 OFFCURVE",
"3804 1819 OFFCURVE",
"3804 1821 CURVE SMOOTH",
"3804 1822 LINE SMOOTH",
"3804 1822.667 OFFCURVE",
"3803.333 1823 OFFCURVE",
"3802 1823 CURVE SMOOTH",
"3800.667 1823 OFFCURVE",
"3776.667 1802 OFFCURVE",
"3730 1760 CURVE SMOOTH",
"3624.268 1664.842 OFFCURVE",
"3121.112 1307.557 OFFCURVE",
"3033 1192 CURVE SMOOTH",
"3001 1150 OFFCURVE",
"2969 1087.333 OFFCURVE",
"2937 1004 CURVE",
"2901 924.667 OFFCURVE",
"2873.833 861.5 OFFCURVE",
"2855.5 814.5 CURVE SMOOTH",
"2837.167 767.5 OFFCURVE",
"2826 732 OFFCURVE",
"2822 708 CURVE"
);
}
);
width = 2982;
}
);
note = KAFf1s;
},
{
glyphname = GAFf1s;
lastChange = "2020-10-13 12:04:57 +0000";
layers = (
{
anchors = (
{
name = bottom2;
position = "{1053, -783}";
},
{
name = top2;
position = "{0, 0}";
}
);
layerId = "6D6001D6-F15D-4D59-841D-B4ABFE65A828";
paths = (
{
closed = 1;
nodes = (
"3042 1360.667 OFFCURVE",
"3070.167 1379.667 OFFCURVE",
"3120.5 1417 CURVE SMOOTH",
"3317.5 1562 LINE SMOOTH",
"3398.5 1621.333 OFFCURVE",
"3459.833 1669 OFFCURVE",
"3501.5 1705 CURVE SMOOTH",
"3543.167 1741 OFFCURVE",
"3570.667 1773.5 OFFCURVE",
"3584 1802.5 CURVE SMOOTH",
"3611.301 1861.88 OFFCURVE",
"3617.659 1890.089 OFFCURVE",
"3580 1848 CURVE",
"3562.667 1832 OFFCURVE",
"3533.5 1808 OFFCURVE",
"3492.5 1776 CURVE SMOOTH",
"3403.8 1706.771 OFFCURVE",
"3218.903 1578.376 OFFCURVE",
"3093 1467 CURVE SMOOTH",
"3075.667 1451 OFFCURVE",
"3024 1368 OFFCURVE",
"3036 1360 CURVE"
);
},
{
closed = 1;
nodes = (
"2759.333 432 OFFCURVE",
"2605.333 284.5 OFFCURVE",
"2268 174.5 CURVE SMOOTH",
"1930.667 64.5 OFFCURVE",
"1497.333 6.167 OFFCURVE",
"1116 1.5 CURVE SMOOTH",
"734.667 -3.167 OFFCURVE",
"466.333 28.5 OFFCURVE",
"305 78.5 CURVE SMOOTH",
"224.333 103.5 OFFCURVE",
"167 129.667 OFFCURVE",
"133 157 CURVE SMOOTH",
"125 163.667 OFFCURVE",
"116.167 166.833 OFFCURVE",
"106.5 166.5 CURVE SMOOTH",
"96.833 166.167 OFFCURVE",
"92 127.333 OFFCURVE",
"92 50 CURVE SMOOTH",
"92 -54.667 OFFCURVE",
"136.667 -131.167 OFFCURVE",
"226 -179.5 CURVE SMOOTH",
"404.667 -276.167 OFFCURVE",
"1225.167 -281.833 OFFCURVE",
"1712.5 -190.5 CURVE SMOOTH",
"2199.833 -99.167 OFFCURVE",
"2474.667 38.667 OFFCURVE",
"2612 172 CURVE SMOOTH",
"2680.667 238.667 OFFCURVE",
"2735.667 307.333 OFFCURVE",
"2777 378 CURVE",
"2775 336 LINE",
"2774 305 LINE SMOOTH",
"2767.333 223.667 OFFCURVE",
"2749.333 37.333 OFFCURVE",
"2772 -64 CURVE SMOOTH",
"2783.333 -114.667 OFFCURVE",
"2798.333 -152.833 OFFCURVE",
"2817 -178.5 CURVE SMOOTH",
"2854.333 -229.833 OFFCURVE",
"2887.333 -243.333 OFFCURVE",
"2922 -250 CURVE",
"2971.333 -254 OFFCURVE",
"3033.333 -218.333 OFFCURVE",
"3060 -137 CURVE SMOOTH",
"3073.333 -96.333 OFFCURVE",
"3075.667 -48.667 OFFCURVE",
"3067 6 CURVE",
"3056.333 3.333 OFFCURVE",
"2976.5 22.167 OFFCURVE",
"2942.5 61.5 CURVE SMOOTH",
"2908.5 100.833 OFFCURVE",
"2883.667 153.667 OFFCURVE",
"2877 223 CURVE SMOOTH",
"2873 254.333 OFFCURVE",
"2872 292.333 OFFCURVE",
"2874 337 CURVE SMOOTH",
"2874 350 LINE SMOOTH",
"2878 451.333 OFFCURVE",
"2927 781.333 OFFCURVE",
"2951 904 CURVE SMOOTH",
"2970 1000 LINE SMOOTH",
"2975.333 1025.333 OFFCURVE",
"3008.333 1059 OFFCURVE",
"3051 1091 CURVE SMOOTH",
"3072.333 1107 OFFCURVE",
"3119.667 1144.333 OFFCURVE",
"3193 1203 CURVE SMOOTH",
"3626 1550 LINE",
"3651.333 1575.333 OFFCURVE",
"3717.667 1644.167 OFFCURVE",
"3767 1743.5 CURVE SMOOTH",
"3791.667 1793.167 OFFCURVE",
"3804 1819 OFFCURVE",
"3804 1821 CURVE SMOOTH",
"3804 1822 LINE SMOOTH",
"3804 1822.667 OFFCURVE",
"3803.333 1823 OFFCURVE",
"3802 1823 CURVE SMOOTH",
"3800.667 1823 OFFCURVE",
"3776.667 1802 OFFCURVE",
"3730 1760 CURVE SMOOTH",
"3624.268 1664.842 OFFCURVE",
"3121.112 1307.557 OFFCURVE",
"3033 1192 CURVE SMOOTH",
"3001 1150 OFFCURVE",
"2969 1087.333 OFFCURVE",
"2937 1004 CURVE",
"2901 924.667 OFFCURVE",
"2873.833 861.5 OFFCURVE",
"2855.5 814.5 CURVE SMOOTH",
"2837.167 767.5 OFFCURVE",
"2826 732 OFFCURVE",
"2822 708 CURVE"
);
}
);
width = 2982;
}
);
note = GAFf1s;
},
{
glyphname = glyph00222;
lastChange = "2020-10-13 12:04:57 +0000";
layers = (
{
anchors = (
{
name = Anchor119;
position = "{291, -247}";
}
);
layerId = "6D6001D6-F15D-4D59-841D-B4ABFE65A828";
paths = (
{
closed = 1;
nodes = (
"-376.667 -355 OFFCURVE",
"-388.667 -363 OFFCURVE",
"-402 -379 CURVE",
"-428 -422.333 OFFCURVE",
"-450.667 -457.667 OFFCURVE",
"-470 -485 CURVE SMOOTH",
"-499.333 -522.333 OFFCURVE",
"-514 -549.333 OFFCURVE",
"-514 -566 CURVE SMOOTH",
"-514 -569 LINE SMOOTH",
"-514 -575 OFFCURVE",
"-505.333 -585.667 OFFCURVE",
"-488 -601 CURVE SMOOTH",
"-434 -643 OFFCURVE",
"-396.333 -666 OFFCURVE",
"-375 -670 CURVE",
"-370.333 -670 OFFCURVE",
"-362.333 -668 OFFCURVE",
"-351 -664 CURVE",
"-350.333 -664 OFFCURVE",
"-338.667 -653 OFFCURVE",
"-316 -631 CURVE SMOOTH",
"-286 -599.667 OFFCURVE",
"-265.333 -575.667 OFFCURVE",
"-254 -559 CURVE SMOOTH",
"-231.333 -523.667 OFFCURVE",
"-220 -498 OFFCURVE",
"-220 -482 CURVE SMOOTH",
"-220 -478 LINE SMOOTH",
"-220 -470.667 OFFCURVE",
"-223.667 -462.333 OFFCURVE",
"-231 -453 CURVE SMOOTH",
"-245 -438.333 OFFCURVE",
"-259.333 -425 OFFCURVE",
"-274 -413 CURVE SMOOTH",
"-320.667 -375 OFFCURVE",
"-351 -355.667 OFFCURVE",
"-365 -355 CURVE SMOOTH",
"-366 -355 LINE SMOOTH"
);
}
);
width = 0;
}
);
note = glyph00222;
},
{
glyphname = glyph00223;
lastChange = "2020-10-13 12:04:57 +0000";
layers = (
{
anchors = (
{
name = Anchor119;
position = "{309, -466}";
}
);
layerId = "6D6001D6-F15D-4D59-841D-B4ABFE65A828";
paths = (
{
closed = 1;
nodes = (
"-233.889 -718.333 OFFCURVE",
"-312.206 -657.72 OFFCURVE",
"-340 -632.5 CURVE SMOOTH",
"-376 -599.833 OFFCURVE",
"-473 -780.667 OFFCURVE",
"-473 -814 CURVE SMOOTH",
"-473 -819.284 OFFCURVE",
"-430.913 -857.075 OFFCURVE",
"-416.5 -869.5 CURVE SMOOTH",
"-401.047 -882.822 OFFCURVE",
"-362.152 -918 OFFCURVE",
"-356 -918 CURVE",
"-310.458 -907.879 OFFCURVE",
"-229 -796.139 OFFCURVE",
"-229 -740 CURVE SMOOTH",
"-229 -734.667 OFFCURVE",
"-229.333 -731.333 OFFCURVE",
"-230 -730 CURVE SMOOTH"
);
},
{
closed = 1;
nodes = (
"-299 -596.667 OFFCURVE",
"-260 -622 OFFCURVE",
"-248 -622 CURVE SMOOTH",
"-242 -622 OFFCURVE",
"-234.667 -620 OFFCURVE",
"-226 -616 CURVE",
"-151.333 -544 OFFCURVE",
"-110.333 -485.333 OFFCURVE",
"-103 -440 CURVE",
"-103 -431 LINE SMOOTH",
"-103 -424.333 OFFCURVE",
"-107 -414.333 OFFCURVE",
"-115 -401 CURVE",
"-175.667 -343 OFFCURVE",
"-216.667 -312 OFFCURVE",
"-238 -308 CURVE",
"-249.333 -308 OFFCURVE",
"-261.333 -316.333 OFFCURVE",
"-274 -333 CURVE",
"-300.667 -377 OFFCURVE",
"-329.333 -415.667 OFFCURVE",
"-360 -449 CURVE",
"-364 -445 LINE SMOOTH",
"-427.333 -383.667 OFFCURVE",
"-465 -353 OFFCURVE",
"-477 -353 CURVE SMOOTH",
"-480 -353 LINE SMOOTH",
"-486.667 -353 OFFCURVE",
"-497 -359.667 OFFCURVE",
"-511 -373 CURVE",
"-581 -468.333 OFFCURVE",
"-617.333 -530 OFFCURVE",
"-620 -558 CURVE SMOOTH",
"-620 -564 LINE",
"-611 -576 LINE",
"-544.333 -637.333 OFFCURVE",
"-501.333 -668 OFFCURVE",
"-482 -668 CURVE",
"-473.333 -664 OFFCURVE",
"-466.333 -659.333 OFFCURVE",
"-461 -654 CURVE SMOOTH",
"-417.667 -602 OFFCURVE",
"-385.667 -566 OFFCURVE",
"-365 -546 CURVE"
);
}
);
width = 0;
}
);
note = glyph00223;
},
{
glyphname = glyph00224;
lastChange = "2020-10-13 12:04:57 +0000";
layers = (
{
anchors = (
{
name = Anchor119;
position = "{282, -238}";
}
);
layerId = "6D6001D6-F15D-4D59-841D-B4ABFE65A828";
paths = (
{
closed = 1;
nodes = (
"-299 -596.667 OFFCURVE",
"-260 -622 OFFCURVE",
"-248 -622 CURVE SMOOTH",
"-242 -622 OFFCURVE",
"-234.667 -620 OFFCURVE",
"-226 -616 CURVE",
"-151.333 -544 OFFCURVE",
"-110.333 -485.333 OFFCURVE",
"-103 -440 CURVE",
"-103 -431 LINE SMOOTH",
"-103 -424.333 OFFCURVE",
"-107 -414.333 OFFCURVE",
"-115 -401 CURVE",
"-175.667 -343 OFFCURVE",
"-216.667 -312 OFFCURVE",
"-238 -308 CURVE",
"-249.333 -308 OFFCURVE",
"-261.333 -316.333 OFFCURVE",
"-274 -333 CURVE",
"-300.667 -377 OFFCURVE",
"-329.333 -415.667 OFFCURVE",
"-360 -449 CURVE",
"-364 -445 LINE SMOOTH",
"-427.333 -383.667 OFFCURVE",
"-465 -353 OFFCURVE",
"-477 -353 CURVE SMOOTH",
"-480 -353 LINE SMOOTH",
"-486.667 -353 OFFCURVE",
"-497 -359.667 OFFCURVE",
"-511 -373 CURVE",
"-581 -468.333 OFFCURVE",
"-617.333 -530 OFFCURVE",
"-620 -558 CURVE SMOOTH",
"-620 -564 LINE",
"-611 -576 LINE",
"-544.333 -637.333 OFFCURVE",
"-501.333 -668 OFFCURVE",
"-482 -668 CURVE",
"-473.333 -664 OFFCURVE",
"-466.333 -659.333 OFFCURVE",
"-461 -654 CURVE SMOOTH",
"-417.667 -602 OFFCURVE",
"-385.667 -566 OFFCURVE",
"-365 -546 CURVE"
);
}
);
width = 0;
}
);
note = glyph00224;
},
{
glyphname = glyph00225;
lastChange = "2020-10-13 12:04:57 +0000";
layers = (
{
anchors = (
{
name = Anchor119;
position = "{309, -229}";
}
);
layerId = "6D6001D6-F15D-4D59-841D-B4ABFE65A828";
paths = (
{
closed = 1;
nodes = (
"-261 -627.333 OFFCURVE",
"-269 -594 OFFCURVE",
"-269 -562 CURVE SMOOTH",
"-269 -479.961 OFFCURVE",
"-176.131 -368.524 OFFCURVE",
"-160 -304 CURVE",
"-171 -304 LINE",
"-253 -436.5 LINE SMOOTH",
"-271.667 -466.833 OFFCURVE",
"-281.667 -483.667 OFFCURVE",
"-283 -487 CURVE SMOOTH",
"-322.333 -560.333 OFFCURVE",
"-342 -620.333 OFFCURVE",
"-342 -667 CURVE SMOOTH",
"-342 -716.711 OFFCURVE",
"-314.097 -777 OFFCURVE",
"-265 -777 CURVE SMOOTH",
"-204.649 -777 OFFCURVE",
"-134 -690.988 OFFCURVE",
"-134 -628 CURVE SMOOTH",
"-134 -604 OFFCURVE",
"-142.667 -584.333 OFFCURVE",
"-160 -569 CURVE",
"-245 -662 LINE"
);
}
);
width = 0;
}
);
note = glyph00225;
},
